G04 #@! TF.GenerationSoftware,KiCad,Pcbnew,5.1.4*
G04 #@! TF.CreationDate,2019-11-17T01:51:27+01:00*
G04 #@! TF.ProjectId,RevA,52657641-2e6b-4696-9361-645f70636258,rev?*
G04 #@! TF.SameCoordinates,Original*
G04 #@! TF.FileFunction,Paste,Bot*
G04 #@! TF.FilePolarity,Positive*
%FSLAX46Y46*%
G04 Gerber Fmt 4.6, Leading zero omitted, Abs format (unit mm)*
G04 Created by KiCad (PCBNEW 5.1.4) date 2019-11-17 01:51:27*
%MOMM*%
%LPD*%
G04 APERTURE LIST*
%ADD10C,0.100000*%
%ADD11C,0.590000*%
%ADD12R,1.000000X3.150000*%
%ADD13R,3.150000X1.000000*%
G04 APERTURE END LIST*
D10*
G36*
X131371958Y-80805710D02*
G01*
X131386276Y-80807834D01*
X131400317Y-80811351D01*
X131413946Y-80816228D01*
X131427031Y-80822417D01*
X131439447Y-80829858D01*
X131451073Y-80838481D01*
X131461798Y-80848202D01*
X131471519Y-80858927D01*
X131480142Y-80870553D01*
X131487583Y-80882969D01*
X131493772Y-80896054D01*
X131498649Y-80909683D01*
X131502166Y-80923724D01*
X131504290Y-80938042D01*
X131505000Y-80952500D01*
X131505000Y-81297500D01*
X131504290Y-81311958D01*
X131502166Y-81326276D01*
X131498649Y-81340317D01*
X131493772Y-81353946D01*
X131487583Y-81367031D01*
X131480142Y-81379447D01*
X131471519Y-81391073D01*
X131461798Y-81401798D01*
X131451073Y-81411519D01*
X131439447Y-81420142D01*
X131427031Y-81427583D01*
X131413946Y-81433772D01*
X131400317Y-81438649D01*
X131386276Y-81442166D01*
X131371958Y-81444290D01*
X131357500Y-81445000D01*
X131062500Y-81445000D01*
X131048042Y-81444290D01*
X131033724Y-81442166D01*
X131019683Y-81438649D01*
X131006054Y-81433772D01*
X130992969Y-81427583D01*
X130980553Y-81420142D01*
X130968927Y-81411519D01*
X130958202Y-81401798D01*
X130948481Y-81391073D01*
X130939858Y-81379447D01*
X130932417Y-81367031D01*
X130926228Y-81353946D01*
X130921351Y-81340317D01*
X130917834Y-81326276D01*
X130915710Y-81311958D01*
X130915000Y-81297500D01*
X130915000Y-80952500D01*
X130915710Y-80938042D01*
X130917834Y-80923724D01*
X130921351Y-80909683D01*
X130926228Y-80896054D01*
X130932417Y-80882969D01*
X130939858Y-80870553D01*
X130948481Y-80858927D01*
X130958202Y-80848202D01*
X130968927Y-80838481D01*
X130980553Y-80829858D01*
X130992969Y-80822417D01*
X131006054Y-80816228D01*
X131019683Y-80811351D01*
X131033724Y-80807834D01*
X131048042Y-80805710D01*
X131062500Y-80805000D01*
X131357500Y-80805000D01*
X131371958Y-80805710D01*
X131371958Y-80805710D01*
G37*
D11*
X131210000Y-81125000D03*
D10*
G36*
X130401958Y-80805710D02*
G01*
X130416276Y-80807834D01*
X130430317Y-80811351D01*
X130443946Y-80816228D01*
X130457031Y-80822417D01*
X130469447Y-80829858D01*
X130481073Y-80838481D01*
X130491798Y-80848202D01*
X130501519Y-80858927D01*
X130510142Y-80870553D01*
X130517583Y-80882969D01*
X130523772Y-80896054D01*
X130528649Y-80909683D01*
X130532166Y-80923724D01*
X130534290Y-80938042D01*
X130535000Y-80952500D01*
X130535000Y-81297500D01*
X130534290Y-81311958D01*
X130532166Y-81326276D01*
X130528649Y-81340317D01*
X130523772Y-81353946D01*
X130517583Y-81367031D01*
X130510142Y-81379447D01*
X130501519Y-81391073D01*
X130491798Y-81401798D01*
X130481073Y-81411519D01*
X130469447Y-81420142D01*
X130457031Y-81427583D01*
X130443946Y-81433772D01*
X130430317Y-81438649D01*
X130416276Y-81442166D01*
X130401958Y-81444290D01*
X130387500Y-81445000D01*
X130092500Y-81445000D01*
X130078042Y-81444290D01*
X130063724Y-81442166D01*
X130049683Y-81438649D01*
X130036054Y-81433772D01*
X130022969Y-81427583D01*
X130010553Y-81420142D01*
X129998927Y-81411519D01*
X129988202Y-81401798D01*
X129978481Y-81391073D01*
X129969858Y-81379447D01*
X129962417Y-81367031D01*
X129956228Y-81353946D01*
X129951351Y-81340317D01*
X129947834Y-81326276D01*
X129945710Y-81311958D01*
X129945000Y-81297500D01*
X129945000Y-80952500D01*
X129945710Y-80938042D01*
X129947834Y-80923724D01*
X129951351Y-80909683D01*
X129956228Y-80896054D01*
X129962417Y-80882969D01*
X129969858Y-80870553D01*
X129978481Y-80858927D01*
X129988202Y-80848202D01*
X129998927Y-80838481D01*
X130010553Y-80829858D01*
X130022969Y-80822417D01*
X130036054Y-80816228D01*
X130049683Y-80811351D01*
X130063724Y-80807834D01*
X130078042Y-80805710D01*
X130092500Y-80805000D01*
X130387500Y-80805000D01*
X130401958Y-80805710D01*
X130401958Y-80805710D01*
G37*
D11*
X130240000Y-81125000D03*
D10*
G36*
X132231958Y-86780710D02*
G01*
X132246276Y-86782834D01*
X132260317Y-86786351D01*
X132273946Y-86791228D01*
X132287031Y-86797417D01*
X132299447Y-86804858D01*
X132311073Y-86813481D01*
X132321798Y-86823202D01*
X132331519Y-86833927D01*
X132340142Y-86845553D01*
X132347583Y-86857969D01*
X132353772Y-86871054D01*
X132358649Y-86884683D01*
X132362166Y-86898724D01*
X132364290Y-86913042D01*
X132365000Y-86927500D01*
X132365000Y-87272500D01*
X132364290Y-87286958D01*
X132362166Y-87301276D01*
X132358649Y-87315317D01*
X132353772Y-87328946D01*
X132347583Y-87342031D01*
X132340142Y-87354447D01*
X132331519Y-87366073D01*
X132321798Y-87376798D01*
X132311073Y-87386519D01*
X132299447Y-87395142D01*
X132287031Y-87402583D01*
X132273946Y-87408772D01*
X132260317Y-87413649D01*
X132246276Y-87417166D01*
X132231958Y-87419290D01*
X132217500Y-87420000D01*
X131922500Y-87420000D01*
X131908042Y-87419290D01*
X131893724Y-87417166D01*
X131879683Y-87413649D01*
X131866054Y-87408772D01*
X131852969Y-87402583D01*
X131840553Y-87395142D01*
X131828927Y-87386519D01*
X131818202Y-87376798D01*
X131808481Y-87366073D01*
X131799858Y-87354447D01*
X131792417Y-87342031D01*
X131786228Y-87328946D01*
X131781351Y-87315317D01*
X131777834Y-87301276D01*
X131775710Y-87286958D01*
X131775000Y-87272500D01*
X131775000Y-86927500D01*
X131775710Y-86913042D01*
X131777834Y-86898724D01*
X131781351Y-86884683D01*
X131786228Y-86871054D01*
X131792417Y-86857969D01*
X131799858Y-86845553D01*
X131808481Y-86833927D01*
X131818202Y-86823202D01*
X131828927Y-86813481D01*
X131840553Y-86804858D01*
X131852969Y-86797417D01*
X131866054Y-86791228D01*
X131879683Y-86786351D01*
X131893724Y-86782834D01*
X131908042Y-86780710D01*
X131922500Y-86780000D01*
X132217500Y-86780000D01*
X132231958Y-86780710D01*
X132231958Y-86780710D01*
G37*
D11*
X132070000Y-87100000D03*
D10*
G36*
X131261958Y-86780710D02*
G01*
X131276276Y-86782834D01*
X131290317Y-86786351D01*
X131303946Y-86791228D01*
X131317031Y-86797417D01*
X131329447Y-86804858D01*
X131341073Y-86813481D01*
X131351798Y-86823202D01*
X131361519Y-86833927D01*
X131370142Y-86845553D01*
X131377583Y-86857969D01*
X131383772Y-86871054D01*
X131388649Y-86884683D01*
X131392166Y-86898724D01*
X131394290Y-86913042D01*
X131395000Y-86927500D01*
X131395000Y-87272500D01*
X131394290Y-87286958D01*
X131392166Y-87301276D01*
X131388649Y-87315317D01*
X131383772Y-87328946D01*
X131377583Y-87342031D01*
X131370142Y-87354447D01*
X131361519Y-87366073D01*
X131351798Y-87376798D01*
X131341073Y-87386519D01*
X131329447Y-87395142D01*
X131317031Y-87402583D01*
X131303946Y-87408772D01*
X131290317Y-87413649D01*
X131276276Y-87417166D01*
X131261958Y-87419290D01*
X131247500Y-87420000D01*
X130952500Y-87420000D01*
X130938042Y-87419290D01*
X130923724Y-87417166D01*
X130909683Y-87413649D01*
X130896054Y-87408772D01*
X130882969Y-87402583D01*
X130870553Y-87395142D01*
X130858927Y-87386519D01*
X130848202Y-87376798D01*
X130838481Y-87366073D01*
X130829858Y-87354447D01*
X130822417Y-87342031D01*
X130816228Y-87328946D01*
X130811351Y-87315317D01*
X130807834Y-87301276D01*
X130805710Y-87286958D01*
X130805000Y-87272500D01*
X130805000Y-86927500D01*
X130805710Y-86913042D01*
X130807834Y-86898724D01*
X130811351Y-86884683D01*
X130816228Y-86871054D01*
X130822417Y-86857969D01*
X130829858Y-86845553D01*
X130838481Y-86833927D01*
X130848202Y-86823202D01*
X130858927Y-86813481D01*
X130870553Y-86804858D01*
X130882969Y-86797417D01*
X130896054Y-86791228D01*
X130909683Y-86786351D01*
X130923724Y-86782834D01*
X130938042Y-86780710D01*
X130952500Y-86780000D01*
X131247500Y-86780000D01*
X131261958Y-86780710D01*
X131261958Y-86780710D01*
G37*
D11*
X131100000Y-87100000D03*
D10*
G36*
X130291958Y-86780710D02*
G01*
X130306276Y-86782834D01*
X130320317Y-86786351D01*
X130333946Y-86791228D01*
X130347031Y-86797417D01*
X130359447Y-86804858D01*
X130371073Y-86813481D01*
X130381798Y-86823202D01*
X130391519Y-86833927D01*
X130400142Y-86845553D01*
X130407583Y-86857969D01*
X130413772Y-86871054D01*
X130418649Y-86884683D01*
X130422166Y-86898724D01*
X130424290Y-86913042D01*
X130425000Y-86927500D01*
X130425000Y-87272500D01*
X130424290Y-87286958D01*
X130422166Y-87301276D01*
X130418649Y-87315317D01*
X130413772Y-87328946D01*
X130407583Y-87342031D01*
X130400142Y-87354447D01*
X130391519Y-87366073D01*
X130381798Y-87376798D01*
X130371073Y-87386519D01*
X130359447Y-87395142D01*
X130347031Y-87402583D01*
X130333946Y-87408772D01*
X130320317Y-87413649D01*
X130306276Y-87417166D01*
X130291958Y-87419290D01*
X130277500Y-87420000D01*
X129982500Y-87420000D01*
X129968042Y-87419290D01*
X129953724Y-87417166D01*
X129939683Y-87413649D01*
X129926054Y-87408772D01*
X129912969Y-87402583D01*
X129900553Y-87395142D01*
X129888927Y-87386519D01*
X129878202Y-87376798D01*
X129868481Y-87366073D01*
X129859858Y-87354447D01*
X129852417Y-87342031D01*
X129846228Y-87328946D01*
X129841351Y-87315317D01*
X129837834Y-87301276D01*
X129835710Y-87286958D01*
X129835000Y-87272500D01*
X129835000Y-86927500D01*
X129835710Y-86913042D01*
X129837834Y-86898724D01*
X129841351Y-86884683D01*
X129846228Y-86871054D01*
X129852417Y-86857969D01*
X129859858Y-86845553D01*
X129868481Y-86833927D01*
X129878202Y-86823202D01*
X129888927Y-86813481D01*
X129900553Y-86804858D01*
X129912969Y-86797417D01*
X129926054Y-86791228D01*
X129939683Y-86786351D01*
X129953724Y-86782834D01*
X129968042Y-86780710D01*
X129982500Y-86780000D01*
X130277500Y-86780000D01*
X130291958Y-86780710D01*
X130291958Y-86780710D01*
G37*
D11*
X130130000Y-87100000D03*
D10*
G36*
X132231958Y-85580710D02*
G01*
X132246276Y-85582834D01*
X132260317Y-85586351D01*
X132273946Y-85591228D01*
X132287031Y-85597417D01*
X132299447Y-85604858D01*
X132311073Y-85613481D01*
X132321798Y-85623202D01*
X132331519Y-85633927D01*
X132340142Y-85645553D01*
X132347583Y-85657969D01*
X132353772Y-85671054D01*
X132358649Y-85684683D01*
X132362166Y-85698724D01*
X132364290Y-85713042D01*
X132365000Y-85727500D01*
X132365000Y-86072500D01*
X132364290Y-86086958D01*
X132362166Y-86101276D01*
X132358649Y-86115317D01*
X132353772Y-86128946D01*
X132347583Y-86142031D01*
X132340142Y-86154447D01*
X132331519Y-86166073D01*
X132321798Y-86176798D01*
X132311073Y-86186519D01*
X132299447Y-86195142D01*
X132287031Y-86202583D01*
X132273946Y-86208772D01*
X132260317Y-86213649D01*
X132246276Y-86217166D01*
X132231958Y-86219290D01*
X132217500Y-86220000D01*
X131922500Y-86220000D01*
X131908042Y-86219290D01*
X131893724Y-86217166D01*
X131879683Y-86213649D01*
X131866054Y-86208772D01*
X131852969Y-86202583D01*
X131840553Y-86195142D01*
X131828927Y-86186519D01*
X131818202Y-86176798D01*
X131808481Y-86166073D01*
X131799858Y-86154447D01*
X131792417Y-86142031D01*
X131786228Y-86128946D01*
X131781351Y-86115317D01*
X131777834Y-86101276D01*
X131775710Y-86086958D01*
X131775000Y-86072500D01*
X131775000Y-85727500D01*
X131775710Y-85713042D01*
X131777834Y-85698724D01*
X131781351Y-85684683D01*
X131786228Y-85671054D01*
X131792417Y-85657969D01*
X131799858Y-85645553D01*
X131808481Y-85633927D01*
X131818202Y-85623202D01*
X131828927Y-85613481D01*
X131840553Y-85604858D01*
X131852969Y-85597417D01*
X131866054Y-85591228D01*
X131879683Y-85586351D01*
X131893724Y-85582834D01*
X131908042Y-85580710D01*
X131922500Y-85580000D01*
X132217500Y-85580000D01*
X132231958Y-85580710D01*
X132231958Y-85580710D01*
G37*
D11*
X132070000Y-85900000D03*
D10*
G36*
X131261958Y-85580710D02*
G01*
X131276276Y-85582834D01*
X131290317Y-85586351D01*
X131303946Y-85591228D01*
X131317031Y-85597417D01*
X131329447Y-85604858D01*
X131341073Y-85613481D01*
X131351798Y-85623202D01*
X131361519Y-85633927D01*
X131370142Y-85645553D01*
X131377583Y-85657969D01*
X131383772Y-85671054D01*
X131388649Y-85684683D01*
X131392166Y-85698724D01*
X131394290Y-85713042D01*
X131395000Y-85727500D01*
X131395000Y-86072500D01*
X131394290Y-86086958D01*
X131392166Y-86101276D01*
X131388649Y-86115317D01*
X131383772Y-86128946D01*
X131377583Y-86142031D01*
X131370142Y-86154447D01*
X131361519Y-86166073D01*
X131351798Y-86176798D01*
X131341073Y-86186519D01*
X131329447Y-86195142D01*
X131317031Y-86202583D01*
X131303946Y-86208772D01*
X131290317Y-86213649D01*
X131276276Y-86217166D01*
X131261958Y-86219290D01*
X131247500Y-86220000D01*
X130952500Y-86220000D01*
X130938042Y-86219290D01*
X130923724Y-86217166D01*
X130909683Y-86213649D01*
X130896054Y-86208772D01*
X130882969Y-86202583D01*
X130870553Y-86195142D01*
X130858927Y-86186519D01*
X130848202Y-86176798D01*
X130838481Y-86166073D01*
X130829858Y-86154447D01*
X130822417Y-86142031D01*
X130816228Y-86128946D01*
X130811351Y-86115317D01*
X130807834Y-86101276D01*
X130805710Y-86086958D01*
X130805000Y-86072500D01*
X130805000Y-85727500D01*
X130805710Y-85713042D01*
X130807834Y-85698724D01*
X130811351Y-85684683D01*
X130816228Y-85671054D01*
X130822417Y-85657969D01*
X130829858Y-85645553D01*
X130838481Y-85633927D01*
X130848202Y-85623202D01*
X130858927Y-85613481D01*
X130870553Y-85604858D01*
X130882969Y-85597417D01*
X130896054Y-85591228D01*
X130909683Y-85586351D01*
X130923724Y-85582834D01*
X130938042Y-85580710D01*
X130952500Y-85580000D01*
X131247500Y-85580000D01*
X131261958Y-85580710D01*
X131261958Y-85580710D01*
G37*
D11*
X131100000Y-85900000D03*
D10*
G36*
X130291958Y-85580710D02*
G01*
X130306276Y-85582834D01*
X130320317Y-85586351D01*
X130333946Y-85591228D01*
X130347031Y-85597417D01*
X130359447Y-85604858D01*
X130371073Y-85613481D01*
X130381798Y-85623202D01*
X130391519Y-85633927D01*
X130400142Y-85645553D01*
X130407583Y-85657969D01*
X130413772Y-85671054D01*
X130418649Y-85684683D01*
X130422166Y-85698724D01*
X130424290Y-85713042D01*
X130425000Y-85727500D01*
X130425000Y-86072500D01*
X130424290Y-86086958D01*
X130422166Y-86101276D01*
X130418649Y-86115317D01*
X130413772Y-86128946D01*
X130407583Y-86142031D01*
X130400142Y-86154447D01*
X130391519Y-86166073D01*
X130381798Y-86176798D01*
X130371073Y-86186519D01*
X130359447Y-86195142D01*
X130347031Y-86202583D01*
X130333946Y-86208772D01*
X130320317Y-86213649D01*
X130306276Y-86217166D01*
X130291958Y-86219290D01*
X130277500Y-86220000D01*
X129982500Y-86220000D01*
X129968042Y-86219290D01*
X129953724Y-86217166D01*
X129939683Y-86213649D01*
X129926054Y-86208772D01*
X129912969Y-86202583D01*
X129900553Y-86195142D01*
X129888927Y-86186519D01*
X129878202Y-86176798D01*
X129868481Y-86166073D01*
X129859858Y-86154447D01*
X129852417Y-86142031D01*
X129846228Y-86128946D01*
X129841351Y-86115317D01*
X129837834Y-86101276D01*
X129835710Y-86086958D01*
X129835000Y-86072500D01*
X129835000Y-85727500D01*
X129835710Y-85713042D01*
X129837834Y-85698724D01*
X129841351Y-85684683D01*
X129846228Y-85671054D01*
X129852417Y-85657969D01*
X129859858Y-85645553D01*
X129868481Y-85633927D01*
X129878202Y-85623202D01*
X129888927Y-85613481D01*
X129900553Y-85604858D01*
X129912969Y-85597417D01*
X129926054Y-85591228D01*
X129939683Y-85586351D01*
X129953724Y-85582834D01*
X129968042Y-85580710D01*
X129982500Y-85580000D01*
X130277500Y-85580000D01*
X130291958Y-85580710D01*
X130291958Y-85580710D01*
G37*
D11*
X130130000Y-85900000D03*
D10*
G36*
X132231958Y-84380710D02*
G01*
X132246276Y-84382834D01*
X132260317Y-84386351D01*
X132273946Y-84391228D01*
X132287031Y-84397417D01*
X132299447Y-84404858D01*
X132311073Y-84413481D01*
X132321798Y-84423202D01*
X132331519Y-84433927D01*
X132340142Y-84445553D01*
X132347583Y-84457969D01*
X132353772Y-84471054D01*
X132358649Y-84484683D01*
X132362166Y-84498724D01*
X132364290Y-84513042D01*
X132365000Y-84527500D01*
X132365000Y-84872500D01*
X132364290Y-84886958D01*
X132362166Y-84901276D01*
X132358649Y-84915317D01*
X132353772Y-84928946D01*
X132347583Y-84942031D01*
X132340142Y-84954447D01*
X132331519Y-84966073D01*
X132321798Y-84976798D01*
X132311073Y-84986519D01*
X132299447Y-84995142D01*
X132287031Y-85002583D01*
X132273946Y-85008772D01*
X132260317Y-85013649D01*
X132246276Y-85017166D01*
X132231958Y-85019290D01*
X132217500Y-85020000D01*
X131922500Y-85020000D01*
X131908042Y-85019290D01*
X131893724Y-85017166D01*
X131879683Y-85013649D01*
X131866054Y-85008772D01*
X131852969Y-85002583D01*
X131840553Y-84995142D01*
X131828927Y-84986519D01*
X131818202Y-84976798D01*
X131808481Y-84966073D01*
X131799858Y-84954447D01*
X131792417Y-84942031D01*
X131786228Y-84928946D01*
X131781351Y-84915317D01*
X131777834Y-84901276D01*
X131775710Y-84886958D01*
X131775000Y-84872500D01*
X131775000Y-84527500D01*
X131775710Y-84513042D01*
X131777834Y-84498724D01*
X131781351Y-84484683D01*
X131786228Y-84471054D01*
X131792417Y-84457969D01*
X131799858Y-84445553D01*
X131808481Y-84433927D01*
X131818202Y-84423202D01*
X131828927Y-84413481D01*
X131840553Y-84404858D01*
X131852969Y-84397417D01*
X131866054Y-84391228D01*
X131879683Y-84386351D01*
X131893724Y-84382834D01*
X131908042Y-84380710D01*
X131922500Y-84380000D01*
X132217500Y-84380000D01*
X132231958Y-84380710D01*
X132231958Y-84380710D01*
G37*
D11*
X132070000Y-84700000D03*
D10*
G36*
X131261958Y-84380710D02*
G01*
X131276276Y-84382834D01*
X131290317Y-84386351D01*
X131303946Y-84391228D01*
X131317031Y-84397417D01*
X131329447Y-84404858D01*
X131341073Y-84413481D01*
X131351798Y-84423202D01*
X131361519Y-84433927D01*
X131370142Y-84445553D01*
X131377583Y-84457969D01*
X131383772Y-84471054D01*
X131388649Y-84484683D01*
X131392166Y-84498724D01*
X131394290Y-84513042D01*
X131395000Y-84527500D01*
X131395000Y-84872500D01*
X131394290Y-84886958D01*
X131392166Y-84901276D01*
X131388649Y-84915317D01*
X131383772Y-84928946D01*
X131377583Y-84942031D01*
X131370142Y-84954447D01*
X131361519Y-84966073D01*
X131351798Y-84976798D01*
X131341073Y-84986519D01*
X131329447Y-84995142D01*
X131317031Y-85002583D01*
X131303946Y-85008772D01*
X131290317Y-85013649D01*
X131276276Y-85017166D01*
X131261958Y-85019290D01*
X131247500Y-85020000D01*
X130952500Y-85020000D01*
X130938042Y-85019290D01*
X130923724Y-85017166D01*
X130909683Y-85013649D01*
X130896054Y-85008772D01*
X130882969Y-85002583D01*
X130870553Y-84995142D01*
X130858927Y-84986519D01*
X130848202Y-84976798D01*
X130838481Y-84966073D01*
X130829858Y-84954447D01*
X130822417Y-84942031D01*
X130816228Y-84928946D01*
X130811351Y-84915317D01*
X130807834Y-84901276D01*
X130805710Y-84886958D01*
X130805000Y-84872500D01*
X130805000Y-84527500D01*
X130805710Y-84513042D01*
X130807834Y-84498724D01*
X130811351Y-84484683D01*
X130816228Y-84471054D01*
X130822417Y-84457969D01*
X130829858Y-84445553D01*
X130838481Y-84433927D01*
X130848202Y-84423202D01*
X130858927Y-84413481D01*
X130870553Y-84404858D01*
X130882969Y-84397417D01*
X130896054Y-84391228D01*
X130909683Y-84386351D01*
X130923724Y-84382834D01*
X130938042Y-84380710D01*
X130952500Y-84380000D01*
X131247500Y-84380000D01*
X131261958Y-84380710D01*
X131261958Y-84380710D01*
G37*
D11*
X131100000Y-84700000D03*
D10*
G36*
X130291958Y-84380710D02*
G01*
X130306276Y-84382834D01*
X130320317Y-84386351D01*
X130333946Y-84391228D01*
X130347031Y-84397417D01*
X130359447Y-84404858D01*
X130371073Y-84413481D01*
X130381798Y-84423202D01*
X130391519Y-84433927D01*
X130400142Y-84445553D01*
X130407583Y-84457969D01*
X130413772Y-84471054D01*
X130418649Y-84484683D01*
X130422166Y-84498724D01*
X130424290Y-84513042D01*
X130425000Y-84527500D01*
X130425000Y-84872500D01*
X130424290Y-84886958D01*
X130422166Y-84901276D01*
X130418649Y-84915317D01*
X130413772Y-84928946D01*
X130407583Y-84942031D01*
X130400142Y-84954447D01*
X130391519Y-84966073D01*
X130381798Y-84976798D01*
X130371073Y-84986519D01*
X130359447Y-84995142D01*
X130347031Y-85002583D01*
X130333946Y-85008772D01*
X130320317Y-85013649D01*
X130306276Y-85017166D01*
X130291958Y-85019290D01*
X130277500Y-85020000D01*
X129982500Y-85020000D01*
X129968042Y-85019290D01*
X129953724Y-85017166D01*
X129939683Y-85013649D01*
X129926054Y-85008772D01*
X129912969Y-85002583D01*
X129900553Y-84995142D01*
X129888927Y-84986519D01*
X129878202Y-84976798D01*
X129868481Y-84966073D01*
X129859858Y-84954447D01*
X129852417Y-84942031D01*
X129846228Y-84928946D01*
X129841351Y-84915317D01*
X129837834Y-84901276D01*
X129835710Y-84886958D01*
X129835000Y-84872500D01*
X129835000Y-84527500D01*
X129835710Y-84513042D01*
X129837834Y-84498724D01*
X129841351Y-84484683D01*
X129846228Y-84471054D01*
X129852417Y-84457969D01*
X129859858Y-84445553D01*
X129868481Y-84433927D01*
X129878202Y-84423202D01*
X129888927Y-84413481D01*
X129900553Y-84404858D01*
X129912969Y-84397417D01*
X129926054Y-84391228D01*
X129939683Y-84386351D01*
X129953724Y-84382834D01*
X129968042Y-84380710D01*
X129982500Y-84380000D01*
X130277500Y-84380000D01*
X130291958Y-84380710D01*
X130291958Y-84380710D01*
G37*
D11*
X130130000Y-84700000D03*
D10*
G36*
X150536958Y-79020710D02*
G01*
X150551276Y-79022834D01*
X150565317Y-79026351D01*
X150578946Y-79031228D01*
X150592031Y-79037417D01*
X150604447Y-79044858D01*
X150616073Y-79053481D01*
X150626798Y-79063202D01*
X150636519Y-79073927D01*
X150645142Y-79085553D01*
X150652583Y-79097969D01*
X150658772Y-79111054D01*
X150663649Y-79124683D01*
X150667166Y-79138724D01*
X150669290Y-79153042D01*
X150670000Y-79167500D01*
X150670000Y-79462500D01*
X150669290Y-79476958D01*
X150667166Y-79491276D01*
X150663649Y-79505317D01*
X150658772Y-79518946D01*
X150652583Y-79532031D01*
X150645142Y-79544447D01*
X150636519Y-79556073D01*
X150626798Y-79566798D01*
X150616073Y-79576519D01*
X150604447Y-79585142D01*
X150592031Y-79592583D01*
X150578946Y-79598772D01*
X150565317Y-79603649D01*
X150551276Y-79607166D01*
X150536958Y-79609290D01*
X150522500Y-79610000D01*
X150177500Y-79610000D01*
X150163042Y-79609290D01*
X150148724Y-79607166D01*
X150134683Y-79603649D01*
X150121054Y-79598772D01*
X150107969Y-79592583D01*
X150095553Y-79585142D01*
X150083927Y-79576519D01*
X150073202Y-79566798D01*
X150063481Y-79556073D01*
X150054858Y-79544447D01*
X150047417Y-79532031D01*
X150041228Y-79518946D01*
X150036351Y-79505317D01*
X150032834Y-79491276D01*
X150030710Y-79476958D01*
X150030000Y-79462500D01*
X150030000Y-79167500D01*
X150030710Y-79153042D01*
X150032834Y-79138724D01*
X150036351Y-79124683D01*
X150041228Y-79111054D01*
X150047417Y-79097969D01*
X150054858Y-79085553D01*
X150063481Y-79073927D01*
X150073202Y-79063202D01*
X150083927Y-79053481D01*
X150095553Y-79044858D01*
X150107969Y-79037417D01*
X150121054Y-79031228D01*
X150134683Y-79026351D01*
X150148724Y-79022834D01*
X150163042Y-79020710D01*
X150177500Y-79020000D01*
X150522500Y-79020000D01*
X150536958Y-79020710D01*
X150536958Y-79020710D01*
G37*
D11*
X150350000Y-79315000D03*
D10*
G36*
X150536958Y-79990710D02*
G01*
X150551276Y-79992834D01*
X150565317Y-79996351D01*
X150578946Y-80001228D01*
X150592031Y-80007417D01*
X150604447Y-80014858D01*
X150616073Y-80023481D01*
X150626798Y-80033202D01*
X150636519Y-80043927D01*
X150645142Y-80055553D01*
X150652583Y-80067969D01*
X150658772Y-80081054D01*
X150663649Y-80094683D01*
X150667166Y-80108724D01*
X150669290Y-80123042D01*
X150670000Y-80137500D01*
X150670000Y-80432500D01*
X150669290Y-80446958D01*
X150667166Y-80461276D01*
X150663649Y-80475317D01*
X150658772Y-80488946D01*
X150652583Y-80502031D01*
X150645142Y-80514447D01*
X150636519Y-80526073D01*
X150626798Y-80536798D01*
X150616073Y-80546519D01*
X150604447Y-80555142D01*
X150592031Y-80562583D01*
X150578946Y-80568772D01*
X150565317Y-80573649D01*
X150551276Y-80577166D01*
X150536958Y-80579290D01*
X150522500Y-80580000D01*
X150177500Y-80580000D01*
X150163042Y-80579290D01*
X150148724Y-80577166D01*
X150134683Y-80573649D01*
X150121054Y-80568772D01*
X150107969Y-80562583D01*
X150095553Y-80555142D01*
X150083927Y-80546519D01*
X150073202Y-80536798D01*
X150063481Y-80526073D01*
X150054858Y-80514447D01*
X150047417Y-80502031D01*
X150041228Y-80488946D01*
X150036351Y-80475317D01*
X150032834Y-80461276D01*
X150030710Y-80446958D01*
X150030000Y-80432500D01*
X150030000Y-80137500D01*
X150030710Y-80123042D01*
X150032834Y-80108724D01*
X150036351Y-80094683D01*
X150041228Y-80081054D01*
X150047417Y-80067969D01*
X150054858Y-80055553D01*
X150063481Y-80043927D01*
X150073202Y-80033202D01*
X150083927Y-80023481D01*
X150095553Y-80014858D01*
X150107969Y-80007417D01*
X150121054Y-80001228D01*
X150134683Y-79996351D01*
X150148724Y-79992834D01*
X150163042Y-79990710D01*
X150177500Y-79990000D01*
X150522500Y-79990000D01*
X150536958Y-79990710D01*
X150536958Y-79990710D01*
G37*
D11*
X150350000Y-80285000D03*
D10*
G36*
X145336958Y-73490710D02*
G01*
X145351276Y-73492834D01*
X145365317Y-73496351D01*
X145378946Y-73501228D01*
X145392031Y-73507417D01*
X145404447Y-73514858D01*
X145416073Y-73523481D01*
X145426798Y-73533202D01*
X145436519Y-73543927D01*
X145445142Y-73555553D01*
X145452583Y-73567969D01*
X145458772Y-73581054D01*
X145463649Y-73594683D01*
X145467166Y-73608724D01*
X145469290Y-73623042D01*
X145470000Y-73637500D01*
X145470000Y-73932500D01*
X145469290Y-73946958D01*
X145467166Y-73961276D01*
X145463649Y-73975317D01*
X145458772Y-73988946D01*
X145452583Y-74002031D01*
X145445142Y-74014447D01*
X145436519Y-74026073D01*
X145426798Y-74036798D01*
X145416073Y-74046519D01*
X145404447Y-74055142D01*
X145392031Y-74062583D01*
X145378946Y-74068772D01*
X145365317Y-74073649D01*
X145351276Y-74077166D01*
X145336958Y-74079290D01*
X145322500Y-74080000D01*
X144977500Y-74080000D01*
X144963042Y-74079290D01*
X144948724Y-74077166D01*
X144934683Y-74073649D01*
X144921054Y-74068772D01*
X144907969Y-74062583D01*
X144895553Y-74055142D01*
X144883927Y-74046519D01*
X144873202Y-74036798D01*
X144863481Y-74026073D01*
X144854858Y-74014447D01*
X144847417Y-74002031D01*
X144841228Y-73988946D01*
X144836351Y-73975317D01*
X144832834Y-73961276D01*
X144830710Y-73946958D01*
X144830000Y-73932500D01*
X144830000Y-73637500D01*
X144830710Y-73623042D01*
X144832834Y-73608724D01*
X144836351Y-73594683D01*
X144841228Y-73581054D01*
X144847417Y-73567969D01*
X144854858Y-73555553D01*
X144863481Y-73543927D01*
X144873202Y-73533202D01*
X144883927Y-73523481D01*
X144895553Y-73514858D01*
X144907969Y-73507417D01*
X144921054Y-73501228D01*
X144934683Y-73496351D01*
X144948724Y-73492834D01*
X144963042Y-73490710D01*
X144977500Y-73490000D01*
X145322500Y-73490000D01*
X145336958Y-73490710D01*
X145336958Y-73490710D01*
G37*
D11*
X145150000Y-73785000D03*
D10*
G36*
X145336958Y-72520710D02*
G01*
X145351276Y-72522834D01*
X145365317Y-72526351D01*
X145378946Y-72531228D01*
X145392031Y-72537417D01*
X145404447Y-72544858D01*
X145416073Y-72553481D01*
X145426798Y-72563202D01*
X145436519Y-72573927D01*
X145445142Y-72585553D01*
X145452583Y-72597969D01*
X145458772Y-72611054D01*
X145463649Y-72624683D01*
X145467166Y-72638724D01*
X145469290Y-72653042D01*
X145470000Y-72667500D01*
X145470000Y-72962500D01*
X145469290Y-72976958D01*
X145467166Y-72991276D01*
X145463649Y-73005317D01*
X145458772Y-73018946D01*
X145452583Y-73032031D01*
X145445142Y-73044447D01*
X145436519Y-73056073D01*
X145426798Y-73066798D01*
X145416073Y-73076519D01*
X145404447Y-73085142D01*
X145392031Y-73092583D01*
X145378946Y-73098772D01*
X145365317Y-73103649D01*
X145351276Y-73107166D01*
X145336958Y-73109290D01*
X145322500Y-73110000D01*
X144977500Y-73110000D01*
X144963042Y-73109290D01*
X144948724Y-73107166D01*
X144934683Y-73103649D01*
X144921054Y-73098772D01*
X144907969Y-73092583D01*
X144895553Y-73085142D01*
X144883927Y-73076519D01*
X144873202Y-73066798D01*
X144863481Y-73056073D01*
X144854858Y-73044447D01*
X144847417Y-73032031D01*
X144841228Y-73018946D01*
X144836351Y-73005317D01*
X144832834Y-72991276D01*
X144830710Y-72976958D01*
X144830000Y-72962500D01*
X144830000Y-72667500D01*
X144830710Y-72653042D01*
X144832834Y-72638724D01*
X144836351Y-72624683D01*
X144841228Y-72611054D01*
X144847417Y-72597969D01*
X144854858Y-72585553D01*
X144863481Y-72573927D01*
X144873202Y-72563202D01*
X144883927Y-72553481D01*
X144895553Y-72544858D01*
X144907969Y-72537417D01*
X144921054Y-72531228D01*
X144934683Y-72526351D01*
X144948724Y-72522834D01*
X144963042Y-72520710D01*
X144977500Y-72520000D01*
X145322500Y-72520000D01*
X145336958Y-72520710D01*
X145336958Y-72520710D01*
G37*
D11*
X145150000Y-72815000D03*
D10*
G36*
X150536958Y-78090710D02*
G01*
X150551276Y-78092834D01*
X150565317Y-78096351D01*
X150578946Y-78101228D01*
X150592031Y-78107417D01*
X150604447Y-78114858D01*
X150616073Y-78123481D01*
X150626798Y-78133202D01*
X150636519Y-78143927D01*
X150645142Y-78155553D01*
X150652583Y-78167969D01*
X150658772Y-78181054D01*
X150663649Y-78194683D01*
X150667166Y-78208724D01*
X150669290Y-78223042D01*
X150670000Y-78237500D01*
X150670000Y-78532500D01*
X150669290Y-78546958D01*
X150667166Y-78561276D01*
X150663649Y-78575317D01*
X150658772Y-78588946D01*
X150652583Y-78602031D01*
X150645142Y-78614447D01*
X150636519Y-78626073D01*
X150626798Y-78636798D01*
X150616073Y-78646519D01*
X150604447Y-78655142D01*
X150592031Y-78662583D01*
X150578946Y-78668772D01*
X150565317Y-78673649D01*
X150551276Y-78677166D01*
X150536958Y-78679290D01*
X150522500Y-78680000D01*
X150177500Y-78680000D01*
X150163042Y-78679290D01*
X150148724Y-78677166D01*
X150134683Y-78673649D01*
X150121054Y-78668772D01*
X150107969Y-78662583D01*
X150095553Y-78655142D01*
X150083927Y-78646519D01*
X150073202Y-78636798D01*
X150063481Y-78626073D01*
X150054858Y-78614447D01*
X150047417Y-78602031D01*
X150041228Y-78588946D01*
X150036351Y-78575317D01*
X150032834Y-78561276D01*
X150030710Y-78546958D01*
X150030000Y-78532500D01*
X150030000Y-78237500D01*
X150030710Y-78223042D01*
X150032834Y-78208724D01*
X150036351Y-78194683D01*
X150041228Y-78181054D01*
X150047417Y-78167969D01*
X150054858Y-78155553D01*
X150063481Y-78143927D01*
X150073202Y-78133202D01*
X150083927Y-78123481D01*
X150095553Y-78114858D01*
X150107969Y-78107417D01*
X150121054Y-78101228D01*
X150134683Y-78096351D01*
X150148724Y-78092834D01*
X150163042Y-78090710D01*
X150177500Y-78090000D01*
X150522500Y-78090000D01*
X150536958Y-78090710D01*
X150536958Y-78090710D01*
G37*
D11*
X150350000Y-78385000D03*
D10*
G36*
X150536958Y-77120710D02*
G01*
X150551276Y-77122834D01*
X150565317Y-77126351D01*
X150578946Y-77131228D01*
X150592031Y-77137417D01*
X150604447Y-77144858D01*
X150616073Y-77153481D01*
X150626798Y-77163202D01*
X150636519Y-77173927D01*
X150645142Y-77185553D01*
X150652583Y-77197969D01*
X150658772Y-77211054D01*
X150663649Y-77224683D01*
X150667166Y-77238724D01*
X150669290Y-77253042D01*
X150670000Y-77267500D01*
X150670000Y-77562500D01*
X150669290Y-77576958D01*
X150667166Y-77591276D01*
X150663649Y-77605317D01*
X150658772Y-77618946D01*
X150652583Y-77632031D01*
X150645142Y-77644447D01*
X150636519Y-77656073D01*
X150626798Y-77666798D01*
X150616073Y-77676519D01*
X150604447Y-77685142D01*
X150592031Y-77692583D01*
X150578946Y-77698772D01*
X150565317Y-77703649D01*
X150551276Y-77707166D01*
X150536958Y-77709290D01*
X150522500Y-77710000D01*
X150177500Y-77710000D01*
X150163042Y-77709290D01*
X150148724Y-77707166D01*
X150134683Y-77703649D01*
X150121054Y-77698772D01*
X150107969Y-77692583D01*
X150095553Y-77685142D01*
X150083927Y-77676519D01*
X150073202Y-77666798D01*
X150063481Y-77656073D01*
X150054858Y-77644447D01*
X150047417Y-77632031D01*
X150041228Y-77618946D01*
X150036351Y-77605317D01*
X150032834Y-77591276D01*
X150030710Y-77576958D01*
X150030000Y-77562500D01*
X150030000Y-77267500D01*
X150030710Y-77253042D01*
X150032834Y-77238724D01*
X150036351Y-77224683D01*
X150041228Y-77211054D01*
X150047417Y-77197969D01*
X150054858Y-77185553D01*
X150063481Y-77173927D01*
X150073202Y-77163202D01*
X150083927Y-77153481D01*
X150095553Y-77144858D01*
X150107969Y-77137417D01*
X150121054Y-77131228D01*
X150134683Y-77126351D01*
X150148724Y-77122834D01*
X150163042Y-77120710D01*
X150177500Y-77120000D01*
X150522500Y-77120000D01*
X150536958Y-77120710D01*
X150536958Y-77120710D01*
G37*
D11*
X150350000Y-77415000D03*
D10*
G36*
X146986958Y-74320710D02*
G01*
X147001276Y-74322834D01*
X147015317Y-74326351D01*
X147028946Y-74331228D01*
X147042031Y-74337417D01*
X147054447Y-74344858D01*
X147066073Y-74353481D01*
X147076798Y-74363202D01*
X147086519Y-74373927D01*
X147095142Y-74385553D01*
X147102583Y-74397969D01*
X147108772Y-74411054D01*
X147113649Y-74424683D01*
X147117166Y-74438724D01*
X147119290Y-74453042D01*
X147120000Y-74467500D01*
X147120000Y-74762500D01*
X147119290Y-74776958D01*
X147117166Y-74791276D01*
X147113649Y-74805317D01*
X147108772Y-74818946D01*
X147102583Y-74832031D01*
X147095142Y-74844447D01*
X147086519Y-74856073D01*
X147076798Y-74866798D01*
X147066073Y-74876519D01*
X147054447Y-74885142D01*
X147042031Y-74892583D01*
X147028946Y-74898772D01*
X147015317Y-74903649D01*
X147001276Y-74907166D01*
X146986958Y-74909290D01*
X146972500Y-74910000D01*
X146627500Y-74910000D01*
X146613042Y-74909290D01*
X146598724Y-74907166D01*
X146584683Y-74903649D01*
X146571054Y-74898772D01*
X146557969Y-74892583D01*
X146545553Y-74885142D01*
X146533927Y-74876519D01*
X146523202Y-74866798D01*
X146513481Y-74856073D01*
X146504858Y-74844447D01*
X146497417Y-74832031D01*
X146491228Y-74818946D01*
X146486351Y-74805317D01*
X146482834Y-74791276D01*
X146480710Y-74776958D01*
X146480000Y-74762500D01*
X146480000Y-74467500D01*
X146480710Y-74453042D01*
X146482834Y-74438724D01*
X146486351Y-74424683D01*
X146491228Y-74411054D01*
X146497417Y-74397969D01*
X146504858Y-74385553D01*
X146513481Y-74373927D01*
X146523202Y-74363202D01*
X146533927Y-74353481D01*
X146545553Y-74344858D01*
X146557969Y-74337417D01*
X146571054Y-74331228D01*
X146584683Y-74326351D01*
X146598724Y-74322834D01*
X146613042Y-74320710D01*
X146627500Y-74320000D01*
X146972500Y-74320000D01*
X146986958Y-74320710D01*
X146986958Y-74320710D01*
G37*
D11*
X146800000Y-74615000D03*
D10*
G36*
X146986958Y-75290710D02*
G01*
X147001276Y-75292834D01*
X147015317Y-75296351D01*
X147028946Y-75301228D01*
X147042031Y-75307417D01*
X147054447Y-75314858D01*
X147066073Y-75323481D01*
X147076798Y-75333202D01*
X147086519Y-75343927D01*
X147095142Y-75355553D01*
X147102583Y-75367969D01*
X147108772Y-75381054D01*
X147113649Y-75394683D01*
X147117166Y-75408724D01*
X147119290Y-75423042D01*
X147120000Y-75437500D01*
X147120000Y-75732500D01*
X147119290Y-75746958D01*
X147117166Y-75761276D01*
X147113649Y-75775317D01*
X147108772Y-75788946D01*
X147102583Y-75802031D01*
X147095142Y-75814447D01*
X147086519Y-75826073D01*
X147076798Y-75836798D01*
X147066073Y-75846519D01*
X147054447Y-75855142D01*
X147042031Y-75862583D01*
X147028946Y-75868772D01*
X147015317Y-75873649D01*
X147001276Y-75877166D01*
X146986958Y-75879290D01*
X146972500Y-75880000D01*
X146627500Y-75880000D01*
X146613042Y-75879290D01*
X146598724Y-75877166D01*
X146584683Y-75873649D01*
X146571054Y-75868772D01*
X146557969Y-75862583D01*
X146545553Y-75855142D01*
X146533927Y-75846519D01*
X146523202Y-75836798D01*
X146513481Y-75826073D01*
X146504858Y-75814447D01*
X146497417Y-75802031D01*
X146491228Y-75788946D01*
X146486351Y-75775317D01*
X146482834Y-75761276D01*
X146480710Y-75746958D01*
X146480000Y-75732500D01*
X146480000Y-75437500D01*
X146480710Y-75423042D01*
X146482834Y-75408724D01*
X146486351Y-75394683D01*
X146491228Y-75381054D01*
X146497417Y-75367969D01*
X146504858Y-75355553D01*
X146513481Y-75343927D01*
X146523202Y-75333202D01*
X146533927Y-75323481D01*
X146545553Y-75314858D01*
X146557969Y-75307417D01*
X146571054Y-75301228D01*
X146584683Y-75296351D01*
X146598724Y-75292834D01*
X146613042Y-75290710D01*
X146627500Y-75290000D01*
X146972500Y-75290000D01*
X146986958Y-75290710D01*
X146986958Y-75290710D01*
G37*
D11*
X146800000Y-75585000D03*
D10*
G36*
X147786958Y-79970710D02*
G01*
X147801276Y-79972834D01*
X147815317Y-79976351D01*
X147828946Y-79981228D01*
X147842031Y-79987417D01*
X147854447Y-79994858D01*
X147866073Y-80003481D01*
X147876798Y-80013202D01*
X147886519Y-80023927D01*
X147895142Y-80035553D01*
X147902583Y-80047969D01*
X147908772Y-80061054D01*
X147913649Y-80074683D01*
X147917166Y-80088724D01*
X147919290Y-80103042D01*
X147920000Y-80117500D01*
X147920000Y-80412500D01*
X147919290Y-80426958D01*
X147917166Y-80441276D01*
X147913649Y-80455317D01*
X147908772Y-80468946D01*
X147902583Y-80482031D01*
X147895142Y-80494447D01*
X147886519Y-80506073D01*
X147876798Y-80516798D01*
X147866073Y-80526519D01*
X147854447Y-80535142D01*
X147842031Y-80542583D01*
X147828946Y-80548772D01*
X147815317Y-80553649D01*
X147801276Y-80557166D01*
X147786958Y-80559290D01*
X147772500Y-80560000D01*
X147427500Y-80560000D01*
X147413042Y-80559290D01*
X147398724Y-80557166D01*
X147384683Y-80553649D01*
X147371054Y-80548772D01*
X147357969Y-80542583D01*
X147345553Y-80535142D01*
X147333927Y-80526519D01*
X147323202Y-80516798D01*
X147313481Y-80506073D01*
X147304858Y-80494447D01*
X147297417Y-80482031D01*
X147291228Y-80468946D01*
X147286351Y-80455317D01*
X147282834Y-80441276D01*
X147280710Y-80426958D01*
X147280000Y-80412500D01*
X147280000Y-80117500D01*
X147280710Y-80103042D01*
X147282834Y-80088724D01*
X147286351Y-80074683D01*
X147291228Y-80061054D01*
X147297417Y-80047969D01*
X147304858Y-80035553D01*
X147313481Y-80023927D01*
X147323202Y-80013202D01*
X147333927Y-80003481D01*
X147345553Y-79994858D01*
X147357969Y-79987417D01*
X147371054Y-79981228D01*
X147384683Y-79976351D01*
X147398724Y-79972834D01*
X147413042Y-79970710D01*
X147427500Y-79970000D01*
X147772500Y-79970000D01*
X147786958Y-79970710D01*
X147786958Y-79970710D01*
G37*
D11*
X147600000Y-80265000D03*
D10*
G36*
X147786958Y-80940710D02*
G01*
X147801276Y-80942834D01*
X147815317Y-80946351D01*
X147828946Y-80951228D01*
X147842031Y-80957417D01*
X147854447Y-80964858D01*
X147866073Y-80973481D01*
X147876798Y-80983202D01*
X147886519Y-80993927D01*
X147895142Y-81005553D01*
X147902583Y-81017969D01*
X147908772Y-81031054D01*
X147913649Y-81044683D01*
X147917166Y-81058724D01*
X147919290Y-81073042D01*
X147920000Y-81087500D01*
X147920000Y-81382500D01*
X147919290Y-81396958D01*
X147917166Y-81411276D01*
X147913649Y-81425317D01*
X147908772Y-81438946D01*
X147902583Y-81452031D01*
X147895142Y-81464447D01*
X147886519Y-81476073D01*
X147876798Y-81486798D01*
X147866073Y-81496519D01*
X147854447Y-81505142D01*
X147842031Y-81512583D01*
X147828946Y-81518772D01*
X147815317Y-81523649D01*
X147801276Y-81527166D01*
X147786958Y-81529290D01*
X147772500Y-81530000D01*
X147427500Y-81530000D01*
X147413042Y-81529290D01*
X147398724Y-81527166D01*
X147384683Y-81523649D01*
X147371054Y-81518772D01*
X147357969Y-81512583D01*
X147345553Y-81505142D01*
X147333927Y-81496519D01*
X147323202Y-81486798D01*
X147313481Y-81476073D01*
X147304858Y-81464447D01*
X147297417Y-81452031D01*
X147291228Y-81438946D01*
X147286351Y-81425317D01*
X147282834Y-81411276D01*
X147280710Y-81396958D01*
X147280000Y-81382500D01*
X147280000Y-81087500D01*
X147280710Y-81073042D01*
X147282834Y-81058724D01*
X147286351Y-81044683D01*
X147291228Y-81031054D01*
X147297417Y-81017969D01*
X147304858Y-81005553D01*
X147313481Y-80993927D01*
X147323202Y-80983202D01*
X147333927Y-80973481D01*
X147345553Y-80964858D01*
X147357969Y-80957417D01*
X147371054Y-80951228D01*
X147384683Y-80946351D01*
X147398724Y-80942834D01*
X147413042Y-80940710D01*
X147427500Y-80940000D01*
X147772500Y-80940000D01*
X147786958Y-80940710D01*
X147786958Y-80940710D01*
G37*
D11*
X147600000Y-81235000D03*
D10*
G36*
X147846958Y-73030710D02*
G01*
X147861276Y-73032834D01*
X147875317Y-73036351D01*
X147888946Y-73041228D01*
X147902031Y-73047417D01*
X147914447Y-73054858D01*
X147926073Y-73063481D01*
X147936798Y-73073202D01*
X147946519Y-73083927D01*
X147955142Y-73095553D01*
X147962583Y-73107969D01*
X147968772Y-73121054D01*
X147973649Y-73134683D01*
X147977166Y-73148724D01*
X147979290Y-73163042D01*
X147980000Y-73177500D01*
X147980000Y-73522500D01*
X147979290Y-73536958D01*
X147977166Y-73551276D01*
X147973649Y-73565317D01*
X147968772Y-73578946D01*
X147962583Y-73592031D01*
X147955142Y-73604447D01*
X147946519Y-73616073D01*
X147936798Y-73626798D01*
X147926073Y-73636519D01*
X147914447Y-73645142D01*
X147902031Y-73652583D01*
X147888946Y-73658772D01*
X147875317Y-73663649D01*
X147861276Y-73667166D01*
X147846958Y-73669290D01*
X147832500Y-73670000D01*
X147537500Y-73670000D01*
X147523042Y-73669290D01*
X147508724Y-73667166D01*
X147494683Y-73663649D01*
X147481054Y-73658772D01*
X147467969Y-73652583D01*
X147455553Y-73645142D01*
X147443927Y-73636519D01*
X147433202Y-73626798D01*
X147423481Y-73616073D01*
X147414858Y-73604447D01*
X147407417Y-73592031D01*
X147401228Y-73578946D01*
X147396351Y-73565317D01*
X147392834Y-73551276D01*
X147390710Y-73536958D01*
X147390000Y-73522500D01*
X147390000Y-73177500D01*
X147390710Y-73163042D01*
X147392834Y-73148724D01*
X147396351Y-73134683D01*
X147401228Y-73121054D01*
X147407417Y-73107969D01*
X147414858Y-73095553D01*
X147423481Y-73083927D01*
X147433202Y-73073202D01*
X147443927Y-73063481D01*
X147455553Y-73054858D01*
X147467969Y-73047417D01*
X147481054Y-73041228D01*
X147494683Y-73036351D01*
X147508724Y-73032834D01*
X147523042Y-73030710D01*
X147537500Y-73030000D01*
X147832500Y-73030000D01*
X147846958Y-73030710D01*
X147846958Y-73030710D01*
G37*
D11*
X147685000Y-73350000D03*
D10*
G36*
X146876958Y-73030710D02*
G01*
X146891276Y-73032834D01*
X146905317Y-73036351D01*
X146918946Y-73041228D01*
X146932031Y-73047417D01*
X146944447Y-73054858D01*
X146956073Y-73063481D01*
X146966798Y-73073202D01*
X146976519Y-73083927D01*
X146985142Y-73095553D01*
X146992583Y-73107969D01*
X146998772Y-73121054D01*
X147003649Y-73134683D01*
X147007166Y-73148724D01*
X147009290Y-73163042D01*
X147010000Y-73177500D01*
X147010000Y-73522500D01*
X147009290Y-73536958D01*
X147007166Y-73551276D01*
X147003649Y-73565317D01*
X146998772Y-73578946D01*
X146992583Y-73592031D01*
X146985142Y-73604447D01*
X146976519Y-73616073D01*
X146966798Y-73626798D01*
X146956073Y-73636519D01*
X146944447Y-73645142D01*
X146932031Y-73652583D01*
X146918946Y-73658772D01*
X146905317Y-73663649D01*
X146891276Y-73667166D01*
X146876958Y-73669290D01*
X146862500Y-73670000D01*
X146567500Y-73670000D01*
X146553042Y-73669290D01*
X146538724Y-73667166D01*
X146524683Y-73663649D01*
X146511054Y-73658772D01*
X146497969Y-73652583D01*
X146485553Y-73645142D01*
X146473927Y-73636519D01*
X146463202Y-73626798D01*
X146453481Y-73616073D01*
X146444858Y-73604447D01*
X146437417Y-73592031D01*
X146431228Y-73578946D01*
X146426351Y-73565317D01*
X146422834Y-73551276D01*
X146420710Y-73536958D01*
X146420000Y-73522500D01*
X146420000Y-73177500D01*
X146420710Y-73163042D01*
X146422834Y-73148724D01*
X146426351Y-73134683D01*
X146431228Y-73121054D01*
X146437417Y-73107969D01*
X146444858Y-73095553D01*
X146453481Y-73083927D01*
X146463202Y-73073202D01*
X146473927Y-73063481D01*
X146485553Y-73054858D01*
X146497969Y-73047417D01*
X146511054Y-73041228D01*
X146524683Y-73036351D01*
X146538724Y-73032834D01*
X146553042Y-73030710D01*
X146567500Y-73030000D01*
X146862500Y-73030000D01*
X146876958Y-73030710D01*
X146876958Y-73030710D01*
G37*
D11*
X146715000Y-73350000D03*
D10*
G36*
X149336958Y-79120710D02*
G01*
X149351276Y-79122834D01*
X149365317Y-79126351D01*
X149378946Y-79131228D01*
X149392031Y-79137417D01*
X149404447Y-79144858D01*
X149416073Y-79153481D01*
X149426798Y-79163202D01*
X149436519Y-79173927D01*
X149445142Y-79185553D01*
X149452583Y-79197969D01*
X149458772Y-79211054D01*
X149463649Y-79224683D01*
X149467166Y-79238724D01*
X149469290Y-79253042D01*
X149470000Y-79267500D01*
X149470000Y-79562500D01*
X149469290Y-79576958D01*
X149467166Y-79591276D01*
X149463649Y-79605317D01*
X149458772Y-79618946D01*
X149452583Y-79632031D01*
X149445142Y-79644447D01*
X149436519Y-79656073D01*
X149426798Y-79666798D01*
X149416073Y-79676519D01*
X149404447Y-79685142D01*
X149392031Y-79692583D01*
X149378946Y-79698772D01*
X149365317Y-79703649D01*
X149351276Y-79707166D01*
X149336958Y-79709290D01*
X149322500Y-79710000D01*
X148977500Y-79710000D01*
X148963042Y-79709290D01*
X148948724Y-79707166D01*
X148934683Y-79703649D01*
X148921054Y-79698772D01*
X148907969Y-79692583D01*
X148895553Y-79685142D01*
X148883927Y-79676519D01*
X148873202Y-79666798D01*
X148863481Y-79656073D01*
X148854858Y-79644447D01*
X148847417Y-79632031D01*
X148841228Y-79618946D01*
X148836351Y-79605317D01*
X148832834Y-79591276D01*
X148830710Y-79576958D01*
X148830000Y-79562500D01*
X148830000Y-79267500D01*
X148830710Y-79253042D01*
X148832834Y-79238724D01*
X148836351Y-79224683D01*
X148841228Y-79211054D01*
X148847417Y-79197969D01*
X148854858Y-79185553D01*
X148863481Y-79173927D01*
X148873202Y-79163202D01*
X148883927Y-79153481D01*
X148895553Y-79144858D01*
X148907969Y-79137417D01*
X148921054Y-79131228D01*
X148934683Y-79126351D01*
X148948724Y-79122834D01*
X148963042Y-79120710D01*
X148977500Y-79120000D01*
X149322500Y-79120000D01*
X149336958Y-79120710D01*
X149336958Y-79120710D01*
G37*
D11*
X149150000Y-79415000D03*
D10*
G36*
X149336958Y-80090710D02*
G01*
X149351276Y-80092834D01*
X149365317Y-80096351D01*
X149378946Y-80101228D01*
X149392031Y-80107417D01*
X149404447Y-80114858D01*
X149416073Y-80123481D01*
X149426798Y-80133202D01*
X149436519Y-80143927D01*
X149445142Y-80155553D01*
X149452583Y-80167969D01*
X149458772Y-80181054D01*
X149463649Y-80194683D01*
X149467166Y-80208724D01*
X149469290Y-80223042D01*
X149470000Y-80237500D01*
X149470000Y-80532500D01*
X149469290Y-80546958D01*
X149467166Y-80561276D01*
X149463649Y-80575317D01*
X149458772Y-80588946D01*
X149452583Y-80602031D01*
X149445142Y-80614447D01*
X149436519Y-80626073D01*
X149426798Y-80636798D01*
X149416073Y-80646519D01*
X149404447Y-80655142D01*
X149392031Y-80662583D01*
X149378946Y-80668772D01*
X149365317Y-80673649D01*
X149351276Y-80677166D01*
X149336958Y-80679290D01*
X149322500Y-80680000D01*
X148977500Y-80680000D01*
X148963042Y-80679290D01*
X148948724Y-80677166D01*
X148934683Y-80673649D01*
X148921054Y-80668772D01*
X148907969Y-80662583D01*
X148895553Y-80655142D01*
X148883927Y-80646519D01*
X148873202Y-80636798D01*
X148863481Y-80626073D01*
X148854858Y-80614447D01*
X148847417Y-80602031D01*
X148841228Y-80588946D01*
X148836351Y-80575317D01*
X148832834Y-80561276D01*
X148830710Y-80546958D01*
X148830000Y-80532500D01*
X148830000Y-80237500D01*
X148830710Y-80223042D01*
X148832834Y-80208724D01*
X148836351Y-80194683D01*
X148841228Y-80181054D01*
X148847417Y-80167969D01*
X148854858Y-80155553D01*
X148863481Y-80143927D01*
X148873202Y-80133202D01*
X148883927Y-80123481D01*
X148895553Y-80114858D01*
X148907969Y-80107417D01*
X148921054Y-80101228D01*
X148934683Y-80096351D01*
X148948724Y-80092834D01*
X148963042Y-80090710D01*
X148977500Y-80090000D01*
X149322500Y-80090000D01*
X149336958Y-80090710D01*
X149336958Y-80090710D01*
G37*
D11*
X149150000Y-80385000D03*
D10*
G36*
X144336958Y-74540710D02*
G01*
X144351276Y-74542834D01*
X144365317Y-74546351D01*
X144378946Y-74551228D01*
X144392031Y-74557417D01*
X144404447Y-74564858D01*
X144416073Y-74573481D01*
X144426798Y-74583202D01*
X144436519Y-74593927D01*
X144445142Y-74605553D01*
X144452583Y-74617969D01*
X144458772Y-74631054D01*
X144463649Y-74644683D01*
X144467166Y-74658724D01*
X144469290Y-74673042D01*
X144470000Y-74687500D01*
X144470000Y-74982500D01*
X144469290Y-74996958D01*
X144467166Y-75011276D01*
X144463649Y-75025317D01*
X144458772Y-75038946D01*
X144452583Y-75052031D01*
X144445142Y-75064447D01*
X144436519Y-75076073D01*
X144426798Y-75086798D01*
X144416073Y-75096519D01*
X144404447Y-75105142D01*
X144392031Y-75112583D01*
X144378946Y-75118772D01*
X144365317Y-75123649D01*
X144351276Y-75127166D01*
X144336958Y-75129290D01*
X144322500Y-75130000D01*
X143977500Y-75130000D01*
X143963042Y-75129290D01*
X143948724Y-75127166D01*
X143934683Y-75123649D01*
X143921054Y-75118772D01*
X143907969Y-75112583D01*
X143895553Y-75105142D01*
X143883927Y-75096519D01*
X143873202Y-75086798D01*
X143863481Y-75076073D01*
X143854858Y-75064447D01*
X143847417Y-75052031D01*
X143841228Y-75038946D01*
X143836351Y-75025317D01*
X143832834Y-75011276D01*
X143830710Y-74996958D01*
X143830000Y-74982500D01*
X143830000Y-74687500D01*
X143830710Y-74673042D01*
X143832834Y-74658724D01*
X143836351Y-74644683D01*
X143841228Y-74631054D01*
X143847417Y-74617969D01*
X143854858Y-74605553D01*
X143863481Y-74593927D01*
X143873202Y-74583202D01*
X143883927Y-74573481D01*
X143895553Y-74564858D01*
X143907969Y-74557417D01*
X143921054Y-74551228D01*
X143934683Y-74546351D01*
X143948724Y-74542834D01*
X143963042Y-74540710D01*
X143977500Y-74540000D01*
X144322500Y-74540000D01*
X144336958Y-74540710D01*
X144336958Y-74540710D01*
G37*
D11*
X144150000Y-74835000D03*
D10*
G36*
X144336958Y-73570710D02*
G01*
X144351276Y-73572834D01*
X144365317Y-73576351D01*
X144378946Y-73581228D01*
X144392031Y-73587417D01*
X144404447Y-73594858D01*
X144416073Y-73603481D01*
X144426798Y-73613202D01*
X144436519Y-73623927D01*
X144445142Y-73635553D01*
X144452583Y-73647969D01*
X144458772Y-73661054D01*
X144463649Y-73674683D01*
X144467166Y-73688724D01*
X144469290Y-73703042D01*
X144470000Y-73717500D01*
X144470000Y-74012500D01*
X144469290Y-74026958D01*
X144467166Y-74041276D01*
X144463649Y-74055317D01*
X144458772Y-74068946D01*
X144452583Y-74082031D01*
X144445142Y-74094447D01*
X144436519Y-74106073D01*
X144426798Y-74116798D01*
X144416073Y-74126519D01*
X144404447Y-74135142D01*
X144392031Y-74142583D01*
X144378946Y-74148772D01*
X144365317Y-74153649D01*
X144351276Y-74157166D01*
X144336958Y-74159290D01*
X144322500Y-74160000D01*
X143977500Y-74160000D01*
X143963042Y-74159290D01*
X143948724Y-74157166D01*
X143934683Y-74153649D01*
X143921054Y-74148772D01*
X143907969Y-74142583D01*
X143895553Y-74135142D01*
X143883927Y-74126519D01*
X143873202Y-74116798D01*
X143863481Y-74106073D01*
X143854858Y-74094447D01*
X143847417Y-74082031D01*
X143841228Y-74068946D01*
X143836351Y-74055317D01*
X143832834Y-74041276D01*
X143830710Y-74026958D01*
X143830000Y-74012500D01*
X143830000Y-73717500D01*
X143830710Y-73703042D01*
X143832834Y-73688724D01*
X143836351Y-73674683D01*
X143841228Y-73661054D01*
X143847417Y-73647969D01*
X143854858Y-73635553D01*
X143863481Y-73623927D01*
X143873202Y-73613202D01*
X143883927Y-73603481D01*
X143895553Y-73594858D01*
X143907969Y-73587417D01*
X143921054Y-73581228D01*
X143934683Y-73576351D01*
X143948724Y-73572834D01*
X143963042Y-73570710D01*
X143977500Y-73570000D01*
X144322500Y-73570000D01*
X144336958Y-73570710D01*
X144336958Y-73570710D01*
G37*
D11*
X144150000Y-73865000D03*
D10*
G36*
X137581958Y-74030710D02*
G01*
X137596276Y-74032834D01*
X137610317Y-74036351D01*
X137623946Y-74041228D01*
X137637031Y-74047417D01*
X137649447Y-74054858D01*
X137661073Y-74063481D01*
X137671798Y-74073202D01*
X137681519Y-74083927D01*
X137690142Y-74095553D01*
X137697583Y-74107969D01*
X137703772Y-74121054D01*
X137708649Y-74134683D01*
X137712166Y-74148724D01*
X137714290Y-74163042D01*
X137715000Y-74177500D01*
X137715000Y-74522500D01*
X137714290Y-74536958D01*
X137712166Y-74551276D01*
X137708649Y-74565317D01*
X137703772Y-74578946D01*
X137697583Y-74592031D01*
X137690142Y-74604447D01*
X137681519Y-74616073D01*
X137671798Y-74626798D01*
X137661073Y-74636519D01*
X137649447Y-74645142D01*
X137637031Y-74652583D01*
X137623946Y-74658772D01*
X137610317Y-74663649D01*
X137596276Y-74667166D01*
X137581958Y-74669290D01*
X137567500Y-74670000D01*
X137272500Y-74670000D01*
X137258042Y-74669290D01*
X137243724Y-74667166D01*
X137229683Y-74663649D01*
X137216054Y-74658772D01*
X137202969Y-74652583D01*
X137190553Y-74645142D01*
X137178927Y-74636519D01*
X137168202Y-74626798D01*
X137158481Y-74616073D01*
X137149858Y-74604447D01*
X137142417Y-74592031D01*
X137136228Y-74578946D01*
X137131351Y-74565317D01*
X137127834Y-74551276D01*
X137125710Y-74536958D01*
X137125000Y-74522500D01*
X137125000Y-74177500D01*
X137125710Y-74163042D01*
X137127834Y-74148724D01*
X137131351Y-74134683D01*
X137136228Y-74121054D01*
X137142417Y-74107969D01*
X137149858Y-74095553D01*
X137158481Y-74083927D01*
X137168202Y-74073202D01*
X137178927Y-74063481D01*
X137190553Y-74054858D01*
X137202969Y-74047417D01*
X137216054Y-74041228D01*
X137229683Y-74036351D01*
X137243724Y-74032834D01*
X137258042Y-74030710D01*
X137272500Y-74030000D01*
X137567500Y-74030000D01*
X137581958Y-74030710D01*
X137581958Y-74030710D01*
G37*
D11*
X137420000Y-74350000D03*
D10*
G36*
X136611958Y-74030710D02*
G01*
X136626276Y-74032834D01*
X136640317Y-74036351D01*
X136653946Y-74041228D01*
X136667031Y-74047417D01*
X136679447Y-74054858D01*
X136691073Y-74063481D01*
X136701798Y-74073202D01*
X136711519Y-74083927D01*
X136720142Y-74095553D01*
X136727583Y-74107969D01*
X136733772Y-74121054D01*
X136738649Y-74134683D01*
X136742166Y-74148724D01*
X136744290Y-74163042D01*
X136745000Y-74177500D01*
X136745000Y-74522500D01*
X136744290Y-74536958D01*
X136742166Y-74551276D01*
X136738649Y-74565317D01*
X136733772Y-74578946D01*
X136727583Y-74592031D01*
X136720142Y-74604447D01*
X136711519Y-74616073D01*
X136701798Y-74626798D01*
X136691073Y-74636519D01*
X136679447Y-74645142D01*
X136667031Y-74652583D01*
X136653946Y-74658772D01*
X136640317Y-74663649D01*
X136626276Y-74667166D01*
X136611958Y-74669290D01*
X136597500Y-74670000D01*
X136302500Y-74670000D01*
X136288042Y-74669290D01*
X136273724Y-74667166D01*
X136259683Y-74663649D01*
X136246054Y-74658772D01*
X136232969Y-74652583D01*
X136220553Y-74645142D01*
X136208927Y-74636519D01*
X136198202Y-74626798D01*
X136188481Y-74616073D01*
X136179858Y-74604447D01*
X136172417Y-74592031D01*
X136166228Y-74578946D01*
X136161351Y-74565317D01*
X136157834Y-74551276D01*
X136155710Y-74536958D01*
X136155000Y-74522500D01*
X136155000Y-74177500D01*
X136155710Y-74163042D01*
X136157834Y-74148724D01*
X136161351Y-74134683D01*
X136166228Y-74121054D01*
X136172417Y-74107969D01*
X136179858Y-74095553D01*
X136188481Y-74083927D01*
X136198202Y-74073202D01*
X136208927Y-74063481D01*
X136220553Y-74054858D01*
X136232969Y-74047417D01*
X136246054Y-74041228D01*
X136259683Y-74036351D01*
X136273724Y-74032834D01*
X136288042Y-74030710D01*
X136302500Y-74030000D01*
X136597500Y-74030000D01*
X136611958Y-74030710D01*
X136611958Y-74030710D01*
G37*
D11*
X136450000Y-74350000D03*
D10*
G36*
X135641958Y-74030710D02*
G01*
X135656276Y-74032834D01*
X135670317Y-74036351D01*
X135683946Y-74041228D01*
X135697031Y-74047417D01*
X135709447Y-74054858D01*
X135721073Y-74063481D01*
X135731798Y-74073202D01*
X135741519Y-74083927D01*
X135750142Y-74095553D01*
X135757583Y-74107969D01*
X135763772Y-74121054D01*
X135768649Y-74134683D01*
X135772166Y-74148724D01*
X135774290Y-74163042D01*
X135775000Y-74177500D01*
X135775000Y-74522500D01*
X135774290Y-74536958D01*
X135772166Y-74551276D01*
X135768649Y-74565317D01*
X135763772Y-74578946D01*
X135757583Y-74592031D01*
X135750142Y-74604447D01*
X135741519Y-74616073D01*
X135731798Y-74626798D01*
X135721073Y-74636519D01*
X135709447Y-74645142D01*
X135697031Y-74652583D01*
X135683946Y-74658772D01*
X135670317Y-74663649D01*
X135656276Y-74667166D01*
X135641958Y-74669290D01*
X135627500Y-74670000D01*
X135332500Y-74670000D01*
X135318042Y-74669290D01*
X135303724Y-74667166D01*
X135289683Y-74663649D01*
X135276054Y-74658772D01*
X135262969Y-74652583D01*
X135250553Y-74645142D01*
X135238927Y-74636519D01*
X135228202Y-74626798D01*
X135218481Y-74616073D01*
X135209858Y-74604447D01*
X135202417Y-74592031D01*
X135196228Y-74578946D01*
X135191351Y-74565317D01*
X135187834Y-74551276D01*
X135185710Y-74536958D01*
X135185000Y-74522500D01*
X135185000Y-74177500D01*
X135185710Y-74163042D01*
X135187834Y-74148724D01*
X135191351Y-74134683D01*
X135196228Y-74121054D01*
X135202417Y-74107969D01*
X135209858Y-74095553D01*
X135218481Y-74083927D01*
X135228202Y-74073202D01*
X135238927Y-74063481D01*
X135250553Y-74054858D01*
X135262969Y-74047417D01*
X135276054Y-74041228D01*
X135289683Y-74036351D01*
X135303724Y-74032834D01*
X135318042Y-74030710D01*
X135332500Y-74030000D01*
X135627500Y-74030000D01*
X135641958Y-74030710D01*
X135641958Y-74030710D01*
G37*
D11*
X135480000Y-74350000D03*
D10*
G36*
X135641958Y-69030710D02*
G01*
X135656276Y-69032834D01*
X135670317Y-69036351D01*
X135683946Y-69041228D01*
X135697031Y-69047417D01*
X135709447Y-69054858D01*
X135721073Y-69063481D01*
X135731798Y-69073202D01*
X135741519Y-69083927D01*
X135750142Y-69095553D01*
X135757583Y-69107969D01*
X135763772Y-69121054D01*
X135768649Y-69134683D01*
X135772166Y-69148724D01*
X135774290Y-69163042D01*
X135775000Y-69177500D01*
X135775000Y-69522500D01*
X135774290Y-69536958D01*
X135772166Y-69551276D01*
X135768649Y-69565317D01*
X135763772Y-69578946D01*
X135757583Y-69592031D01*
X135750142Y-69604447D01*
X135741519Y-69616073D01*
X135731798Y-69626798D01*
X135721073Y-69636519D01*
X135709447Y-69645142D01*
X135697031Y-69652583D01*
X135683946Y-69658772D01*
X135670317Y-69663649D01*
X135656276Y-69667166D01*
X135641958Y-69669290D01*
X135627500Y-69670000D01*
X135332500Y-69670000D01*
X135318042Y-69669290D01*
X135303724Y-69667166D01*
X135289683Y-69663649D01*
X135276054Y-69658772D01*
X135262969Y-69652583D01*
X135250553Y-69645142D01*
X135238927Y-69636519D01*
X135228202Y-69626798D01*
X135218481Y-69616073D01*
X135209858Y-69604447D01*
X135202417Y-69592031D01*
X135196228Y-69578946D01*
X135191351Y-69565317D01*
X135187834Y-69551276D01*
X135185710Y-69536958D01*
X135185000Y-69522500D01*
X135185000Y-69177500D01*
X135185710Y-69163042D01*
X135187834Y-69148724D01*
X135191351Y-69134683D01*
X135196228Y-69121054D01*
X135202417Y-69107969D01*
X135209858Y-69095553D01*
X135218481Y-69083927D01*
X135228202Y-69073202D01*
X135238927Y-69063481D01*
X135250553Y-69054858D01*
X135262969Y-69047417D01*
X135276054Y-69041228D01*
X135289683Y-69036351D01*
X135303724Y-69032834D01*
X135318042Y-69030710D01*
X135332500Y-69030000D01*
X135627500Y-69030000D01*
X135641958Y-69030710D01*
X135641958Y-69030710D01*
G37*
D11*
X135480000Y-69350000D03*
D10*
G36*
X136611958Y-69030710D02*
G01*
X136626276Y-69032834D01*
X136640317Y-69036351D01*
X136653946Y-69041228D01*
X136667031Y-69047417D01*
X136679447Y-69054858D01*
X136691073Y-69063481D01*
X136701798Y-69073202D01*
X136711519Y-69083927D01*
X136720142Y-69095553D01*
X136727583Y-69107969D01*
X136733772Y-69121054D01*
X136738649Y-69134683D01*
X136742166Y-69148724D01*
X136744290Y-69163042D01*
X136745000Y-69177500D01*
X136745000Y-69522500D01*
X136744290Y-69536958D01*
X136742166Y-69551276D01*
X136738649Y-69565317D01*
X136733772Y-69578946D01*
X136727583Y-69592031D01*
X136720142Y-69604447D01*
X136711519Y-69616073D01*
X136701798Y-69626798D01*
X136691073Y-69636519D01*
X136679447Y-69645142D01*
X136667031Y-69652583D01*
X136653946Y-69658772D01*
X136640317Y-69663649D01*
X136626276Y-69667166D01*
X136611958Y-69669290D01*
X136597500Y-69670000D01*
X136302500Y-69670000D01*
X136288042Y-69669290D01*
X136273724Y-69667166D01*
X136259683Y-69663649D01*
X136246054Y-69658772D01*
X136232969Y-69652583D01*
X136220553Y-69645142D01*
X136208927Y-69636519D01*
X136198202Y-69626798D01*
X136188481Y-69616073D01*
X136179858Y-69604447D01*
X136172417Y-69592031D01*
X136166228Y-69578946D01*
X136161351Y-69565317D01*
X136157834Y-69551276D01*
X136155710Y-69536958D01*
X136155000Y-69522500D01*
X136155000Y-69177500D01*
X136155710Y-69163042D01*
X136157834Y-69148724D01*
X136161351Y-69134683D01*
X136166228Y-69121054D01*
X136172417Y-69107969D01*
X136179858Y-69095553D01*
X136188481Y-69083927D01*
X136198202Y-69073202D01*
X136208927Y-69063481D01*
X136220553Y-69054858D01*
X136232969Y-69047417D01*
X136246054Y-69041228D01*
X136259683Y-69036351D01*
X136273724Y-69032834D01*
X136288042Y-69030710D01*
X136302500Y-69030000D01*
X136597500Y-69030000D01*
X136611958Y-69030710D01*
X136611958Y-69030710D01*
G37*
D11*
X136450000Y-69350000D03*
D10*
G36*
X137581958Y-69030710D02*
G01*
X137596276Y-69032834D01*
X137610317Y-69036351D01*
X137623946Y-69041228D01*
X137637031Y-69047417D01*
X137649447Y-69054858D01*
X137661073Y-69063481D01*
X137671798Y-69073202D01*
X137681519Y-69083927D01*
X137690142Y-69095553D01*
X137697583Y-69107969D01*
X137703772Y-69121054D01*
X137708649Y-69134683D01*
X137712166Y-69148724D01*
X137714290Y-69163042D01*
X137715000Y-69177500D01*
X137715000Y-69522500D01*
X137714290Y-69536958D01*
X137712166Y-69551276D01*
X137708649Y-69565317D01*
X137703772Y-69578946D01*
X137697583Y-69592031D01*
X137690142Y-69604447D01*
X137681519Y-69616073D01*
X137671798Y-69626798D01*
X137661073Y-69636519D01*
X137649447Y-69645142D01*
X137637031Y-69652583D01*
X137623946Y-69658772D01*
X137610317Y-69663649D01*
X137596276Y-69667166D01*
X137581958Y-69669290D01*
X137567500Y-69670000D01*
X137272500Y-69670000D01*
X137258042Y-69669290D01*
X137243724Y-69667166D01*
X137229683Y-69663649D01*
X137216054Y-69658772D01*
X137202969Y-69652583D01*
X137190553Y-69645142D01*
X137178927Y-69636519D01*
X137168202Y-69626798D01*
X137158481Y-69616073D01*
X137149858Y-69604447D01*
X137142417Y-69592031D01*
X137136228Y-69578946D01*
X137131351Y-69565317D01*
X137127834Y-69551276D01*
X137125710Y-69536958D01*
X137125000Y-69522500D01*
X137125000Y-69177500D01*
X137125710Y-69163042D01*
X137127834Y-69148724D01*
X137131351Y-69134683D01*
X137136228Y-69121054D01*
X137142417Y-69107969D01*
X137149858Y-69095553D01*
X137158481Y-69083927D01*
X137168202Y-69073202D01*
X137178927Y-69063481D01*
X137190553Y-69054858D01*
X137202969Y-69047417D01*
X137216054Y-69041228D01*
X137229683Y-69036351D01*
X137243724Y-69032834D01*
X137258042Y-69030710D01*
X137272500Y-69030000D01*
X137567500Y-69030000D01*
X137581958Y-69030710D01*
X137581958Y-69030710D01*
G37*
D11*
X137420000Y-69350000D03*
D10*
G36*
X135641958Y-70030710D02*
G01*
X135656276Y-70032834D01*
X135670317Y-70036351D01*
X135683946Y-70041228D01*
X135697031Y-70047417D01*
X135709447Y-70054858D01*
X135721073Y-70063481D01*
X135731798Y-70073202D01*
X135741519Y-70083927D01*
X135750142Y-70095553D01*
X135757583Y-70107969D01*
X135763772Y-70121054D01*
X135768649Y-70134683D01*
X135772166Y-70148724D01*
X135774290Y-70163042D01*
X135775000Y-70177500D01*
X135775000Y-70522500D01*
X135774290Y-70536958D01*
X135772166Y-70551276D01*
X135768649Y-70565317D01*
X135763772Y-70578946D01*
X135757583Y-70592031D01*
X135750142Y-70604447D01*
X135741519Y-70616073D01*
X135731798Y-70626798D01*
X135721073Y-70636519D01*
X135709447Y-70645142D01*
X135697031Y-70652583D01*
X135683946Y-70658772D01*
X135670317Y-70663649D01*
X135656276Y-70667166D01*
X135641958Y-70669290D01*
X135627500Y-70670000D01*
X135332500Y-70670000D01*
X135318042Y-70669290D01*
X135303724Y-70667166D01*
X135289683Y-70663649D01*
X135276054Y-70658772D01*
X135262969Y-70652583D01*
X135250553Y-70645142D01*
X135238927Y-70636519D01*
X135228202Y-70626798D01*
X135218481Y-70616073D01*
X135209858Y-70604447D01*
X135202417Y-70592031D01*
X135196228Y-70578946D01*
X135191351Y-70565317D01*
X135187834Y-70551276D01*
X135185710Y-70536958D01*
X135185000Y-70522500D01*
X135185000Y-70177500D01*
X135185710Y-70163042D01*
X135187834Y-70148724D01*
X135191351Y-70134683D01*
X135196228Y-70121054D01*
X135202417Y-70107969D01*
X135209858Y-70095553D01*
X135218481Y-70083927D01*
X135228202Y-70073202D01*
X135238927Y-70063481D01*
X135250553Y-70054858D01*
X135262969Y-70047417D01*
X135276054Y-70041228D01*
X135289683Y-70036351D01*
X135303724Y-70032834D01*
X135318042Y-70030710D01*
X135332500Y-70030000D01*
X135627500Y-70030000D01*
X135641958Y-70030710D01*
X135641958Y-70030710D01*
G37*
D11*
X135480000Y-70350000D03*
D10*
G36*
X136611958Y-70030710D02*
G01*
X136626276Y-70032834D01*
X136640317Y-70036351D01*
X136653946Y-70041228D01*
X136667031Y-70047417D01*
X136679447Y-70054858D01*
X136691073Y-70063481D01*
X136701798Y-70073202D01*
X136711519Y-70083927D01*
X136720142Y-70095553D01*
X136727583Y-70107969D01*
X136733772Y-70121054D01*
X136738649Y-70134683D01*
X136742166Y-70148724D01*
X136744290Y-70163042D01*
X136745000Y-70177500D01*
X136745000Y-70522500D01*
X136744290Y-70536958D01*
X136742166Y-70551276D01*
X136738649Y-70565317D01*
X136733772Y-70578946D01*
X136727583Y-70592031D01*
X136720142Y-70604447D01*
X136711519Y-70616073D01*
X136701798Y-70626798D01*
X136691073Y-70636519D01*
X136679447Y-70645142D01*
X136667031Y-70652583D01*
X136653946Y-70658772D01*
X136640317Y-70663649D01*
X136626276Y-70667166D01*
X136611958Y-70669290D01*
X136597500Y-70670000D01*
X136302500Y-70670000D01*
X136288042Y-70669290D01*
X136273724Y-70667166D01*
X136259683Y-70663649D01*
X136246054Y-70658772D01*
X136232969Y-70652583D01*
X136220553Y-70645142D01*
X136208927Y-70636519D01*
X136198202Y-70626798D01*
X136188481Y-70616073D01*
X136179858Y-70604447D01*
X136172417Y-70592031D01*
X136166228Y-70578946D01*
X136161351Y-70565317D01*
X136157834Y-70551276D01*
X136155710Y-70536958D01*
X136155000Y-70522500D01*
X136155000Y-70177500D01*
X136155710Y-70163042D01*
X136157834Y-70148724D01*
X136161351Y-70134683D01*
X136166228Y-70121054D01*
X136172417Y-70107969D01*
X136179858Y-70095553D01*
X136188481Y-70083927D01*
X136198202Y-70073202D01*
X136208927Y-70063481D01*
X136220553Y-70054858D01*
X136232969Y-70047417D01*
X136246054Y-70041228D01*
X136259683Y-70036351D01*
X136273724Y-70032834D01*
X136288042Y-70030710D01*
X136302500Y-70030000D01*
X136597500Y-70030000D01*
X136611958Y-70030710D01*
X136611958Y-70030710D01*
G37*
D11*
X136450000Y-70350000D03*
D10*
G36*
X137581958Y-70030710D02*
G01*
X137596276Y-70032834D01*
X137610317Y-70036351D01*
X137623946Y-70041228D01*
X137637031Y-70047417D01*
X137649447Y-70054858D01*
X137661073Y-70063481D01*
X137671798Y-70073202D01*
X137681519Y-70083927D01*
X137690142Y-70095553D01*
X137697583Y-70107969D01*
X137703772Y-70121054D01*
X137708649Y-70134683D01*
X137712166Y-70148724D01*
X137714290Y-70163042D01*
X137715000Y-70177500D01*
X137715000Y-70522500D01*
X137714290Y-70536958D01*
X137712166Y-70551276D01*
X137708649Y-70565317D01*
X137703772Y-70578946D01*
X137697583Y-70592031D01*
X137690142Y-70604447D01*
X137681519Y-70616073D01*
X137671798Y-70626798D01*
X137661073Y-70636519D01*
X137649447Y-70645142D01*
X137637031Y-70652583D01*
X137623946Y-70658772D01*
X137610317Y-70663649D01*
X137596276Y-70667166D01*
X137581958Y-70669290D01*
X137567500Y-70670000D01*
X137272500Y-70670000D01*
X137258042Y-70669290D01*
X137243724Y-70667166D01*
X137229683Y-70663649D01*
X137216054Y-70658772D01*
X137202969Y-70652583D01*
X137190553Y-70645142D01*
X137178927Y-70636519D01*
X137168202Y-70626798D01*
X137158481Y-70616073D01*
X137149858Y-70604447D01*
X137142417Y-70592031D01*
X137136228Y-70578946D01*
X137131351Y-70565317D01*
X137127834Y-70551276D01*
X137125710Y-70536958D01*
X137125000Y-70522500D01*
X137125000Y-70177500D01*
X137125710Y-70163042D01*
X137127834Y-70148724D01*
X137131351Y-70134683D01*
X137136228Y-70121054D01*
X137142417Y-70107969D01*
X137149858Y-70095553D01*
X137158481Y-70083927D01*
X137168202Y-70073202D01*
X137178927Y-70063481D01*
X137190553Y-70054858D01*
X137202969Y-70047417D01*
X137216054Y-70041228D01*
X137229683Y-70036351D01*
X137243724Y-70032834D01*
X137258042Y-70030710D01*
X137272500Y-70030000D01*
X137567500Y-70030000D01*
X137581958Y-70030710D01*
X137581958Y-70030710D01*
G37*
D11*
X137420000Y-70350000D03*
D10*
G36*
X135641958Y-71030710D02*
G01*
X135656276Y-71032834D01*
X135670317Y-71036351D01*
X135683946Y-71041228D01*
X135697031Y-71047417D01*
X135709447Y-71054858D01*
X135721073Y-71063481D01*
X135731798Y-71073202D01*
X135741519Y-71083927D01*
X135750142Y-71095553D01*
X135757583Y-71107969D01*
X135763772Y-71121054D01*
X135768649Y-71134683D01*
X135772166Y-71148724D01*
X135774290Y-71163042D01*
X135775000Y-71177500D01*
X135775000Y-71522500D01*
X135774290Y-71536958D01*
X135772166Y-71551276D01*
X135768649Y-71565317D01*
X135763772Y-71578946D01*
X135757583Y-71592031D01*
X135750142Y-71604447D01*
X135741519Y-71616073D01*
X135731798Y-71626798D01*
X135721073Y-71636519D01*
X135709447Y-71645142D01*
X135697031Y-71652583D01*
X135683946Y-71658772D01*
X135670317Y-71663649D01*
X135656276Y-71667166D01*
X135641958Y-71669290D01*
X135627500Y-71670000D01*
X135332500Y-71670000D01*
X135318042Y-71669290D01*
X135303724Y-71667166D01*
X135289683Y-71663649D01*
X135276054Y-71658772D01*
X135262969Y-71652583D01*
X135250553Y-71645142D01*
X135238927Y-71636519D01*
X135228202Y-71626798D01*
X135218481Y-71616073D01*
X135209858Y-71604447D01*
X135202417Y-71592031D01*
X135196228Y-71578946D01*
X135191351Y-71565317D01*
X135187834Y-71551276D01*
X135185710Y-71536958D01*
X135185000Y-71522500D01*
X135185000Y-71177500D01*
X135185710Y-71163042D01*
X135187834Y-71148724D01*
X135191351Y-71134683D01*
X135196228Y-71121054D01*
X135202417Y-71107969D01*
X135209858Y-71095553D01*
X135218481Y-71083927D01*
X135228202Y-71073202D01*
X135238927Y-71063481D01*
X135250553Y-71054858D01*
X135262969Y-71047417D01*
X135276054Y-71041228D01*
X135289683Y-71036351D01*
X135303724Y-71032834D01*
X135318042Y-71030710D01*
X135332500Y-71030000D01*
X135627500Y-71030000D01*
X135641958Y-71030710D01*
X135641958Y-71030710D01*
G37*
D11*
X135480000Y-71350000D03*
D10*
G36*
X136611958Y-71030710D02*
G01*
X136626276Y-71032834D01*
X136640317Y-71036351D01*
X136653946Y-71041228D01*
X136667031Y-71047417D01*
X136679447Y-71054858D01*
X136691073Y-71063481D01*
X136701798Y-71073202D01*
X136711519Y-71083927D01*
X136720142Y-71095553D01*
X136727583Y-71107969D01*
X136733772Y-71121054D01*
X136738649Y-71134683D01*
X136742166Y-71148724D01*
X136744290Y-71163042D01*
X136745000Y-71177500D01*
X136745000Y-71522500D01*
X136744290Y-71536958D01*
X136742166Y-71551276D01*
X136738649Y-71565317D01*
X136733772Y-71578946D01*
X136727583Y-71592031D01*
X136720142Y-71604447D01*
X136711519Y-71616073D01*
X136701798Y-71626798D01*
X136691073Y-71636519D01*
X136679447Y-71645142D01*
X136667031Y-71652583D01*
X136653946Y-71658772D01*
X136640317Y-71663649D01*
X136626276Y-71667166D01*
X136611958Y-71669290D01*
X136597500Y-71670000D01*
X136302500Y-71670000D01*
X136288042Y-71669290D01*
X136273724Y-71667166D01*
X136259683Y-71663649D01*
X136246054Y-71658772D01*
X136232969Y-71652583D01*
X136220553Y-71645142D01*
X136208927Y-71636519D01*
X136198202Y-71626798D01*
X136188481Y-71616073D01*
X136179858Y-71604447D01*
X136172417Y-71592031D01*
X136166228Y-71578946D01*
X136161351Y-71565317D01*
X136157834Y-71551276D01*
X136155710Y-71536958D01*
X136155000Y-71522500D01*
X136155000Y-71177500D01*
X136155710Y-71163042D01*
X136157834Y-71148724D01*
X136161351Y-71134683D01*
X136166228Y-71121054D01*
X136172417Y-71107969D01*
X136179858Y-71095553D01*
X136188481Y-71083927D01*
X136198202Y-71073202D01*
X136208927Y-71063481D01*
X136220553Y-71054858D01*
X136232969Y-71047417D01*
X136246054Y-71041228D01*
X136259683Y-71036351D01*
X136273724Y-71032834D01*
X136288042Y-71030710D01*
X136302500Y-71030000D01*
X136597500Y-71030000D01*
X136611958Y-71030710D01*
X136611958Y-71030710D01*
G37*
D11*
X136450000Y-71350000D03*
D10*
G36*
X137581958Y-71030710D02*
G01*
X137596276Y-71032834D01*
X137610317Y-71036351D01*
X137623946Y-71041228D01*
X137637031Y-71047417D01*
X137649447Y-71054858D01*
X137661073Y-71063481D01*
X137671798Y-71073202D01*
X137681519Y-71083927D01*
X137690142Y-71095553D01*
X137697583Y-71107969D01*
X137703772Y-71121054D01*
X137708649Y-71134683D01*
X137712166Y-71148724D01*
X137714290Y-71163042D01*
X137715000Y-71177500D01*
X137715000Y-71522500D01*
X137714290Y-71536958D01*
X137712166Y-71551276D01*
X137708649Y-71565317D01*
X137703772Y-71578946D01*
X137697583Y-71592031D01*
X137690142Y-71604447D01*
X137681519Y-71616073D01*
X137671798Y-71626798D01*
X137661073Y-71636519D01*
X137649447Y-71645142D01*
X137637031Y-71652583D01*
X137623946Y-71658772D01*
X137610317Y-71663649D01*
X137596276Y-71667166D01*
X137581958Y-71669290D01*
X137567500Y-71670000D01*
X137272500Y-71670000D01*
X137258042Y-71669290D01*
X137243724Y-71667166D01*
X137229683Y-71663649D01*
X137216054Y-71658772D01*
X137202969Y-71652583D01*
X137190553Y-71645142D01*
X137178927Y-71636519D01*
X137168202Y-71626798D01*
X137158481Y-71616073D01*
X137149858Y-71604447D01*
X137142417Y-71592031D01*
X137136228Y-71578946D01*
X137131351Y-71565317D01*
X137127834Y-71551276D01*
X137125710Y-71536958D01*
X137125000Y-71522500D01*
X137125000Y-71177500D01*
X137125710Y-71163042D01*
X137127834Y-71148724D01*
X137131351Y-71134683D01*
X137136228Y-71121054D01*
X137142417Y-71107969D01*
X137149858Y-71095553D01*
X137158481Y-71083927D01*
X137168202Y-71073202D01*
X137178927Y-71063481D01*
X137190553Y-71054858D01*
X137202969Y-71047417D01*
X137216054Y-71041228D01*
X137229683Y-71036351D01*
X137243724Y-71032834D01*
X137258042Y-71030710D01*
X137272500Y-71030000D01*
X137567500Y-71030000D01*
X137581958Y-71030710D01*
X137581958Y-71030710D01*
G37*
D11*
X137420000Y-71350000D03*
D10*
G36*
X135641958Y-72030710D02*
G01*
X135656276Y-72032834D01*
X135670317Y-72036351D01*
X135683946Y-72041228D01*
X135697031Y-72047417D01*
X135709447Y-72054858D01*
X135721073Y-72063481D01*
X135731798Y-72073202D01*
X135741519Y-72083927D01*
X135750142Y-72095553D01*
X135757583Y-72107969D01*
X135763772Y-72121054D01*
X135768649Y-72134683D01*
X135772166Y-72148724D01*
X135774290Y-72163042D01*
X135775000Y-72177500D01*
X135775000Y-72522500D01*
X135774290Y-72536958D01*
X135772166Y-72551276D01*
X135768649Y-72565317D01*
X135763772Y-72578946D01*
X135757583Y-72592031D01*
X135750142Y-72604447D01*
X135741519Y-72616073D01*
X135731798Y-72626798D01*
X135721073Y-72636519D01*
X135709447Y-72645142D01*
X135697031Y-72652583D01*
X135683946Y-72658772D01*
X135670317Y-72663649D01*
X135656276Y-72667166D01*
X135641958Y-72669290D01*
X135627500Y-72670000D01*
X135332500Y-72670000D01*
X135318042Y-72669290D01*
X135303724Y-72667166D01*
X135289683Y-72663649D01*
X135276054Y-72658772D01*
X135262969Y-72652583D01*
X135250553Y-72645142D01*
X135238927Y-72636519D01*
X135228202Y-72626798D01*
X135218481Y-72616073D01*
X135209858Y-72604447D01*
X135202417Y-72592031D01*
X135196228Y-72578946D01*
X135191351Y-72565317D01*
X135187834Y-72551276D01*
X135185710Y-72536958D01*
X135185000Y-72522500D01*
X135185000Y-72177500D01*
X135185710Y-72163042D01*
X135187834Y-72148724D01*
X135191351Y-72134683D01*
X135196228Y-72121054D01*
X135202417Y-72107969D01*
X135209858Y-72095553D01*
X135218481Y-72083927D01*
X135228202Y-72073202D01*
X135238927Y-72063481D01*
X135250553Y-72054858D01*
X135262969Y-72047417D01*
X135276054Y-72041228D01*
X135289683Y-72036351D01*
X135303724Y-72032834D01*
X135318042Y-72030710D01*
X135332500Y-72030000D01*
X135627500Y-72030000D01*
X135641958Y-72030710D01*
X135641958Y-72030710D01*
G37*
D11*
X135480000Y-72350000D03*
D10*
G36*
X136611958Y-72030710D02*
G01*
X136626276Y-72032834D01*
X136640317Y-72036351D01*
X136653946Y-72041228D01*
X136667031Y-72047417D01*
X136679447Y-72054858D01*
X136691073Y-72063481D01*
X136701798Y-72073202D01*
X136711519Y-72083927D01*
X136720142Y-72095553D01*
X136727583Y-72107969D01*
X136733772Y-72121054D01*
X136738649Y-72134683D01*
X136742166Y-72148724D01*
X136744290Y-72163042D01*
X136745000Y-72177500D01*
X136745000Y-72522500D01*
X136744290Y-72536958D01*
X136742166Y-72551276D01*
X136738649Y-72565317D01*
X136733772Y-72578946D01*
X136727583Y-72592031D01*
X136720142Y-72604447D01*
X136711519Y-72616073D01*
X136701798Y-72626798D01*
X136691073Y-72636519D01*
X136679447Y-72645142D01*
X136667031Y-72652583D01*
X136653946Y-72658772D01*
X136640317Y-72663649D01*
X136626276Y-72667166D01*
X136611958Y-72669290D01*
X136597500Y-72670000D01*
X136302500Y-72670000D01*
X136288042Y-72669290D01*
X136273724Y-72667166D01*
X136259683Y-72663649D01*
X136246054Y-72658772D01*
X136232969Y-72652583D01*
X136220553Y-72645142D01*
X136208927Y-72636519D01*
X136198202Y-72626798D01*
X136188481Y-72616073D01*
X136179858Y-72604447D01*
X136172417Y-72592031D01*
X136166228Y-72578946D01*
X136161351Y-72565317D01*
X136157834Y-72551276D01*
X136155710Y-72536958D01*
X136155000Y-72522500D01*
X136155000Y-72177500D01*
X136155710Y-72163042D01*
X136157834Y-72148724D01*
X136161351Y-72134683D01*
X136166228Y-72121054D01*
X136172417Y-72107969D01*
X136179858Y-72095553D01*
X136188481Y-72083927D01*
X136198202Y-72073202D01*
X136208927Y-72063481D01*
X136220553Y-72054858D01*
X136232969Y-72047417D01*
X136246054Y-72041228D01*
X136259683Y-72036351D01*
X136273724Y-72032834D01*
X136288042Y-72030710D01*
X136302500Y-72030000D01*
X136597500Y-72030000D01*
X136611958Y-72030710D01*
X136611958Y-72030710D01*
G37*
D11*
X136450000Y-72350000D03*
D10*
G36*
X137581958Y-72030710D02*
G01*
X137596276Y-72032834D01*
X137610317Y-72036351D01*
X137623946Y-72041228D01*
X137637031Y-72047417D01*
X137649447Y-72054858D01*
X137661073Y-72063481D01*
X137671798Y-72073202D01*
X137681519Y-72083927D01*
X137690142Y-72095553D01*
X137697583Y-72107969D01*
X137703772Y-72121054D01*
X137708649Y-72134683D01*
X137712166Y-72148724D01*
X137714290Y-72163042D01*
X137715000Y-72177500D01*
X137715000Y-72522500D01*
X137714290Y-72536958D01*
X137712166Y-72551276D01*
X137708649Y-72565317D01*
X137703772Y-72578946D01*
X137697583Y-72592031D01*
X137690142Y-72604447D01*
X137681519Y-72616073D01*
X137671798Y-72626798D01*
X137661073Y-72636519D01*
X137649447Y-72645142D01*
X137637031Y-72652583D01*
X137623946Y-72658772D01*
X137610317Y-72663649D01*
X137596276Y-72667166D01*
X137581958Y-72669290D01*
X137567500Y-72670000D01*
X137272500Y-72670000D01*
X137258042Y-72669290D01*
X137243724Y-72667166D01*
X137229683Y-72663649D01*
X137216054Y-72658772D01*
X137202969Y-72652583D01*
X137190553Y-72645142D01*
X137178927Y-72636519D01*
X137168202Y-72626798D01*
X137158481Y-72616073D01*
X137149858Y-72604447D01*
X137142417Y-72592031D01*
X137136228Y-72578946D01*
X137131351Y-72565317D01*
X137127834Y-72551276D01*
X137125710Y-72536958D01*
X137125000Y-72522500D01*
X137125000Y-72177500D01*
X137125710Y-72163042D01*
X137127834Y-72148724D01*
X137131351Y-72134683D01*
X137136228Y-72121054D01*
X137142417Y-72107969D01*
X137149858Y-72095553D01*
X137158481Y-72083927D01*
X137168202Y-72073202D01*
X137178927Y-72063481D01*
X137190553Y-72054858D01*
X137202969Y-72047417D01*
X137216054Y-72041228D01*
X137229683Y-72036351D01*
X137243724Y-72032834D01*
X137258042Y-72030710D01*
X137272500Y-72030000D01*
X137567500Y-72030000D01*
X137581958Y-72030710D01*
X137581958Y-72030710D01*
G37*
D11*
X137420000Y-72350000D03*
D10*
G36*
X137581958Y-73030710D02*
G01*
X137596276Y-73032834D01*
X137610317Y-73036351D01*
X137623946Y-73041228D01*
X137637031Y-73047417D01*
X137649447Y-73054858D01*
X137661073Y-73063481D01*
X137671798Y-73073202D01*
X137681519Y-73083927D01*
X137690142Y-73095553D01*
X137697583Y-73107969D01*
X137703772Y-73121054D01*
X137708649Y-73134683D01*
X137712166Y-73148724D01*
X137714290Y-73163042D01*
X137715000Y-73177500D01*
X137715000Y-73522500D01*
X137714290Y-73536958D01*
X137712166Y-73551276D01*
X137708649Y-73565317D01*
X137703772Y-73578946D01*
X137697583Y-73592031D01*
X137690142Y-73604447D01*
X137681519Y-73616073D01*
X137671798Y-73626798D01*
X137661073Y-73636519D01*
X137649447Y-73645142D01*
X137637031Y-73652583D01*
X137623946Y-73658772D01*
X137610317Y-73663649D01*
X137596276Y-73667166D01*
X137581958Y-73669290D01*
X137567500Y-73670000D01*
X137272500Y-73670000D01*
X137258042Y-73669290D01*
X137243724Y-73667166D01*
X137229683Y-73663649D01*
X137216054Y-73658772D01*
X137202969Y-73652583D01*
X137190553Y-73645142D01*
X137178927Y-73636519D01*
X137168202Y-73626798D01*
X137158481Y-73616073D01*
X137149858Y-73604447D01*
X137142417Y-73592031D01*
X137136228Y-73578946D01*
X137131351Y-73565317D01*
X137127834Y-73551276D01*
X137125710Y-73536958D01*
X137125000Y-73522500D01*
X137125000Y-73177500D01*
X137125710Y-73163042D01*
X137127834Y-73148724D01*
X137131351Y-73134683D01*
X137136228Y-73121054D01*
X137142417Y-73107969D01*
X137149858Y-73095553D01*
X137158481Y-73083927D01*
X137168202Y-73073202D01*
X137178927Y-73063481D01*
X137190553Y-73054858D01*
X137202969Y-73047417D01*
X137216054Y-73041228D01*
X137229683Y-73036351D01*
X137243724Y-73032834D01*
X137258042Y-73030710D01*
X137272500Y-73030000D01*
X137567500Y-73030000D01*
X137581958Y-73030710D01*
X137581958Y-73030710D01*
G37*
D11*
X137420000Y-73350000D03*
D10*
G36*
X136611958Y-73030710D02*
G01*
X136626276Y-73032834D01*
X136640317Y-73036351D01*
X136653946Y-73041228D01*
X136667031Y-73047417D01*
X136679447Y-73054858D01*
X136691073Y-73063481D01*
X136701798Y-73073202D01*
X136711519Y-73083927D01*
X136720142Y-73095553D01*
X136727583Y-73107969D01*
X136733772Y-73121054D01*
X136738649Y-73134683D01*
X136742166Y-73148724D01*
X136744290Y-73163042D01*
X136745000Y-73177500D01*
X136745000Y-73522500D01*
X136744290Y-73536958D01*
X136742166Y-73551276D01*
X136738649Y-73565317D01*
X136733772Y-73578946D01*
X136727583Y-73592031D01*
X136720142Y-73604447D01*
X136711519Y-73616073D01*
X136701798Y-73626798D01*
X136691073Y-73636519D01*
X136679447Y-73645142D01*
X136667031Y-73652583D01*
X136653946Y-73658772D01*
X136640317Y-73663649D01*
X136626276Y-73667166D01*
X136611958Y-73669290D01*
X136597500Y-73670000D01*
X136302500Y-73670000D01*
X136288042Y-73669290D01*
X136273724Y-73667166D01*
X136259683Y-73663649D01*
X136246054Y-73658772D01*
X136232969Y-73652583D01*
X136220553Y-73645142D01*
X136208927Y-73636519D01*
X136198202Y-73626798D01*
X136188481Y-73616073D01*
X136179858Y-73604447D01*
X136172417Y-73592031D01*
X136166228Y-73578946D01*
X136161351Y-73565317D01*
X136157834Y-73551276D01*
X136155710Y-73536958D01*
X136155000Y-73522500D01*
X136155000Y-73177500D01*
X136155710Y-73163042D01*
X136157834Y-73148724D01*
X136161351Y-73134683D01*
X136166228Y-73121054D01*
X136172417Y-73107969D01*
X136179858Y-73095553D01*
X136188481Y-73083927D01*
X136198202Y-73073202D01*
X136208927Y-73063481D01*
X136220553Y-73054858D01*
X136232969Y-73047417D01*
X136246054Y-73041228D01*
X136259683Y-73036351D01*
X136273724Y-73032834D01*
X136288042Y-73030710D01*
X136302500Y-73030000D01*
X136597500Y-73030000D01*
X136611958Y-73030710D01*
X136611958Y-73030710D01*
G37*
D11*
X136450000Y-73350000D03*
D10*
G36*
X135641958Y-73030710D02*
G01*
X135656276Y-73032834D01*
X135670317Y-73036351D01*
X135683946Y-73041228D01*
X135697031Y-73047417D01*
X135709447Y-73054858D01*
X135721073Y-73063481D01*
X135731798Y-73073202D01*
X135741519Y-73083927D01*
X135750142Y-73095553D01*
X135757583Y-73107969D01*
X135763772Y-73121054D01*
X135768649Y-73134683D01*
X135772166Y-73148724D01*
X135774290Y-73163042D01*
X135775000Y-73177500D01*
X135775000Y-73522500D01*
X135774290Y-73536958D01*
X135772166Y-73551276D01*
X135768649Y-73565317D01*
X135763772Y-73578946D01*
X135757583Y-73592031D01*
X135750142Y-73604447D01*
X135741519Y-73616073D01*
X135731798Y-73626798D01*
X135721073Y-73636519D01*
X135709447Y-73645142D01*
X135697031Y-73652583D01*
X135683946Y-73658772D01*
X135670317Y-73663649D01*
X135656276Y-73667166D01*
X135641958Y-73669290D01*
X135627500Y-73670000D01*
X135332500Y-73670000D01*
X135318042Y-73669290D01*
X135303724Y-73667166D01*
X135289683Y-73663649D01*
X135276054Y-73658772D01*
X135262969Y-73652583D01*
X135250553Y-73645142D01*
X135238927Y-73636519D01*
X135228202Y-73626798D01*
X135218481Y-73616073D01*
X135209858Y-73604447D01*
X135202417Y-73592031D01*
X135196228Y-73578946D01*
X135191351Y-73565317D01*
X135187834Y-73551276D01*
X135185710Y-73536958D01*
X135185000Y-73522500D01*
X135185000Y-73177500D01*
X135185710Y-73163042D01*
X135187834Y-73148724D01*
X135191351Y-73134683D01*
X135196228Y-73121054D01*
X135202417Y-73107969D01*
X135209858Y-73095553D01*
X135218481Y-73083927D01*
X135228202Y-73073202D01*
X135238927Y-73063481D01*
X135250553Y-73054858D01*
X135262969Y-73047417D01*
X135276054Y-73041228D01*
X135289683Y-73036351D01*
X135303724Y-73032834D01*
X135318042Y-73030710D01*
X135332500Y-73030000D01*
X135627500Y-73030000D01*
X135641958Y-73030710D01*
X135641958Y-73030710D01*
G37*
D11*
X135480000Y-73350000D03*
D12*
X114730000Y-87475000D03*
X114730000Y-92525000D03*
X117270000Y-87475000D03*
X117270000Y-92525000D03*
D13*
X143025000Y-96560000D03*
X137975000Y-96560000D03*
X143025000Y-99100000D03*
X137975000Y-99100000D03*
X143025000Y-101640000D03*
X137975000Y-101640000D03*
M02*
