G04 #@! TF.GenerationSoftware,KiCad,Pcbnew,5.1.4*
G04 #@! TF.CreationDate,2019-11-17T01:51:28+01:00*
G04 #@! TF.ProjectId,RevA,52657641-2e6b-4696-9361-645f70636258,rev?*
G04 #@! TF.SameCoordinates,Original*
G04 #@! TF.FileFunction,Soldermask,Bot*
G04 #@! TF.FilePolarity,Negative*
%FSLAX46Y46*%
G04 Gerber Fmt 4.6, Leading zero omitted, Abs format (unit mm)*
G04 Created by KiCad (PCBNEW 5.1.4) date 2019-11-17 01:51:28*
%MOMM*%
%LPD*%
G04 APERTURE LIST*
%ADD10C,0.100000*%
G04 APERTURE END LIST*
D10*
G36*
X144651000Y-102191000D02*
G01*
X141399000Y-102191000D01*
X141399000Y-101089000D01*
X144651000Y-101089000D01*
X144651000Y-102191000D01*
X144651000Y-102191000D01*
G37*
G36*
X139601000Y-102191000D02*
G01*
X136349000Y-102191000D01*
X136349000Y-101089000D01*
X139601000Y-101089000D01*
X139601000Y-102191000D01*
X139601000Y-102191000D01*
G37*
G36*
X181525331Y-98268211D02*
G01*
X181853092Y-98403974D01*
X182148070Y-98601072D01*
X182398928Y-98851930D01*
X182596026Y-99146908D01*
X182731789Y-99474669D01*
X182801000Y-99822616D01*
X182801000Y-100177384D01*
X182731789Y-100525331D01*
X182596026Y-100853092D01*
X182398928Y-101148070D01*
X182148070Y-101398928D01*
X181853092Y-101596026D01*
X181525331Y-101731789D01*
X181177384Y-101801000D01*
X180822616Y-101801000D01*
X180474669Y-101731789D01*
X180146908Y-101596026D01*
X179851930Y-101398928D01*
X179601072Y-101148070D01*
X179403974Y-100853092D01*
X179268211Y-100525331D01*
X179199000Y-100177384D01*
X179199000Y-99822616D01*
X179268211Y-99474669D01*
X179403974Y-99146908D01*
X179601072Y-98851930D01*
X179851930Y-98601072D01*
X180146908Y-98403974D01*
X180474669Y-98268211D01*
X180822616Y-98199000D01*
X181177384Y-98199000D01*
X181525331Y-98268211D01*
X181525331Y-98268211D01*
G37*
G36*
X104525331Y-98268211D02*
G01*
X104853092Y-98403974D01*
X105148070Y-98601072D01*
X105398928Y-98851930D01*
X105596026Y-99146908D01*
X105731789Y-99474669D01*
X105801000Y-99822616D01*
X105801000Y-100177384D01*
X105731789Y-100525331D01*
X105596026Y-100853092D01*
X105398928Y-101148070D01*
X105148070Y-101398928D01*
X104853092Y-101596026D01*
X104525331Y-101731789D01*
X104177384Y-101801000D01*
X103822616Y-101801000D01*
X103474669Y-101731789D01*
X103146908Y-101596026D01*
X102851930Y-101398928D01*
X102601072Y-101148070D01*
X102403974Y-100853092D01*
X102268211Y-100525331D01*
X102199000Y-100177384D01*
X102199000Y-99822616D01*
X102268211Y-99474669D01*
X102403974Y-99146908D01*
X102601072Y-98851930D01*
X102851930Y-98601072D01*
X103146908Y-98403974D01*
X103474669Y-98268211D01*
X103822616Y-98199000D01*
X104177384Y-98199000D01*
X104525331Y-98268211D01*
X104525331Y-98268211D01*
G37*
G36*
X144651000Y-99651000D02*
G01*
X141399000Y-99651000D01*
X141399000Y-98549000D01*
X144651000Y-98549000D01*
X144651000Y-99651000D01*
X144651000Y-99651000D01*
G37*
G36*
X139601000Y-99651000D02*
G01*
X136349000Y-99651000D01*
X136349000Y-98549000D01*
X139601000Y-98549000D01*
X139601000Y-99651000D01*
X139601000Y-99651000D01*
G37*
G36*
X139601000Y-97111000D02*
G01*
X136349000Y-97111000D01*
X136349000Y-96009000D01*
X139601000Y-96009000D01*
X139601000Y-97111000D01*
X139601000Y-97111000D01*
G37*
G36*
X144651000Y-97111000D02*
G01*
X141399000Y-97111000D01*
X141399000Y-96009000D01*
X144651000Y-96009000D01*
X144651000Y-97111000D01*
X144651000Y-97111000D01*
G37*
G36*
X159710442Y-92945518D02*
G01*
X159776627Y-92952037D01*
X159946466Y-93003557D01*
X160102991Y-93087222D01*
X160138729Y-93116552D01*
X160240186Y-93199814D01*
X160323448Y-93301271D01*
X160352778Y-93337009D01*
X160436443Y-93493534D01*
X160487963Y-93663373D01*
X160505359Y-93840000D01*
X160487963Y-94016627D01*
X160436443Y-94186466D01*
X160352778Y-94342991D01*
X160323448Y-94378729D01*
X160240186Y-94480186D01*
X160138729Y-94563448D01*
X160102991Y-94592778D01*
X160102989Y-94592779D01*
X159965177Y-94666442D01*
X159946466Y-94676443D01*
X159776627Y-94727963D01*
X159710442Y-94734482D01*
X159644260Y-94741000D01*
X159555740Y-94741000D01*
X159489558Y-94734482D01*
X159423373Y-94727963D01*
X159253534Y-94676443D01*
X159234824Y-94666442D01*
X159097011Y-94592779D01*
X159097009Y-94592778D01*
X159061271Y-94563448D01*
X158959814Y-94480186D01*
X158876552Y-94378729D01*
X158847222Y-94342991D01*
X158763557Y-94186466D01*
X158712037Y-94016627D01*
X158694641Y-93840000D01*
X158712037Y-93663373D01*
X158763557Y-93493534D01*
X158847222Y-93337009D01*
X158876552Y-93301271D01*
X158959814Y-93199814D01*
X159061271Y-93116552D01*
X159097009Y-93087222D01*
X159253534Y-93003557D01*
X159423373Y-92952037D01*
X159489558Y-92945518D01*
X159555740Y-92939000D01*
X159644260Y-92939000D01*
X159710442Y-92945518D01*
X159710442Y-92945518D01*
G37*
G36*
X169870442Y-92945518D02*
G01*
X169936627Y-92952037D01*
X170106466Y-93003557D01*
X170262991Y-93087222D01*
X170298729Y-93116552D01*
X170400186Y-93199814D01*
X170483448Y-93301271D01*
X170512778Y-93337009D01*
X170596443Y-93493534D01*
X170647963Y-93663373D01*
X170665359Y-93840000D01*
X170647963Y-94016627D01*
X170596443Y-94186466D01*
X170512778Y-94342991D01*
X170483448Y-94378729D01*
X170400186Y-94480186D01*
X170298729Y-94563448D01*
X170262991Y-94592778D01*
X170262989Y-94592779D01*
X170125177Y-94666442D01*
X170106466Y-94676443D01*
X169936627Y-94727963D01*
X169870442Y-94734482D01*
X169804260Y-94741000D01*
X169715740Y-94741000D01*
X169649558Y-94734482D01*
X169583373Y-94727963D01*
X169413534Y-94676443D01*
X169394824Y-94666442D01*
X169257011Y-94592779D01*
X169257009Y-94592778D01*
X169221271Y-94563448D01*
X169119814Y-94480186D01*
X169036552Y-94378729D01*
X169007222Y-94342991D01*
X168923557Y-94186466D01*
X168872037Y-94016627D01*
X168854641Y-93840000D01*
X168872037Y-93663373D01*
X168923557Y-93493534D01*
X169007222Y-93337009D01*
X169036552Y-93301271D01*
X169119814Y-93199814D01*
X169221271Y-93116552D01*
X169257009Y-93087222D01*
X169413534Y-93003557D01*
X169583373Y-92952037D01*
X169649558Y-92945518D01*
X169715740Y-92939000D01*
X169804260Y-92939000D01*
X169870442Y-92945518D01*
X169870442Y-92945518D01*
G37*
G36*
X167330442Y-92945518D02*
G01*
X167396627Y-92952037D01*
X167566466Y-93003557D01*
X167722991Y-93087222D01*
X167758729Y-93116552D01*
X167860186Y-93199814D01*
X167943448Y-93301271D01*
X167972778Y-93337009D01*
X168056443Y-93493534D01*
X168107963Y-93663373D01*
X168125359Y-93840000D01*
X168107963Y-94016627D01*
X168056443Y-94186466D01*
X167972778Y-94342991D01*
X167943448Y-94378729D01*
X167860186Y-94480186D01*
X167758729Y-94563448D01*
X167722991Y-94592778D01*
X167722989Y-94592779D01*
X167585177Y-94666442D01*
X167566466Y-94676443D01*
X167396627Y-94727963D01*
X167330442Y-94734482D01*
X167264260Y-94741000D01*
X167175740Y-94741000D01*
X167109558Y-94734482D01*
X167043373Y-94727963D01*
X166873534Y-94676443D01*
X166854824Y-94666442D01*
X166717011Y-94592779D01*
X166717009Y-94592778D01*
X166681271Y-94563448D01*
X166579814Y-94480186D01*
X166496552Y-94378729D01*
X166467222Y-94342991D01*
X166383557Y-94186466D01*
X166332037Y-94016627D01*
X166314641Y-93840000D01*
X166332037Y-93663373D01*
X166383557Y-93493534D01*
X166467222Y-93337009D01*
X166496552Y-93301271D01*
X166579814Y-93199814D01*
X166681271Y-93116552D01*
X166717009Y-93087222D01*
X166873534Y-93003557D01*
X167043373Y-92952037D01*
X167109558Y-92945518D01*
X167175740Y-92939000D01*
X167264260Y-92939000D01*
X167330442Y-92945518D01*
X167330442Y-92945518D01*
G37*
G36*
X164790442Y-92945518D02*
G01*
X164856627Y-92952037D01*
X165026466Y-93003557D01*
X165182991Y-93087222D01*
X165218729Y-93116552D01*
X165320186Y-93199814D01*
X165403448Y-93301271D01*
X165432778Y-93337009D01*
X165516443Y-93493534D01*
X165567963Y-93663373D01*
X165585359Y-93840000D01*
X165567963Y-94016627D01*
X165516443Y-94186466D01*
X165432778Y-94342991D01*
X165403448Y-94378729D01*
X165320186Y-94480186D01*
X165218729Y-94563448D01*
X165182991Y-94592778D01*
X165182989Y-94592779D01*
X165045177Y-94666442D01*
X165026466Y-94676443D01*
X164856627Y-94727963D01*
X164790442Y-94734482D01*
X164724260Y-94741000D01*
X164635740Y-94741000D01*
X164569558Y-94734482D01*
X164503373Y-94727963D01*
X164333534Y-94676443D01*
X164314824Y-94666442D01*
X164177011Y-94592779D01*
X164177009Y-94592778D01*
X164141271Y-94563448D01*
X164039814Y-94480186D01*
X163956552Y-94378729D01*
X163927222Y-94342991D01*
X163843557Y-94186466D01*
X163792037Y-94016627D01*
X163774641Y-93840000D01*
X163792037Y-93663373D01*
X163843557Y-93493534D01*
X163927222Y-93337009D01*
X163956552Y-93301271D01*
X164039814Y-93199814D01*
X164141271Y-93116552D01*
X164177009Y-93087222D01*
X164333534Y-93003557D01*
X164503373Y-92952037D01*
X164569558Y-92945518D01*
X164635740Y-92939000D01*
X164724260Y-92939000D01*
X164790442Y-92945518D01*
X164790442Y-92945518D01*
G37*
G36*
X162250442Y-92945518D02*
G01*
X162316627Y-92952037D01*
X162486466Y-93003557D01*
X162642991Y-93087222D01*
X162678729Y-93116552D01*
X162780186Y-93199814D01*
X162863448Y-93301271D01*
X162892778Y-93337009D01*
X162976443Y-93493534D01*
X163027963Y-93663373D01*
X163045359Y-93840000D01*
X163027963Y-94016627D01*
X162976443Y-94186466D01*
X162892778Y-94342991D01*
X162863448Y-94378729D01*
X162780186Y-94480186D01*
X162678729Y-94563448D01*
X162642991Y-94592778D01*
X162642989Y-94592779D01*
X162505177Y-94666442D01*
X162486466Y-94676443D01*
X162316627Y-94727963D01*
X162250442Y-94734482D01*
X162184260Y-94741000D01*
X162095740Y-94741000D01*
X162029558Y-94734482D01*
X161963373Y-94727963D01*
X161793534Y-94676443D01*
X161774824Y-94666442D01*
X161637011Y-94592779D01*
X161637009Y-94592778D01*
X161601271Y-94563448D01*
X161499814Y-94480186D01*
X161416552Y-94378729D01*
X161387222Y-94342991D01*
X161303557Y-94186466D01*
X161252037Y-94016627D01*
X161234641Y-93840000D01*
X161252037Y-93663373D01*
X161303557Y-93493534D01*
X161387222Y-93337009D01*
X161416552Y-93301271D01*
X161499814Y-93199814D01*
X161601271Y-93116552D01*
X161637009Y-93087222D01*
X161793534Y-93003557D01*
X161963373Y-92952037D01*
X162029558Y-92945518D01*
X162095740Y-92939000D01*
X162184260Y-92939000D01*
X162250442Y-92945518D01*
X162250442Y-92945518D01*
G37*
G36*
X157170442Y-92945518D02*
G01*
X157236627Y-92952037D01*
X157406466Y-93003557D01*
X157562991Y-93087222D01*
X157598729Y-93116552D01*
X157700186Y-93199814D01*
X157783448Y-93301271D01*
X157812778Y-93337009D01*
X157896443Y-93493534D01*
X157947963Y-93663373D01*
X157965359Y-93840000D01*
X157947963Y-94016627D01*
X157896443Y-94186466D01*
X157812778Y-94342991D01*
X157783448Y-94378729D01*
X157700186Y-94480186D01*
X157598729Y-94563448D01*
X157562991Y-94592778D01*
X157562989Y-94592779D01*
X157425177Y-94666442D01*
X157406466Y-94676443D01*
X157236627Y-94727963D01*
X157170442Y-94734482D01*
X157104260Y-94741000D01*
X157015740Y-94741000D01*
X156949558Y-94734482D01*
X156883373Y-94727963D01*
X156713534Y-94676443D01*
X156694824Y-94666442D01*
X156557011Y-94592779D01*
X156557009Y-94592778D01*
X156521271Y-94563448D01*
X156419814Y-94480186D01*
X156336552Y-94378729D01*
X156307222Y-94342991D01*
X156223557Y-94186466D01*
X156172037Y-94016627D01*
X156154641Y-93840000D01*
X156172037Y-93663373D01*
X156223557Y-93493534D01*
X156307222Y-93337009D01*
X156336552Y-93301271D01*
X156419814Y-93199814D01*
X156521271Y-93116552D01*
X156557009Y-93087222D01*
X156713534Y-93003557D01*
X156883373Y-92952037D01*
X156949558Y-92945518D01*
X157015740Y-92939000D01*
X157104260Y-92939000D01*
X157170442Y-92945518D01*
X157170442Y-92945518D01*
G37*
G36*
X147010442Y-92945518D02*
G01*
X147076627Y-92952037D01*
X147246466Y-93003557D01*
X147402991Y-93087222D01*
X147438729Y-93116552D01*
X147540186Y-93199814D01*
X147623448Y-93301271D01*
X147652778Y-93337009D01*
X147736443Y-93493534D01*
X147787963Y-93663373D01*
X147805359Y-93840000D01*
X147787963Y-94016627D01*
X147736443Y-94186466D01*
X147652778Y-94342991D01*
X147623448Y-94378729D01*
X147540186Y-94480186D01*
X147438729Y-94563448D01*
X147402991Y-94592778D01*
X147402989Y-94592779D01*
X147265177Y-94666442D01*
X147246466Y-94676443D01*
X147076627Y-94727963D01*
X147010442Y-94734482D01*
X146944260Y-94741000D01*
X146855740Y-94741000D01*
X146789558Y-94734482D01*
X146723373Y-94727963D01*
X146553534Y-94676443D01*
X146534824Y-94666442D01*
X146397011Y-94592779D01*
X146397009Y-94592778D01*
X146361271Y-94563448D01*
X146259814Y-94480186D01*
X146176552Y-94378729D01*
X146147222Y-94342991D01*
X146063557Y-94186466D01*
X146012037Y-94016627D01*
X145994641Y-93840000D01*
X146012037Y-93663373D01*
X146063557Y-93493534D01*
X146147222Y-93337009D01*
X146176552Y-93301271D01*
X146259814Y-93199814D01*
X146361271Y-93116552D01*
X146397009Y-93087222D01*
X146553534Y-93003557D01*
X146723373Y-92952037D01*
X146789558Y-92945518D01*
X146855740Y-92939000D01*
X146944260Y-92939000D01*
X147010442Y-92945518D01*
X147010442Y-92945518D01*
G37*
G36*
X144470442Y-92945518D02*
G01*
X144536627Y-92952037D01*
X144706466Y-93003557D01*
X144862991Y-93087222D01*
X144898729Y-93116552D01*
X145000186Y-93199814D01*
X145083448Y-93301271D01*
X145112778Y-93337009D01*
X145196443Y-93493534D01*
X145247963Y-93663373D01*
X145265359Y-93840000D01*
X145247963Y-94016627D01*
X145196443Y-94186466D01*
X145112778Y-94342991D01*
X145083448Y-94378729D01*
X145000186Y-94480186D01*
X144898729Y-94563448D01*
X144862991Y-94592778D01*
X144862989Y-94592779D01*
X144725177Y-94666442D01*
X144706466Y-94676443D01*
X144536627Y-94727963D01*
X144470442Y-94734482D01*
X144404260Y-94741000D01*
X144315740Y-94741000D01*
X144249558Y-94734482D01*
X144183373Y-94727963D01*
X144013534Y-94676443D01*
X143994824Y-94666442D01*
X143857011Y-94592779D01*
X143857009Y-94592778D01*
X143821271Y-94563448D01*
X143719814Y-94480186D01*
X143636552Y-94378729D01*
X143607222Y-94342991D01*
X143523557Y-94186466D01*
X143472037Y-94016627D01*
X143454641Y-93840000D01*
X143472037Y-93663373D01*
X143523557Y-93493534D01*
X143607222Y-93337009D01*
X143636552Y-93301271D01*
X143719814Y-93199814D01*
X143821271Y-93116552D01*
X143857009Y-93087222D01*
X144013534Y-93003557D01*
X144183373Y-92952037D01*
X144249558Y-92945518D01*
X144315740Y-92939000D01*
X144404260Y-92939000D01*
X144470442Y-92945518D01*
X144470442Y-92945518D01*
G37*
G36*
X139390442Y-92945518D02*
G01*
X139456627Y-92952037D01*
X139626466Y-93003557D01*
X139782991Y-93087222D01*
X139818729Y-93116552D01*
X139920186Y-93199814D01*
X140003448Y-93301271D01*
X140032778Y-93337009D01*
X140116443Y-93493534D01*
X140167963Y-93663373D01*
X140185359Y-93840000D01*
X140167963Y-94016627D01*
X140116443Y-94186466D01*
X140032778Y-94342991D01*
X140003448Y-94378729D01*
X139920186Y-94480186D01*
X139818729Y-94563448D01*
X139782991Y-94592778D01*
X139782989Y-94592779D01*
X139645177Y-94666442D01*
X139626466Y-94676443D01*
X139456627Y-94727963D01*
X139390442Y-94734482D01*
X139324260Y-94741000D01*
X139235740Y-94741000D01*
X139169558Y-94734482D01*
X139103373Y-94727963D01*
X138933534Y-94676443D01*
X138914824Y-94666442D01*
X138777011Y-94592779D01*
X138777009Y-94592778D01*
X138741271Y-94563448D01*
X138639814Y-94480186D01*
X138556552Y-94378729D01*
X138527222Y-94342991D01*
X138443557Y-94186466D01*
X138392037Y-94016627D01*
X138374641Y-93840000D01*
X138392037Y-93663373D01*
X138443557Y-93493534D01*
X138527222Y-93337009D01*
X138556552Y-93301271D01*
X138639814Y-93199814D01*
X138741271Y-93116552D01*
X138777009Y-93087222D01*
X138933534Y-93003557D01*
X139103373Y-92952037D01*
X139169558Y-92945518D01*
X139235740Y-92939000D01*
X139324260Y-92939000D01*
X139390442Y-92945518D01*
X139390442Y-92945518D01*
G37*
G36*
X136850442Y-92945518D02*
G01*
X136916627Y-92952037D01*
X137086466Y-93003557D01*
X137242991Y-93087222D01*
X137278729Y-93116552D01*
X137380186Y-93199814D01*
X137463448Y-93301271D01*
X137492778Y-93337009D01*
X137576443Y-93493534D01*
X137627963Y-93663373D01*
X137645359Y-93840000D01*
X137627963Y-94016627D01*
X137576443Y-94186466D01*
X137492778Y-94342991D01*
X137463448Y-94378729D01*
X137380186Y-94480186D01*
X137278729Y-94563448D01*
X137242991Y-94592778D01*
X137242989Y-94592779D01*
X137105177Y-94666442D01*
X137086466Y-94676443D01*
X136916627Y-94727963D01*
X136850442Y-94734482D01*
X136784260Y-94741000D01*
X136695740Y-94741000D01*
X136629558Y-94734482D01*
X136563373Y-94727963D01*
X136393534Y-94676443D01*
X136374824Y-94666442D01*
X136237011Y-94592779D01*
X136237009Y-94592778D01*
X136201271Y-94563448D01*
X136099814Y-94480186D01*
X136016552Y-94378729D01*
X135987222Y-94342991D01*
X135903557Y-94186466D01*
X135852037Y-94016627D01*
X135834641Y-93840000D01*
X135852037Y-93663373D01*
X135903557Y-93493534D01*
X135987222Y-93337009D01*
X136016552Y-93301271D01*
X136099814Y-93199814D01*
X136201271Y-93116552D01*
X136237009Y-93087222D01*
X136393534Y-93003557D01*
X136563373Y-92952037D01*
X136629558Y-92945518D01*
X136695740Y-92939000D01*
X136784260Y-92939000D01*
X136850442Y-92945518D01*
X136850442Y-92945518D01*
G37*
G36*
X141930442Y-92945518D02*
G01*
X141996627Y-92952037D01*
X142166466Y-93003557D01*
X142322991Y-93087222D01*
X142358729Y-93116552D01*
X142460186Y-93199814D01*
X142543448Y-93301271D01*
X142572778Y-93337009D01*
X142656443Y-93493534D01*
X142707963Y-93663373D01*
X142725359Y-93840000D01*
X142707963Y-94016627D01*
X142656443Y-94186466D01*
X142572778Y-94342991D01*
X142543448Y-94378729D01*
X142460186Y-94480186D01*
X142358729Y-94563448D01*
X142322991Y-94592778D01*
X142322989Y-94592779D01*
X142185177Y-94666442D01*
X142166466Y-94676443D01*
X141996627Y-94727963D01*
X141930442Y-94734482D01*
X141864260Y-94741000D01*
X141775740Y-94741000D01*
X141709558Y-94734482D01*
X141643373Y-94727963D01*
X141473534Y-94676443D01*
X141454824Y-94666442D01*
X141317011Y-94592779D01*
X141317009Y-94592778D01*
X141281271Y-94563448D01*
X141179814Y-94480186D01*
X141096552Y-94378729D01*
X141067222Y-94342991D01*
X140983557Y-94186466D01*
X140932037Y-94016627D01*
X140914641Y-93840000D01*
X140932037Y-93663373D01*
X140983557Y-93493534D01*
X141067222Y-93337009D01*
X141096552Y-93301271D01*
X141179814Y-93199814D01*
X141281271Y-93116552D01*
X141317009Y-93087222D01*
X141473534Y-93003557D01*
X141643373Y-92952037D01*
X141709558Y-92945518D01*
X141775740Y-92939000D01*
X141864260Y-92939000D01*
X141930442Y-92945518D01*
X141930442Y-92945518D01*
G37*
G36*
X134310442Y-92945518D02*
G01*
X134376627Y-92952037D01*
X134546466Y-93003557D01*
X134702991Y-93087222D01*
X134738729Y-93116552D01*
X134840186Y-93199814D01*
X134923448Y-93301271D01*
X134952778Y-93337009D01*
X135036443Y-93493534D01*
X135087963Y-93663373D01*
X135105359Y-93840000D01*
X135087963Y-94016627D01*
X135036443Y-94186466D01*
X134952778Y-94342991D01*
X134923448Y-94378729D01*
X134840186Y-94480186D01*
X134738729Y-94563448D01*
X134702991Y-94592778D01*
X134702989Y-94592779D01*
X134565177Y-94666442D01*
X134546466Y-94676443D01*
X134376627Y-94727963D01*
X134310442Y-94734482D01*
X134244260Y-94741000D01*
X134155740Y-94741000D01*
X134089558Y-94734482D01*
X134023373Y-94727963D01*
X133853534Y-94676443D01*
X133834824Y-94666442D01*
X133697011Y-94592779D01*
X133697009Y-94592778D01*
X133661271Y-94563448D01*
X133559814Y-94480186D01*
X133476552Y-94378729D01*
X133447222Y-94342991D01*
X133363557Y-94186466D01*
X133312037Y-94016627D01*
X133294641Y-93840000D01*
X133312037Y-93663373D01*
X133363557Y-93493534D01*
X133447222Y-93337009D01*
X133476552Y-93301271D01*
X133559814Y-93199814D01*
X133661271Y-93116552D01*
X133697009Y-93087222D01*
X133853534Y-93003557D01*
X134023373Y-92952037D01*
X134089558Y-92945518D01*
X134155740Y-92939000D01*
X134244260Y-92939000D01*
X134310442Y-92945518D01*
X134310442Y-92945518D01*
G37*
G36*
X152081283Y-92935519D02*
G01*
X152147467Y-92942037D01*
X152317306Y-92993557D01*
X152317308Y-92993558D01*
X152395569Y-93035390D01*
X152473831Y-93077222D01*
X152509569Y-93106552D01*
X152611026Y-93189814D01*
X152694288Y-93291271D01*
X152723618Y-93327009D01*
X152807283Y-93483534D01*
X152858803Y-93653373D01*
X152876199Y-93830000D01*
X152858803Y-94006627D01*
X152807283Y-94176466D01*
X152723618Y-94332991D01*
X152715411Y-94342991D01*
X152611026Y-94470186D01*
X152509569Y-94553448D01*
X152473831Y-94582778D01*
X152317306Y-94666443D01*
X152147467Y-94717963D01*
X152081282Y-94724482D01*
X152015100Y-94731000D01*
X151926580Y-94731000D01*
X151860398Y-94724482D01*
X151794213Y-94717963D01*
X151624374Y-94666443D01*
X151467849Y-94582778D01*
X151432111Y-94553448D01*
X151330654Y-94470186D01*
X151226269Y-94342991D01*
X151218062Y-94332991D01*
X151134397Y-94176466D01*
X151082877Y-94006627D01*
X151065481Y-93830000D01*
X151082877Y-93653373D01*
X151134397Y-93483534D01*
X151218062Y-93327009D01*
X151247392Y-93291271D01*
X151330654Y-93189814D01*
X151432111Y-93106552D01*
X151467849Y-93077222D01*
X151546111Y-93035390D01*
X151624372Y-92993558D01*
X151624374Y-92993557D01*
X151794213Y-92942037D01*
X151860397Y-92935519D01*
X151926580Y-92929000D01*
X152015100Y-92929000D01*
X152081283Y-92935519D01*
X152081283Y-92935519D01*
G37*
G36*
X115281000Y-94151000D02*
G01*
X114179000Y-94151000D01*
X114179000Y-90899000D01*
X115281000Y-90899000D01*
X115281000Y-94151000D01*
X115281000Y-94151000D01*
G37*
G36*
X117821000Y-94151000D02*
G01*
X116719000Y-94151000D01*
X116719000Y-90899000D01*
X117821000Y-90899000D01*
X117821000Y-94151000D01*
X117821000Y-94151000D01*
G37*
G36*
X167330443Y-90405519D02*
G01*
X167396627Y-90412037D01*
X167566466Y-90463557D01*
X167722991Y-90547222D01*
X167752909Y-90571775D01*
X167860186Y-90659814D01*
X167943448Y-90761271D01*
X167972778Y-90797009D01*
X168056443Y-90953534D01*
X168107963Y-91123373D01*
X168125359Y-91300000D01*
X168107963Y-91476627D01*
X168056443Y-91646466D01*
X167972778Y-91802991D01*
X167943728Y-91838388D01*
X167860186Y-91940186D01*
X167758729Y-92023448D01*
X167722991Y-92052778D01*
X167566466Y-92136443D01*
X167396627Y-92187963D01*
X167352145Y-92192344D01*
X167264260Y-92201000D01*
X167175740Y-92201000D01*
X167087855Y-92192344D01*
X167043373Y-92187963D01*
X166873534Y-92136443D01*
X166717009Y-92052778D01*
X166681271Y-92023448D01*
X166579814Y-91940186D01*
X166496272Y-91838388D01*
X166467222Y-91802991D01*
X166383557Y-91646466D01*
X166332037Y-91476627D01*
X166314641Y-91300000D01*
X166332037Y-91123373D01*
X166383557Y-90953534D01*
X166467222Y-90797009D01*
X166496552Y-90761271D01*
X166579814Y-90659814D01*
X166687091Y-90571775D01*
X166717009Y-90547222D01*
X166873534Y-90463557D01*
X167043373Y-90412037D01*
X167109557Y-90405519D01*
X167175740Y-90399000D01*
X167264260Y-90399000D01*
X167330443Y-90405519D01*
X167330443Y-90405519D01*
G37*
G36*
X170348578Y-90407048D02*
G01*
X170421249Y-90429093D01*
X170488225Y-90464892D01*
X170546930Y-90513070D01*
X170595108Y-90571775D01*
X170630907Y-90638751D01*
X170652952Y-90711422D01*
X170661000Y-90793140D01*
X170661000Y-91806860D01*
X170652952Y-91888578D01*
X170630907Y-91961249D01*
X170595108Y-92028225D01*
X170546930Y-92086930D01*
X170488225Y-92135108D01*
X170421249Y-92170907D01*
X170348578Y-92192952D01*
X170266860Y-92201000D01*
X169253140Y-92201000D01*
X169171422Y-92192952D01*
X169098751Y-92170907D01*
X169031775Y-92135108D01*
X168973070Y-92086930D01*
X168924892Y-92028225D01*
X168889093Y-91961249D01*
X168867048Y-91888578D01*
X168859000Y-91806860D01*
X168859000Y-90793140D01*
X168867048Y-90711422D01*
X168889093Y-90638751D01*
X168924892Y-90571775D01*
X168973070Y-90513070D01*
X169031775Y-90464892D01*
X169098751Y-90429093D01*
X169171422Y-90407048D01*
X169253140Y-90399000D01*
X170266860Y-90399000D01*
X170348578Y-90407048D01*
X170348578Y-90407048D01*
G37*
G36*
X164790443Y-90405519D02*
G01*
X164856627Y-90412037D01*
X165026466Y-90463557D01*
X165182991Y-90547222D01*
X165212909Y-90571775D01*
X165320186Y-90659814D01*
X165403448Y-90761271D01*
X165432778Y-90797009D01*
X165516443Y-90953534D01*
X165567963Y-91123373D01*
X165585359Y-91300000D01*
X165567963Y-91476627D01*
X165516443Y-91646466D01*
X165432778Y-91802991D01*
X165403728Y-91838388D01*
X165320186Y-91940186D01*
X165218729Y-92023448D01*
X165182991Y-92052778D01*
X165026466Y-92136443D01*
X164856627Y-92187963D01*
X164812145Y-92192344D01*
X164724260Y-92201000D01*
X164635740Y-92201000D01*
X164547855Y-92192344D01*
X164503373Y-92187963D01*
X164333534Y-92136443D01*
X164177009Y-92052778D01*
X164141271Y-92023448D01*
X164039814Y-91940186D01*
X163956272Y-91838388D01*
X163927222Y-91802991D01*
X163843557Y-91646466D01*
X163792037Y-91476627D01*
X163774641Y-91300000D01*
X163792037Y-91123373D01*
X163843557Y-90953534D01*
X163927222Y-90797009D01*
X163956552Y-90761271D01*
X164039814Y-90659814D01*
X164147091Y-90571775D01*
X164177009Y-90547222D01*
X164333534Y-90463557D01*
X164503373Y-90412037D01*
X164569557Y-90405519D01*
X164635740Y-90399000D01*
X164724260Y-90399000D01*
X164790443Y-90405519D01*
X164790443Y-90405519D01*
G37*
G36*
X162250443Y-90405519D02*
G01*
X162316627Y-90412037D01*
X162486466Y-90463557D01*
X162642991Y-90547222D01*
X162672909Y-90571775D01*
X162780186Y-90659814D01*
X162863448Y-90761271D01*
X162892778Y-90797009D01*
X162976443Y-90953534D01*
X163027963Y-91123373D01*
X163045359Y-91300000D01*
X163027963Y-91476627D01*
X162976443Y-91646466D01*
X162892778Y-91802991D01*
X162863728Y-91838388D01*
X162780186Y-91940186D01*
X162678729Y-92023448D01*
X162642991Y-92052778D01*
X162486466Y-92136443D01*
X162316627Y-92187963D01*
X162272145Y-92192344D01*
X162184260Y-92201000D01*
X162095740Y-92201000D01*
X162007855Y-92192344D01*
X161963373Y-92187963D01*
X161793534Y-92136443D01*
X161637009Y-92052778D01*
X161601271Y-92023448D01*
X161499814Y-91940186D01*
X161416272Y-91838388D01*
X161387222Y-91802991D01*
X161303557Y-91646466D01*
X161252037Y-91476627D01*
X161234641Y-91300000D01*
X161252037Y-91123373D01*
X161303557Y-90953534D01*
X161387222Y-90797009D01*
X161416552Y-90761271D01*
X161499814Y-90659814D01*
X161607091Y-90571775D01*
X161637009Y-90547222D01*
X161793534Y-90463557D01*
X161963373Y-90412037D01*
X162029557Y-90405519D01*
X162095740Y-90399000D01*
X162184260Y-90399000D01*
X162250443Y-90405519D01*
X162250443Y-90405519D01*
G37*
G36*
X159710443Y-90405519D02*
G01*
X159776627Y-90412037D01*
X159946466Y-90463557D01*
X160102991Y-90547222D01*
X160132909Y-90571775D01*
X160240186Y-90659814D01*
X160323448Y-90761271D01*
X160352778Y-90797009D01*
X160436443Y-90953534D01*
X160487963Y-91123373D01*
X160505359Y-91300000D01*
X160487963Y-91476627D01*
X160436443Y-91646466D01*
X160352778Y-91802991D01*
X160323728Y-91838388D01*
X160240186Y-91940186D01*
X160138729Y-92023448D01*
X160102991Y-92052778D01*
X159946466Y-92136443D01*
X159776627Y-92187963D01*
X159732145Y-92192344D01*
X159644260Y-92201000D01*
X159555740Y-92201000D01*
X159467855Y-92192344D01*
X159423373Y-92187963D01*
X159253534Y-92136443D01*
X159097009Y-92052778D01*
X159061271Y-92023448D01*
X158959814Y-91940186D01*
X158876272Y-91838388D01*
X158847222Y-91802991D01*
X158763557Y-91646466D01*
X158712037Y-91476627D01*
X158694641Y-91300000D01*
X158712037Y-91123373D01*
X158763557Y-90953534D01*
X158847222Y-90797009D01*
X158876552Y-90761271D01*
X158959814Y-90659814D01*
X159067091Y-90571775D01*
X159097009Y-90547222D01*
X159253534Y-90463557D01*
X159423373Y-90412037D01*
X159489557Y-90405519D01*
X159555740Y-90399000D01*
X159644260Y-90399000D01*
X159710443Y-90405519D01*
X159710443Y-90405519D01*
G37*
G36*
X157170443Y-90405519D02*
G01*
X157236627Y-90412037D01*
X157406466Y-90463557D01*
X157562991Y-90547222D01*
X157592909Y-90571775D01*
X157700186Y-90659814D01*
X157783448Y-90761271D01*
X157812778Y-90797009D01*
X157896443Y-90953534D01*
X157947963Y-91123373D01*
X157965359Y-91300000D01*
X157947963Y-91476627D01*
X157896443Y-91646466D01*
X157812778Y-91802991D01*
X157783728Y-91838388D01*
X157700186Y-91940186D01*
X157598729Y-92023448D01*
X157562991Y-92052778D01*
X157406466Y-92136443D01*
X157236627Y-92187963D01*
X157192145Y-92192344D01*
X157104260Y-92201000D01*
X157015740Y-92201000D01*
X156927855Y-92192344D01*
X156883373Y-92187963D01*
X156713534Y-92136443D01*
X156557009Y-92052778D01*
X156521271Y-92023448D01*
X156419814Y-91940186D01*
X156336272Y-91838388D01*
X156307222Y-91802991D01*
X156223557Y-91646466D01*
X156172037Y-91476627D01*
X156154641Y-91300000D01*
X156172037Y-91123373D01*
X156223557Y-90953534D01*
X156307222Y-90797009D01*
X156336552Y-90761271D01*
X156419814Y-90659814D01*
X156527091Y-90571775D01*
X156557009Y-90547222D01*
X156713534Y-90463557D01*
X156883373Y-90412037D01*
X156949557Y-90405519D01*
X157015740Y-90399000D01*
X157104260Y-90399000D01*
X157170443Y-90405519D01*
X157170443Y-90405519D01*
G37*
G36*
X144470443Y-90405519D02*
G01*
X144536627Y-90412037D01*
X144706466Y-90463557D01*
X144862991Y-90547222D01*
X144892909Y-90571775D01*
X145000186Y-90659814D01*
X145083448Y-90761271D01*
X145112778Y-90797009D01*
X145196443Y-90953534D01*
X145247963Y-91123373D01*
X145265359Y-91300000D01*
X145247963Y-91476627D01*
X145196443Y-91646466D01*
X145112778Y-91802991D01*
X145083728Y-91838388D01*
X145000186Y-91940186D01*
X144898729Y-92023448D01*
X144862991Y-92052778D01*
X144706466Y-92136443D01*
X144536627Y-92187963D01*
X144492145Y-92192344D01*
X144404260Y-92201000D01*
X144315740Y-92201000D01*
X144227855Y-92192344D01*
X144183373Y-92187963D01*
X144013534Y-92136443D01*
X143857009Y-92052778D01*
X143821271Y-92023448D01*
X143719814Y-91940186D01*
X143636272Y-91838388D01*
X143607222Y-91802991D01*
X143523557Y-91646466D01*
X143472037Y-91476627D01*
X143454641Y-91300000D01*
X143472037Y-91123373D01*
X143523557Y-90953534D01*
X143607222Y-90797009D01*
X143636552Y-90761271D01*
X143719814Y-90659814D01*
X143827091Y-90571775D01*
X143857009Y-90547222D01*
X144013534Y-90463557D01*
X144183373Y-90412037D01*
X144249557Y-90405519D01*
X144315740Y-90399000D01*
X144404260Y-90399000D01*
X144470443Y-90405519D01*
X144470443Y-90405519D01*
G37*
G36*
X147488578Y-90407048D02*
G01*
X147561249Y-90429093D01*
X147628225Y-90464892D01*
X147686930Y-90513070D01*
X147735108Y-90571775D01*
X147770907Y-90638751D01*
X147792952Y-90711422D01*
X147801000Y-90793140D01*
X147801000Y-91806860D01*
X147792952Y-91888578D01*
X147770907Y-91961249D01*
X147735108Y-92028225D01*
X147686930Y-92086930D01*
X147628225Y-92135108D01*
X147561249Y-92170907D01*
X147488578Y-92192952D01*
X147406860Y-92201000D01*
X146393140Y-92201000D01*
X146311422Y-92192952D01*
X146238751Y-92170907D01*
X146171775Y-92135108D01*
X146113070Y-92086930D01*
X146064892Y-92028225D01*
X146029093Y-91961249D01*
X146007048Y-91888578D01*
X145999000Y-91806860D01*
X145999000Y-90793140D01*
X146007048Y-90711422D01*
X146029093Y-90638751D01*
X146064892Y-90571775D01*
X146113070Y-90513070D01*
X146171775Y-90464892D01*
X146238751Y-90429093D01*
X146311422Y-90407048D01*
X146393140Y-90399000D01*
X147406860Y-90399000D01*
X147488578Y-90407048D01*
X147488578Y-90407048D01*
G37*
G36*
X139390443Y-90405519D02*
G01*
X139456627Y-90412037D01*
X139626466Y-90463557D01*
X139782991Y-90547222D01*
X139812909Y-90571775D01*
X139920186Y-90659814D01*
X140003448Y-90761271D01*
X140032778Y-90797009D01*
X140116443Y-90953534D01*
X140167963Y-91123373D01*
X140185359Y-91300000D01*
X140167963Y-91476627D01*
X140116443Y-91646466D01*
X140032778Y-91802991D01*
X140003728Y-91838388D01*
X139920186Y-91940186D01*
X139818729Y-92023448D01*
X139782991Y-92052778D01*
X139626466Y-92136443D01*
X139456627Y-92187963D01*
X139412145Y-92192344D01*
X139324260Y-92201000D01*
X139235740Y-92201000D01*
X139147855Y-92192344D01*
X139103373Y-92187963D01*
X138933534Y-92136443D01*
X138777009Y-92052778D01*
X138741271Y-92023448D01*
X138639814Y-91940186D01*
X138556272Y-91838388D01*
X138527222Y-91802991D01*
X138443557Y-91646466D01*
X138392037Y-91476627D01*
X138374641Y-91300000D01*
X138392037Y-91123373D01*
X138443557Y-90953534D01*
X138527222Y-90797009D01*
X138556552Y-90761271D01*
X138639814Y-90659814D01*
X138747091Y-90571775D01*
X138777009Y-90547222D01*
X138933534Y-90463557D01*
X139103373Y-90412037D01*
X139169557Y-90405519D01*
X139235740Y-90399000D01*
X139324260Y-90399000D01*
X139390443Y-90405519D01*
X139390443Y-90405519D01*
G37*
G36*
X134310443Y-90405519D02*
G01*
X134376627Y-90412037D01*
X134546466Y-90463557D01*
X134702991Y-90547222D01*
X134732909Y-90571775D01*
X134840186Y-90659814D01*
X134923448Y-90761271D01*
X134952778Y-90797009D01*
X135036443Y-90953534D01*
X135087963Y-91123373D01*
X135105359Y-91300000D01*
X135087963Y-91476627D01*
X135036443Y-91646466D01*
X134952778Y-91802991D01*
X134923728Y-91838388D01*
X134840186Y-91940186D01*
X134738729Y-92023448D01*
X134702991Y-92052778D01*
X134546466Y-92136443D01*
X134376627Y-92187963D01*
X134332145Y-92192344D01*
X134244260Y-92201000D01*
X134155740Y-92201000D01*
X134067855Y-92192344D01*
X134023373Y-92187963D01*
X133853534Y-92136443D01*
X133697009Y-92052778D01*
X133661271Y-92023448D01*
X133559814Y-91940186D01*
X133476272Y-91838388D01*
X133447222Y-91802991D01*
X133363557Y-91646466D01*
X133312037Y-91476627D01*
X133294641Y-91300000D01*
X133312037Y-91123373D01*
X133363557Y-90953534D01*
X133447222Y-90797009D01*
X133476552Y-90761271D01*
X133559814Y-90659814D01*
X133667091Y-90571775D01*
X133697009Y-90547222D01*
X133853534Y-90463557D01*
X134023373Y-90412037D01*
X134089557Y-90405519D01*
X134155740Y-90399000D01*
X134244260Y-90399000D01*
X134310443Y-90405519D01*
X134310443Y-90405519D01*
G37*
G36*
X136850443Y-90405519D02*
G01*
X136916627Y-90412037D01*
X137086466Y-90463557D01*
X137242991Y-90547222D01*
X137272909Y-90571775D01*
X137380186Y-90659814D01*
X137463448Y-90761271D01*
X137492778Y-90797009D01*
X137576443Y-90953534D01*
X137627963Y-91123373D01*
X137645359Y-91300000D01*
X137627963Y-91476627D01*
X137576443Y-91646466D01*
X137492778Y-91802991D01*
X137463728Y-91838388D01*
X137380186Y-91940186D01*
X137278729Y-92023448D01*
X137242991Y-92052778D01*
X137086466Y-92136443D01*
X136916627Y-92187963D01*
X136872145Y-92192344D01*
X136784260Y-92201000D01*
X136695740Y-92201000D01*
X136607855Y-92192344D01*
X136563373Y-92187963D01*
X136393534Y-92136443D01*
X136237009Y-92052778D01*
X136201271Y-92023448D01*
X136099814Y-91940186D01*
X136016272Y-91838388D01*
X135987222Y-91802991D01*
X135903557Y-91646466D01*
X135852037Y-91476627D01*
X135834641Y-91300000D01*
X135852037Y-91123373D01*
X135903557Y-90953534D01*
X135987222Y-90797009D01*
X136016552Y-90761271D01*
X136099814Y-90659814D01*
X136207091Y-90571775D01*
X136237009Y-90547222D01*
X136393534Y-90463557D01*
X136563373Y-90412037D01*
X136629557Y-90405519D01*
X136695740Y-90399000D01*
X136784260Y-90399000D01*
X136850443Y-90405519D01*
X136850443Y-90405519D01*
G37*
G36*
X141930443Y-90405519D02*
G01*
X141996627Y-90412037D01*
X142166466Y-90463557D01*
X142322991Y-90547222D01*
X142352909Y-90571775D01*
X142460186Y-90659814D01*
X142543448Y-90761271D01*
X142572778Y-90797009D01*
X142656443Y-90953534D01*
X142707963Y-91123373D01*
X142725359Y-91300000D01*
X142707963Y-91476627D01*
X142656443Y-91646466D01*
X142572778Y-91802991D01*
X142543728Y-91838388D01*
X142460186Y-91940186D01*
X142358729Y-92023448D01*
X142322991Y-92052778D01*
X142166466Y-92136443D01*
X141996627Y-92187963D01*
X141952145Y-92192344D01*
X141864260Y-92201000D01*
X141775740Y-92201000D01*
X141687855Y-92192344D01*
X141643373Y-92187963D01*
X141473534Y-92136443D01*
X141317009Y-92052778D01*
X141281271Y-92023448D01*
X141179814Y-91940186D01*
X141096272Y-91838388D01*
X141067222Y-91802991D01*
X140983557Y-91646466D01*
X140932037Y-91476627D01*
X140914641Y-91300000D01*
X140932037Y-91123373D01*
X140983557Y-90953534D01*
X141067222Y-90797009D01*
X141096552Y-90761271D01*
X141179814Y-90659814D01*
X141287091Y-90571775D01*
X141317009Y-90547222D01*
X141473534Y-90463557D01*
X141643373Y-90412037D01*
X141709557Y-90405519D01*
X141775740Y-90399000D01*
X141864260Y-90399000D01*
X141930443Y-90405519D01*
X141930443Y-90405519D01*
G37*
G36*
X152871840Y-92191000D02*
G01*
X151069840Y-92191000D01*
X151069840Y-90389000D01*
X152871840Y-90389000D01*
X152871840Y-92191000D01*
X152871840Y-92191000D01*
G37*
G36*
X115281000Y-89101000D02*
G01*
X114179000Y-89101000D01*
X114179000Y-85849000D01*
X115281000Y-85849000D01*
X115281000Y-89101000D01*
X115281000Y-89101000D01*
G37*
G36*
X117821000Y-89101000D02*
G01*
X116719000Y-89101000D01*
X116719000Y-85849000D01*
X117821000Y-85849000D01*
X117821000Y-89101000D01*
X117821000Y-89101000D01*
G37*
G36*
X130386938Y-86731716D02*
G01*
X130407557Y-86737971D01*
X130426553Y-86748124D01*
X130443208Y-86761792D01*
X130456876Y-86778447D01*
X130467029Y-86797443D01*
X130473284Y-86818062D01*
X130476000Y-86845640D01*
X130476000Y-87354360D01*
X130473284Y-87381938D01*
X130467029Y-87402557D01*
X130456876Y-87421553D01*
X130443208Y-87438208D01*
X130426553Y-87451876D01*
X130407557Y-87462029D01*
X130386938Y-87468284D01*
X130359360Y-87471000D01*
X129900640Y-87471000D01*
X129873062Y-87468284D01*
X129852443Y-87462029D01*
X129833447Y-87451876D01*
X129816792Y-87438208D01*
X129803124Y-87421553D01*
X129792971Y-87402557D01*
X129786716Y-87381938D01*
X129784000Y-87354360D01*
X129784000Y-86845640D01*
X129786716Y-86818062D01*
X129792971Y-86797443D01*
X129803124Y-86778447D01*
X129816792Y-86761792D01*
X129833447Y-86748124D01*
X129852443Y-86737971D01*
X129873062Y-86731716D01*
X129900640Y-86729000D01*
X130359360Y-86729000D01*
X130386938Y-86731716D01*
X130386938Y-86731716D01*
G37*
G36*
X132326938Y-86731716D02*
G01*
X132347557Y-86737971D01*
X132366553Y-86748124D01*
X132383208Y-86761792D01*
X132396876Y-86778447D01*
X132407029Y-86797443D01*
X132413284Y-86818062D01*
X132416000Y-86845640D01*
X132416000Y-87354360D01*
X132413284Y-87381938D01*
X132407029Y-87402557D01*
X132396876Y-87421553D01*
X132383208Y-87438208D01*
X132366553Y-87451876D01*
X132347557Y-87462029D01*
X132326938Y-87468284D01*
X132299360Y-87471000D01*
X131840640Y-87471000D01*
X131813062Y-87468284D01*
X131792443Y-87462029D01*
X131773447Y-87451876D01*
X131756792Y-87438208D01*
X131743124Y-87421553D01*
X131732971Y-87402557D01*
X131726716Y-87381938D01*
X131724000Y-87354360D01*
X131724000Y-86845640D01*
X131726716Y-86818062D01*
X131732971Y-86797443D01*
X131743124Y-86778447D01*
X131756792Y-86761792D01*
X131773447Y-86748124D01*
X131792443Y-86737971D01*
X131813062Y-86731716D01*
X131840640Y-86729000D01*
X132299360Y-86729000D01*
X132326938Y-86731716D01*
X132326938Y-86731716D01*
G37*
G36*
X131356938Y-86731716D02*
G01*
X131377557Y-86737971D01*
X131396553Y-86748124D01*
X131413208Y-86761792D01*
X131426876Y-86778447D01*
X131437029Y-86797443D01*
X131443284Y-86818062D01*
X131446000Y-86845640D01*
X131446000Y-87354360D01*
X131443284Y-87381938D01*
X131437029Y-87402557D01*
X131426876Y-87421553D01*
X131413208Y-87438208D01*
X131396553Y-87451876D01*
X131377557Y-87462029D01*
X131356938Y-87468284D01*
X131329360Y-87471000D01*
X130870640Y-87471000D01*
X130843062Y-87468284D01*
X130822443Y-87462029D01*
X130803447Y-87451876D01*
X130786792Y-87438208D01*
X130773124Y-87421553D01*
X130762971Y-87402557D01*
X130756716Y-87381938D01*
X130754000Y-87354360D01*
X130754000Y-86845640D01*
X130756716Y-86818062D01*
X130762971Y-86797443D01*
X130773124Y-86778447D01*
X130786792Y-86761792D01*
X130803447Y-86748124D01*
X130822443Y-86737971D01*
X130843062Y-86731716D01*
X130870640Y-86729000D01*
X131329360Y-86729000D01*
X131356938Y-86731716D01*
X131356938Y-86731716D01*
G37*
G36*
X132326938Y-85531716D02*
G01*
X132347557Y-85537971D01*
X132366553Y-85548124D01*
X132383208Y-85561792D01*
X132396876Y-85578447D01*
X132407029Y-85597443D01*
X132413284Y-85618062D01*
X132416000Y-85645640D01*
X132416000Y-86154360D01*
X132413284Y-86181938D01*
X132407029Y-86202557D01*
X132396876Y-86221553D01*
X132383208Y-86238208D01*
X132366553Y-86251876D01*
X132347557Y-86262029D01*
X132326938Y-86268284D01*
X132299360Y-86271000D01*
X131840640Y-86271000D01*
X131813062Y-86268284D01*
X131792443Y-86262029D01*
X131773447Y-86251876D01*
X131756792Y-86238208D01*
X131743124Y-86221553D01*
X131732971Y-86202557D01*
X131726716Y-86181938D01*
X131724000Y-86154360D01*
X131724000Y-85645640D01*
X131726716Y-85618062D01*
X131732971Y-85597443D01*
X131743124Y-85578447D01*
X131756792Y-85561792D01*
X131773447Y-85548124D01*
X131792443Y-85537971D01*
X131813062Y-85531716D01*
X131840640Y-85529000D01*
X132299360Y-85529000D01*
X132326938Y-85531716D01*
X132326938Y-85531716D01*
G37*
G36*
X131356938Y-85531716D02*
G01*
X131377557Y-85537971D01*
X131396553Y-85548124D01*
X131413208Y-85561792D01*
X131426876Y-85578447D01*
X131437029Y-85597443D01*
X131443284Y-85618062D01*
X131446000Y-85645640D01*
X131446000Y-86154360D01*
X131443284Y-86181938D01*
X131437029Y-86202557D01*
X131426876Y-86221553D01*
X131413208Y-86238208D01*
X131396553Y-86251876D01*
X131377557Y-86262029D01*
X131356938Y-86268284D01*
X131329360Y-86271000D01*
X130870640Y-86271000D01*
X130843062Y-86268284D01*
X130822443Y-86262029D01*
X130803447Y-86251876D01*
X130786792Y-86238208D01*
X130773124Y-86221553D01*
X130762971Y-86202557D01*
X130756716Y-86181938D01*
X130754000Y-86154360D01*
X130754000Y-85645640D01*
X130756716Y-85618062D01*
X130762971Y-85597443D01*
X130773124Y-85578447D01*
X130786792Y-85561792D01*
X130803447Y-85548124D01*
X130822443Y-85537971D01*
X130843062Y-85531716D01*
X130870640Y-85529000D01*
X131329360Y-85529000D01*
X131356938Y-85531716D01*
X131356938Y-85531716D01*
G37*
G36*
X130386938Y-85531716D02*
G01*
X130407557Y-85537971D01*
X130426553Y-85548124D01*
X130443208Y-85561792D01*
X130456876Y-85578447D01*
X130467029Y-85597443D01*
X130473284Y-85618062D01*
X130476000Y-85645640D01*
X130476000Y-86154360D01*
X130473284Y-86181938D01*
X130467029Y-86202557D01*
X130456876Y-86221553D01*
X130443208Y-86238208D01*
X130426553Y-86251876D01*
X130407557Y-86262029D01*
X130386938Y-86268284D01*
X130359360Y-86271000D01*
X129900640Y-86271000D01*
X129873062Y-86268284D01*
X129852443Y-86262029D01*
X129833447Y-86251876D01*
X129816792Y-86238208D01*
X129803124Y-86221553D01*
X129792971Y-86202557D01*
X129786716Y-86181938D01*
X129784000Y-86154360D01*
X129784000Y-85645640D01*
X129786716Y-85618062D01*
X129792971Y-85597443D01*
X129803124Y-85578447D01*
X129816792Y-85561792D01*
X129833447Y-85548124D01*
X129852443Y-85537971D01*
X129873062Y-85531716D01*
X129900640Y-85529000D01*
X130359360Y-85529000D01*
X130386938Y-85531716D01*
X130386938Y-85531716D01*
G37*
G36*
X130386938Y-84331716D02*
G01*
X130407557Y-84337971D01*
X130426553Y-84348124D01*
X130443208Y-84361792D01*
X130456876Y-84378447D01*
X130467029Y-84397443D01*
X130473284Y-84418062D01*
X130476000Y-84445640D01*
X130476000Y-84954360D01*
X130473284Y-84981938D01*
X130467029Y-85002557D01*
X130456876Y-85021553D01*
X130443208Y-85038208D01*
X130426553Y-85051876D01*
X130407557Y-85062029D01*
X130386938Y-85068284D01*
X130359360Y-85071000D01*
X129900640Y-85071000D01*
X129873062Y-85068284D01*
X129852443Y-85062029D01*
X129833447Y-85051876D01*
X129816792Y-85038208D01*
X129803124Y-85021553D01*
X129792971Y-85002557D01*
X129786716Y-84981938D01*
X129784000Y-84954360D01*
X129784000Y-84445640D01*
X129786716Y-84418062D01*
X129792971Y-84397443D01*
X129803124Y-84378447D01*
X129816792Y-84361792D01*
X129833447Y-84348124D01*
X129852443Y-84337971D01*
X129873062Y-84331716D01*
X129900640Y-84329000D01*
X130359360Y-84329000D01*
X130386938Y-84331716D01*
X130386938Y-84331716D01*
G37*
G36*
X131356938Y-84331716D02*
G01*
X131377557Y-84337971D01*
X131396553Y-84348124D01*
X131413208Y-84361792D01*
X131426876Y-84378447D01*
X131437029Y-84397443D01*
X131443284Y-84418062D01*
X131446000Y-84445640D01*
X131446000Y-84954360D01*
X131443284Y-84981938D01*
X131437029Y-85002557D01*
X131426876Y-85021553D01*
X131413208Y-85038208D01*
X131396553Y-85051876D01*
X131377557Y-85062029D01*
X131356938Y-85068284D01*
X131329360Y-85071000D01*
X130870640Y-85071000D01*
X130843062Y-85068284D01*
X130822443Y-85062029D01*
X130803447Y-85051876D01*
X130786792Y-85038208D01*
X130773124Y-85021553D01*
X130762971Y-85002557D01*
X130756716Y-84981938D01*
X130754000Y-84954360D01*
X130754000Y-84445640D01*
X130756716Y-84418062D01*
X130762971Y-84397443D01*
X130773124Y-84378447D01*
X130786792Y-84361792D01*
X130803447Y-84348124D01*
X130822443Y-84337971D01*
X130843062Y-84331716D01*
X130870640Y-84329000D01*
X131329360Y-84329000D01*
X131356938Y-84331716D01*
X131356938Y-84331716D01*
G37*
G36*
X132326938Y-84331716D02*
G01*
X132347557Y-84337971D01*
X132366553Y-84348124D01*
X132383208Y-84361792D01*
X132396876Y-84378447D01*
X132407029Y-84397443D01*
X132413284Y-84418062D01*
X132416000Y-84445640D01*
X132416000Y-84954360D01*
X132413284Y-84981938D01*
X132407029Y-85002557D01*
X132396876Y-85021553D01*
X132383208Y-85038208D01*
X132366553Y-85051876D01*
X132347557Y-85062029D01*
X132326938Y-85068284D01*
X132299360Y-85071000D01*
X131840640Y-85071000D01*
X131813062Y-85068284D01*
X131792443Y-85062029D01*
X131773447Y-85051876D01*
X131756792Y-85038208D01*
X131743124Y-85021553D01*
X131732971Y-85002557D01*
X131726716Y-84981938D01*
X131724000Y-84954360D01*
X131724000Y-84445640D01*
X131726716Y-84418062D01*
X131732971Y-84397443D01*
X131743124Y-84378447D01*
X131756792Y-84361792D01*
X131773447Y-84348124D01*
X131792443Y-84337971D01*
X131813062Y-84331716D01*
X131840640Y-84329000D01*
X132299360Y-84329000D01*
X132326938Y-84331716D01*
X132326938Y-84331716D01*
G37*
G36*
X174950443Y-82455519D02*
G01*
X175016627Y-82462037D01*
X175186466Y-82513557D01*
X175342991Y-82597222D01*
X175378729Y-82626552D01*
X175480186Y-82709814D01*
X175563448Y-82811271D01*
X175592778Y-82847009D01*
X175676443Y-83003534D01*
X175727963Y-83173373D01*
X175745359Y-83350000D01*
X175727963Y-83526627D01*
X175676443Y-83696466D01*
X175592778Y-83852991D01*
X175563448Y-83888729D01*
X175480186Y-83990186D01*
X175378729Y-84073448D01*
X175342991Y-84102778D01*
X175186466Y-84186443D01*
X175016627Y-84237963D01*
X174950442Y-84244482D01*
X174884260Y-84251000D01*
X174795740Y-84251000D01*
X174729558Y-84244482D01*
X174663373Y-84237963D01*
X174493534Y-84186443D01*
X174337009Y-84102778D01*
X174301271Y-84073448D01*
X174199814Y-83990186D01*
X174116552Y-83888729D01*
X174087222Y-83852991D01*
X174003557Y-83696466D01*
X173952037Y-83526627D01*
X173934641Y-83350000D01*
X173952037Y-83173373D01*
X174003557Y-83003534D01*
X174087222Y-82847009D01*
X174116552Y-82811271D01*
X174199814Y-82709814D01*
X174301271Y-82626552D01*
X174337009Y-82597222D01*
X174493534Y-82513557D01*
X174663373Y-82462037D01*
X174729557Y-82455519D01*
X174795740Y-82449000D01*
X174884260Y-82449000D01*
X174950443Y-82455519D01*
X174950443Y-82455519D01*
G37*
G36*
X172410443Y-82455519D02*
G01*
X172476627Y-82462037D01*
X172646466Y-82513557D01*
X172802991Y-82597222D01*
X172838729Y-82626552D01*
X172940186Y-82709814D01*
X173023448Y-82811271D01*
X173052778Y-82847009D01*
X173136443Y-83003534D01*
X173187963Y-83173373D01*
X173205359Y-83350000D01*
X173187963Y-83526627D01*
X173136443Y-83696466D01*
X173052778Y-83852991D01*
X173023448Y-83888729D01*
X172940186Y-83990186D01*
X172838729Y-84073448D01*
X172802991Y-84102778D01*
X172646466Y-84186443D01*
X172476627Y-84237963D01*
X172410442Y-84244482D01*
X172344260Y-84251000D01*
X172255740Y-84251000D01*
X172189558Y-84244482D01*
X172123373Y-84237963D01*
X171953534Y-84186443D01*
X171797009Y-84102778D01*
X171761271Y-84073448D01*
X171659814Y-83990186D01*
X171576552Y-83888729D01*
X171547222Y-83852991D01*
X171463557Y-83696466D01*
X171412037Y-83526627D01*
X171394641Y-83350000D01*
X171412037Y-83173373D01*
X171463557Y-83003534D01*
X171547222Y-82847009D01*
X171576552Y-82811271D01*
X171659814Y-82709814D01*
X171761271Y-82626552D01*
X171797009Y-82597222D01*
X171953534Y-82513557D01*
X172123373Y-82462037D01*
X172189557Y-82455519D01*
X172255740Y-82449000D01*
X172344260Y-82449000D01*
X172410443Y-82455519D01*
X172410443Y-82455519D01*
G37*
G36*
X103238015Y-80776973D02*
G01*
X103341879Y-80808479D01*
X103361562Y-80819000D01*
X103437600Y-80859643D01*
X103521501Y-80928499D01*
X103590357Y-81012400D01*
X103626995Y-81080945D01*
X103641521Y-81108121D01*
X103673027Y-81211985D01*
X103683666Y-81320000D01*
X103673027Y-81428015D01*
X103641521Y-81531879D01*
X103641519Y-81531882D01*
X103590357Y-81627600D01*
X103521501Y-81711501D01*
X103437600Y-81780357D01*
X103375126Y-81813750D01*
X103341879Y-81831521D01*
X103238015Y-81863027D01*
X103157067Y-81871000D01*
X102502933Y-81871000D01*
X102421985Y-81863027D01*
X102318121Y-81831521D01*
X102284874Y-81813750D01*
X102222400Y-81780357D01*
X102138499Y-81711501D01*
X102069643Y-81627600D01*
X102018481Y-81531882D01*
X102018479Y-81531879D01*
X101986973Y-81428015D01*
X101976334Y-81320000D01*
X101986973Y-81211985D01*
X102018479Y-81108121D01*
X102033005Y-81080945D01*
X102069643Y-81012400D01*
X102138499Y-80928499D01*
X102222400Y-80859643D01*
X102298438Y-80819000D01*
X102318121Y-80808479D01*
X102421985Y-80776973D01*
X102502933Y-80769000D01*
X103157067Y-80769000D01*
X103238015Y-80776973D01*
X103238015Y-80776973D01*
G37*
G36*
X107708213Y-80826249D02*
G01*
X107802652Y-80854897D01*
X107889687Y-80901418D01*
X107965975Y-80964025D01*
X108028582Y-81040313D01*
X108075103Y-81127348D01*
X108103751Y-81221787D01*
X108113424Y-81320000D01*
X108103751Y-81418213D01*
X108075103Y-81512652D01*
X108028582Y-81599687D01*
X107965975Y-81675975D01*
X107889687Y-81738582D01*
X107802652Y-81785103D01*
X107708213Y-81813751D01*
X107634612Y-81821000D01*
X106385388Y-81821000D01*
X106311787Y-81813751D01*
X106217348Y-81785103D01*
X106130313Y-81738582D01*
X106054025Y-81675975D01*
X105991418Y-81599687D01*
X105944897Y-81512652D01*
X105916249Y-81418213D01*
X105906576Y-81320000D01*
X105916249Y-81221787D01*
X105944897Y-81127348D01*
X105991418Y-81040313D01*
X106054025Y-80964025D01*
X106130313Y-80901418D01*
X106217348Y-80854897D01*
X106311787Y-80826249D01*
X106385388Y-80819000D01*
X107634612Y-80819000D01*
X107708213Y-80826249D01*
X107708213Y-80826249D01*
G37*
G36*
X172410443Y-79915519D02*
G01*
X172476627Y-79922037D01*
X172646466Y-79973557D01*
X172802991Y-80057222D01*
X172804242Y-80058249D01*
X172940186Y-80169814D01*
X173019123Y-80266000D01*
X173052778Y-80307009D01*
X173136443Y-80463534D01*
X173187963Y-80633373D01*
X173205359Y-80810000D01*
X173187963Y-80986627D01*
X173136443Y-81156466D01*
X173052778Y-81312991D01*
X173023448Y-81348729D01*
X172940186Y-81450186D01*
X172842530Y-81530329D01*
X172802991Y-81562778D01*
X172646466Y-81646443D01*
X172476627Y-81697963D01*
X172410443Y-81704481D01*
X172344260Y-81711000D01*
X172255740Y-81711000D01*
X172189557Y-81704481D01*
X172123373Y-81697963D01*
X171953534Y-81646443D01*
X171797009Y-81562778D01*
X171757470Y-81530329D01*
X171659814Y-81450186D01*
X171576552Y-81348729D01*
X171547222Y-81312991D01*
X171463557Y-81156466D01*
X171412037Y-80986627D01*
X171394641Y-80810000D01*
X171412037Y-80633373D01*
X171463557Y-80463534D01*
X171547222Y-80307009D01*
X171580877Y-80266000D01*
X171659814Y-80169814D01*
X171795758Y-80058249D01*
X171797009Y-80057222D01*
X171953534Y-79973557D01*
X172123373Y-79922037D01*
X172189557Y-79915519D01*
X172255740Y-79909000D01*
X172344260Y-79909000D01*
X172410443Y-79915519D01*
X172410443Y-79915519D01*
G37*
G36*
X174950443Y-79915519D02*
G01*
X175016627Y-79922037D01*
X175186466Y-79973557D01*
X175342991Y-80057222D01*
X175344242Y-80058249D01*
X175480186Y-80169814D01*
X175559123Y-80266000D01*
X175592778Y-80307009D01*
X175676443Y-80463534D01*
X175727963Y-80633373D01*
X175745359Y-80810000D01*
X175727963Y-80986627D01*
X175676443Y-81156466D01*
X175592778Y-81312991D01*
X175563448Y-81348729D01*
X175480186Y-81450186D01*
X175382530Y-81530329D01*
X175342991Y-81562778D01*
X175186466Y-81646443D01*
X175016627Y-81697963D01*
X174950443Y-81704481D01*
X174884260Y-81711000D01*
X174795740Y-81711000D01*
X174729557Y-81704481D01*
X174663373Y-81697963D01*
X174493534Y-81646443D01*
X174337009Y-81562778D01*
X174297470Y-81530329D01*
X174199814Y-81450186D01*
X174116552Y-81348729D01*
X174087222Y-81312991D01*
X174003557Y-81156466D01*
X173952037Y-80986627D01*
X173934641Y-80810000D01*
X173952037Y-80633373D01*
X174003557Y-80463534D01*
X174087222Y-80307009D01*
X174120877Y-80266000D01*
X174199814Y-80169814D01*
X174335758Y-80058249D01*
X174337009Y-80057222D01*
X174493534Y-79973557D01*
X174663373Y-79922037D01*
X174729557Y-79915519D01*
X174795740Y-79909000D01*
X174884260Y-79909000D01*
X174950443Y-79915519D01*
X174950443Y-79915519D01*
G37*
G36*
X147881938Y-80891716D02*
G01*
X147902557Y-80897971D01*
X147921553Y-80908124D01*
X147938208Y-80921792D01*
X147951876Y-80938447D01*
X147962029Y-80957443D01*
X147968284Y-80978062D01*
X147971000Y-81005640D01*
X147971000Y-81464360D01*
X147968284Y-81491938D01*
X147962029Y-81512557D01*
X147951876Y-81531553D01*
X147938208Y-81548208D01*
X147921553Y-81561876D01*
X147902557Y-81572029D01*
X147881938Y-81578284D01*
X147854360Y-81581000D01*
X147345640Y-81581000D01*
X147318062Y-81578284D01*
X147297443Y-81572029D01*
X147278447Y-81561876D01*
X147261792Y-81548208D01*
X147248124Y-81531553D01*
X147237971Y-81512557D01*
X147231716Y-81491938D01*
X147229000Y-81464360D01*
X147229000Y-81005640D01*
X147231716Y-80978062D01*
X147237971Y-80957443D01*
X147248124Y-80938447D01*
X147261792Y-80921792D01*
X147278447Y-80908124D01*
X147297443Y-80897971D01*
X147318062Y-80891716D01*
X147345640Y-80889000D01*
X147854360Y-80889000D01*
X147881938Y-80891716D01*
X147881938Y-80891716D01*
G37*
G36*
X130496938Y-80756716D02*
G01*
X130517557Y-80762971D01*
X130536553Y-80773124D01*
X130553208Y-80786792D01*
X130566876Y-80803447D01*
X130577029Y-80822443D01*
X130583284Y-80843062D01*
X130586000Y-80870640D01*
X130586000Y-81379360D01*
X130583284Y-81406938D01*
X130577029Y-81427557D01*
X130566876Y-81446553D01*
X130553208Y-81463208D01*
X130536553Y-81476876D01*
X130517557Y-81487029D01*
X130496938Y-81493284D01*
X130469360Y-81496000D01*
X130010640Y-81496000D01*
X129983062Y-81493284D01*
X129962443Y-81487029D01*
X129943447Y-81476876D01*
X129926792Y-81463208D01*
X129913124Y-81446553D01*
X129902971Y-81427557D01*
X129896716Y-81406938D01*
X129894000Y-81379360D01*
X129894000Y-80870640D01*
X129896716Y-80843062D01*
X129902971Y-80822443D01*
X129913124Y-80803447D01*
X129926792Y-80786792D01*
X129943447Y-80773124D01*
X129962443Y-80762971D01*
X129983062Y-80756716D01*
X130010640Y-80754000D01*
X130469360Y-80754000D01*
X130496938Y-80756716D01*
X130496938Y-80756716D01*
G37*
G36*
X131466938Y-80756716D02*
G01*
X131487557Y-80762971D01*
X131506553Y-80773124D01*
X131523208Y-80786792D01*
X131536876Y-80803447D01*
X131547029Y-80822443D01*
X131553284Y-80843062D01*
X131556000Y-80870640D01*
X131556000Y-81379360D01*
X131553284Y-81406938D01*
X131547029Y-81427557D01*
X131536876Y-81446553D01*
X131523208Y-81463208D01*
X131506553Y-81476876D01*
X131487557Y-81487029D01*
X131466938Y-81493284D01*
X131439360Y-81496000D01*
X130980640Y-81496000D01*
X130953062Y-81493284D01*
X130932443Y-81487029D01*
X130913447Y-81476876D01*
X130896792Y-81463208D01*
X130883124Y-81446553D01*
X130872971Y-81427557D01*
X130866716Y-81406938D01*
X130864000Y-81379360D01*
X130864000Y-80870640D01*
X130866716Y-80843062D01*
X130872971Y-80822443D01*
X130883124Y-80803447D01*
X130896792Y-80786792D01*
X130913447Y-80773124D01*
X130932443Y-80762971D01*
X130953062Y-80756716D01*
X130980640Y-80754000D01*
X131439360Y-80754000D01*
X131466938Y-80756716D01*
X131466938Y-80756716D01*
G37*
G36*
X149431938Y-80041716D02*
G01*
X149452557Y-80047971D01*
X149471553Y-80058124D01*
X149488208Y-80071792D01*
X149501876Y-80088447D01*
X149512029Y-80107443D01*
X149518284Y-80128062D01*
X149521000Y-80155640D01*
X149521000Y-80614360D01*
X149518284Y-80641938D01*
X149512029Y-80662557D01*
X149501876Y-80681553D01*
X149488208Y-80698208D01*
X149471553Y-80711876D01*
X149452557Y-80722029D01*
X149431938Y-80728284D01*
X149404360Y-80731000D01*
X148895640Y-80731000D01*
X148868062Y-80728284D01*
X148847443Y-80722029D01*
X148828447Y-80711876D01*
X148811792Y-80698208D01*
X148798124Y-80681553D01*
X148787971Y-80662557D01*
X148781716Y-80641938D01*
X148779000Y-80614360D01*
X148779000Y-80155640D01*
X148781716Y-80128062D01*
X148787971Y-80107443D01*
X148798124Y-80088447D01*
X148811792Y-80071792D01*
X148828447Y-80058124D01*
X148847443Y-80047971D01*
X148868062Y-80041716D01*
X148895640Y-80039000D01*
X149404360Y-80039000D01*
X149431938Y-80041716D01*
X149431938Y-80041716D01*
G37*
G36*
X150631938Y-79941716D02*
G01*
X150652557Y-79947971D01*
X150671553Y-79958124D01*
X150688208Y-79971792D01*
X150701876Y-79988447D01*
X150712029Y-80007443D01*
X150718284Y-80028062D01*
X150721000Y-80055640D01*
X150721000Y-80514360D01*
X150718284Y-80541938D01*
X150712029Y-80562557D01*
X150701876Y-80581553D01*
X150688208Y-80598208D01*
X150671553Y-80611876D01*
X150652557Y-80622029D01*
X150631938Y-80628284D01*
X150604360Y-80631000D01*
X150095640Y-80631000D01*
X150068062Y-80628284D01*
X150047443Y-80622029D01*
X150028447Y-80611876D01*
X150011792Y-80598208D01*
X149998124Y-80581553D01*
X149987971Y-80562557D01*
X149981716Y-80541938D01*
X149979000Y-80514360D01*
X149979000Y-80055640D01*
X149981716Y-80028062D01*
X149987971Y-80007443D01*
X149998124Y-79988447D01*
X150011792Y-79971792D01*
X150028447Y-79958124D01*
X150047443Y-79947971D01*
X150068062Y-79941716D01*
X150095640Y-79939000D01*
X150604360Y-79939000D01*
X150631938Y-79941716D01*
X150631938Y-79941716D01*
G37*
G36*
X147881938Y-79921716D02*
G01*
X147902557Y-79927971D01*
X147921553Y-79938124D01*
X147938208Y-79951792D01*
X147951876Y-79968447D01*
X147962029Y-79987443D01*
X147968284Y-80008062D01*
X147971000Y-80035640D01*
X147971000Y-80494360D01*
X147968284Y-80521938D01*
X147962029Y-80542557D01*
X147951876Y-80561553D01*
X147938208Y-80578208D01*
X147921553Y-80591876D01*
X147902557Y-80602029D01*
X147881938Y-80608284D01*
X147854360Y-80611000D01*
X147345640Y-80611000D01*
X147318062Y-80608284D01*
X147297443Y-80602029D01*
X147278447Y-80591876D01*
X147261792Y-80578208D01*
X147248124Y-80561553D01*
X147237971Y-80542557D01*
X147231716Y-80521938D01*
X147229000Y-80494360D01*
X147229000Y-80035640D01*
X147231716Y-80008062D01*
X147237971Y-79987443D01*
X147248124Y-79968447D01*
X147261792Y-79951792D01*
X147278447Y-79938124D01*
X147297443Y-79927971D01*
X147318062Y-79921716D01*
X147345640Y-79919000D01*
X147854360Y-79919000D01*
X147881938Y-79921716D01*
X147881938Y-79921716D01*
G37*
G36*
X106619672Y-79528449D02*
G01*
X106619674Y-79528450D01*
X106619675Y-79528450D01*
X106688103Y-79556793D01*
X106749686Y-79597942D01*
X106802058Y-79650314D01*
X106843207Y-79711897D01*
X106871550Y-79780325D01*
X106871551Y-79780328D01*
X106886000Y-79852966D01*
X106886000Y-79927034D01*
X106873784Y-79988447D01*
X106871550Y-79999675D01*
X106843207Y-80068103D01*
X106802058Y-80129686D01*
X106749686Y-80182058D01*
X106688103Y-80223207D01*
X106619675Y-80251550D01*
X106619674Y-80251550D01*
X106619672Y-80251551D01*
X106547034Y-80266000D01*
X106472966Y-80266000D01*
X106400328Y-80251551D01*
X106400326Y-80251550D01*
X106400325Y-80251550D01*
X106331897Y-80223207D01*
X106270314Y-80182058D01*
X106217942Y-80129686D01*
X106176793Y-80068103D01*
X106148450Y-79999675D01*
X106146217Y-79988447D01*
X106134000Y-79927034D01*
X106134000Y-79852966D01*
X106148449Y-79780328D01*
X106148450Y-79780325D01*
X106176793Y-79711897D01*
X106217942Y-79650314D01*
X106270314Y-79597942D01*
X106331897Y-79556793D01*
X106400325Y-79528450D01*
X106400326Y-79528450D01*
X106400328Y-79528449D01*
X106472966Y-79514000D01*
X106547034Y-79514000D01*
X106619672Y-79528449D01*
X106619672Y-79528449D01*
G37*
G36*
X149431938Y-79071716D02*
G01*
X149452557Y-79077971D01*
X149471553Y-79088124D01*
X149488208Y-79101792D01*
X149501876Y-79118447D01*
X149512029Y-79137443D01*
X149518284Y-79158062D01*
X149521000Y-79185640D01*
X149521000Y-79644360D01*
X149518284Y-79671938D01*
X149512029Y-79692557D01*
X149501876Y-79711553D01*
X149488208Y-79728208D01*
X149471553Y-79741876D01*
X149452557Y-79752029D01*
X149431938Y-79758284D01*
X149404360Y-79761000D01*
X148895640Y-79761000D01*
X148868062Y-79758284D01*
X148847443Y-79752029D01*
X148828447Y-79741876D01*
X148811792Y-79728208D01*
X148798124Y-79711553D01*
X148787971Y-79692557D01*
X148781716Y-79671938D01*
X148779000Y-79644360D01*
X148779000Y-79185640D01*
X148781716Y-79158062D01*
X148787971Y-79137443D01*
X148798124Y-79118447D01*
X148811792Y-79101792D01*
X148828447Y-79088124D01*
X148847443Y-79077971D01*
X148868062Y-79071716D01*
X148895640Y-79069000D01*
X149404360Y-79069000D01*
X149431938Y-79071716D01*
X149431938Y-79071716D01*
G37*
G36*
X150631938Y-78041716D02*
G01*
X150652557Y-78047971D01*
X150671553Y-78058124D01*
X150688208Y-78071792D01*
X150701876Y-78088447D01*
X150712029Y-78107443D01*
X150718284Y-78128062D01*
X150721000Y-78155640D01*
X150721000Y-78614360D01*
X150718284Y-78641938D01*
X150712029Y-78662557D01*
X150701876Y-78681553D01*
X150688208Y-78698208D01*
X150671553Y-78711876D01*
X150652556Y-78722030D01*
X150625019Y-78730383D01*
X150602380Y-78739760D01*
X150582005Y-78753374D01*
X150564678Y-78770701D01*
X150551064Y-78791075D01*
X150541687Y-78813714D01*
X150536906Y-78837747D01*
X150536906Y-78862251D01*
X150541686Y-78886284D01*
X150551063Y-78908923D01*
X150564677Y-78929298D01*
X150582004Y-78946625D01*
X150602378Y-78960239D01*
X150625019Y-78969617D01*
X150652556Y-78977970D01*
X150671553Y-78988124D01*
X150688208Y-79001792D01*
X150701876Y-79018447D01*
X150712029Y-79037443D01*
X150718284Y-79058062D01*
X150721000Y-79085640D01*
X150721000Y-79544360D01*
X150718284Y-79571938D01*
X150712029Y-79592557D01*
X150701876Y-79611553D01*
X150688208Y-79628208D01*
X150671553Y-79641876D01*
X150652557Y-79652029D01*
X150631938Y-79658284D01*
X150604360Y-79661000D01*
X150095640Y-79661000D01*
X150068062Y-79658284D01*
X150047443Y-79652029D01*
X150028447Y-79641876D01*
X150011792Y-79628208D01*
X149998124Y-79611553D01*
X149987971Y-79592557D01*
X149981716Y-79571938D01*
X149979000Y-79544360D01*
X149979000Y-79085640D01*
X149981716Y-79058062D01*
X149987971Y-79037443D01*
X149998124Y-79018447D01*
X150011792Y-79001792D01*
X150028447Y-78988124D01*
X150047444Y-78977970D01*
X150074981Y-78969617D01*
X150097620Y-78960240D01*
X150117995Y-78946626D01*
X150135322Y-78929299D01*
X150148936Y-78908925D01*
X150158313Y-78886286D01*
X150163094Y-78862253D01*
X150163094Y-78837749D01*
X150158314Y-78813716D01*
X150148937Y-78791077D01*
X150135323Y-78770702D01*
X150117996Y-78753375D01*
X150097622Y-78739761D01*
X150074981Y-78730383D01*
X150047444Y-78722030D01*
X150028447Y-78711876D01*
X150011792Y-78698208D01*
X149998124Y-78681553D01*
X149987971Y-78662557D01*
X149981716Y-78641938D01*
X149979000Y-78614360D01*
X149979000Y-78155640D01*
X149981716Y-78128062D01*
X149987971Y-78107443D01*
X149998124Y-78088447D01*
X150011792Y-78071792D01*
X150028447Y-78058124D01*
X150047443Y-78047971D01*
X150068062Y-78041716D01*
X150095640Y-78039000D01*
X150604360Y-78039000D01*
X150631938Y-78041716D01*
X150631938Y-78041716D01*
G37*
G36*
X172410442Y-77375518D02*
G01*
X172476627Y-77382037D01*
X172646466Y-77433557D01*
X172802991Y-77517222D01*
X172838729Y-77546552D01*
X172940186Y-77629814D01*
X173006262Y-77710329D01*
X173052778Y-77767009D01*
X173136443Y-77923534D01*
X173187963Y-78093373D01*
X173205359Y-78270000D01*
X173187963Y-78446627D01*
X173136443Y-78616466D01*
X173052778Y-78772991D01*
X173037935Y-78791077D01*
X172940186Y-78910186D01*
X172852473Y-78982169D01*
X172802991Y-79022778D01*
X172646466Y-79106443D01*
X172476627Y-79157963D01*
X172410442Y-79164482D01*
X172344260Y-79171000D01*
X172255740Y-79171000D01*
X172189558Y-79164482D01*
X172123373Y-79157963D01*
X171953534Y-79106443D01*
X171797009Y-79022778D01*
X171747527Y-78982169D01*
X171659814Y-78910186D01*
X171562065Y-78791077D01*
X171547222Y-78772991D01*
X171463557Y-78616466D01*
X171412037Y-78446627D01*
X171394641Y-78270000D01*
X171412037Y-78093373D01*
X171463557Y-77923534D01*
X171547222Y-77767009D01*
X171593738Y-77710329D01*
X171659814Y-77629814D01*
X171761271Y-77546552D01*
X171797009Y-77517222D01*
X171953534Y-77433557D01*
X172123373Y-77382037D01*
X172189558Y-77375518D01*
X172255740Y-77369000D01*
X172344260Y-77369000D01*
X172410442Y-77375518D01*
X172410442Y-77375518D01*
G37*
G36*
X174950442Y-77375518D02*
G01*
X175016627Y-77382037D01*
X175186466Y-77433557D01*
X175342991Y-77517222D01*
X175378729Y-77546552D01*
X175480186Y-77629814D01*
X175546262Y-77710329D01*
X175592778Y-77767009D01*
X175676443Y-77923534D01*
X175727963Y-78093373D01*
X175745359Y-78270000D01*
X175727963Y-78446627D01*
X175676443Y-78616466D01*
X175592778Y-78772991D01*
X175577935Y-78791077D01*
X175480186Y-78910186D01*
X175392473Y-78982169D01*
X175342991Y-79022778D01*
X175186466Y-79106443D01*
X175016627Y-79157963D01*
X174950442Y-79164482D01*
X174884260Y-79171000D01*
X174795740Y-79171000D01*
X174729558Y-79164482D01*
X174663373Y-79157963D01*
X174493534Y-79106443D01*
X174337009Y-79022778D01*
X174287527Y-78982169D01*
X174199814Y-78910186D01*
X174102065Y-78791077D01*
X174087222Y-78772991D01*
X174003557Y-78616466D01*
X173952037Y-78446627D01*
X173934641Y-78270000D01*
X173952037Y-78093373D01*
X174003557Y-77923534D01*
X174087222Y-77767009D01*
X174133738Y-77710329D01*
X174199814Y-77629814D01*
X174301271Y-77546552D01*
X174337009Y-77517222D01*
X174493534Y-77433557D01*
X174663373Y-77382037D01*
X174729558Y-77375518D01*
X174795740Y-77369000D01*
X174884260Y-77369000D01*
X174950442Y-77375518D01*
X174950442Y-77375518D01*
G37*
G36*
X150631938Y-77071716D02*
G01*
X150652557Y-77077971D01*
X150671553Y-77088124D01*
X150688208Y-77101792D01*
X150701876Y-77118447D01*
X150712029Y-77137443D01*
X150718284Y-77158062D01*
X150721000Y-77185640D01*
X150721000Y-77644360D01*
X150718284Y-77671938D01*
X150712029Y-77692557D01*
X150701876Y-77711553D01*
X150688208Y-77728208D01*
X150671553Y-77741876D01*
X150652557Y-77752029D01*
X150631938Y-77758284D01*
X150604360Y-77761000D01*
X150095640Y-77761000D01*
X150068062Y-77758284D01*
X150047443Y-77752029D01*
X150028447Y-77741876D01*
X150011792Y-77728208D01*
X149998124Y-77711553D01*
X149987971Y-77692557D01*
X149981716Y-77671938D01*
X149979000Y-77644360D01*
X149979000Y-77185640D01*
X149981716Y-77158062D01*
X149987971Y-77137443D01*
X149998124Y-77118447D01*
X150011792Y-77101792D01*
X150028447Y-77088124D01*
X150047443Y-77077971D01*
X150068062Y-77071716D01*
X150095640Y-77069000D01*
X150604360Y-77069000D01*
X150631938Y-77071716D01*
X150631938Y-77071716D01*
G37*
G36*
X172410442Y-74835518D02*
G01*
X172476627Y-74842037D01*
X172646466Y-74893557D01*
X172802991Y-74977222D01*
X172838729Y-75006552D01*
X172940186Y-75089814D01*
X173004212Y-75167831D01*
X173052778Y-75227009D01*
X173136443Y-75383534D01*
X173187963Y-75553373D01*
X173205359Y-75730000D01*
X173187963Y-75906627D01*
X173136443Y-76076466D01*
X173052778Y-76232991D01*
X173023448Y-76268729D01*
X172940186Y-76370186D01*
X172838729Y-76453448D01*
X172802991Y-76482778D01*
X172646466Y-76566443D01*
X172476627Y-76617963D01*
X172410443Y-76624481D01*
X172344260Y-76631000D01*
X172255740Y-76631000D01*
X172189557Y-76624481D01*
X172123373Y-76617963D01*
X171953534Y-76566443D01*
X171797009Y-76482778D01*
X171761271Y-76453448D01*
X171659814Y-76370186D01*
X171576552Y-76268729D01*
X171547222Y-76232991D01*
X171463557Y-76076466D01*
X171412037Y-75906627D01*
X171394641Y-75730000D01*
X171412037Y-75553373D01*
X171463557Y-75383534D01*
X171547222Y-75227009D01*
X171595788Y-75167831D01*
X171659814Y-75089814D01*
X171761271Y-75006552D01*
X171797009Y-74977222D01*
X171953534Y-74893557D01*
X172123373Y-74842037D01*
X172189558Y-74835518D01*
X172255740Y-74829000D01*
X172344260Y-74829000D01*
X172410442Y-74835518D01*
X172410442Y-74835518D01*
G37*
G36*
X174950442Y-74835518D02*
G01*
X175016627Y-74842037D01*
X175186466Y-74893557D01*
X175342991Y-74977222D01*
X175378729Y-75006552D01*
X175480186Y-75089814D01*
X175544212Y-75167831D01*
X175592778Y-75227009D01*
X175676443Y-75383534D01*
X175727963Y-75553373D01*
X175745359Y-75730000D01*
X175727963Y-75906627D01*
X175676443Y-76076466D01*
X175592778Y-76232991D01*
X175563448Y-76268729D01*
X175480186Y-76370186D01*
X175378729Y-76453448D01*
X175342991Y-76482778D01*
X175186466Y-76566443D01*
X175016627Y-76617963D01*
X174950443Y-76624481D01*
X174884260Y-76631000D01*
X174795740Y-76631000D01*
X174729557Y-76624481D01*
X174663373Y-76617963D01*
X174493534Y-76566443D01*
X174337009Y-76482778D01*
X174301271Y-76453448D01*
X174199814Y-76370186D01*
X174116552Y-76268729D01*
X174087222Y-76232991D01*
X174003557Y-76076466D01*
X173952037Y-75906627D01*
X173934641Y-75730000D01*
X173952037Y-75553373D01*
X174003557Y-75383534D01*
X174087222Y-75227009D01*
X174135788Y-75167831D01*
X174199814Y-75089814D01*
X174301271Y-75006552D01*
X174337009Y-74977222D01*
X174493534Y-74893557D01*
X174663373Y-74842037D01*
X174729558Y-74835518D01*
X174795740Y-74829000D01*
X174884260Y-74829000D01*
X174950442Y-74835518D01*
X174950442Y-74835518D01*
G37*
G36*
X147081938Y-75241716D02*
G01*
X147102557Y-75247971D01*
X147121553Y-75258124D01*
X147138208Y-75271792D01*
X147151876Y-75288447D01*
X147162029Y-75307443D01*
X147168284Y-75328062D01*
X147171000Y-75355640D01*
X147171000Y-75814360D01*
X147168284Y-75841938D01*
X147162029Y-75862557D01*
X147151876Y-75881553D01*
X147138208Y-75898208D01*
X147121553Y-75911876D01*
X147102557Y-75922029D01*
X147081938Y-75928284D01*
X147054360Y-75931000D01*
X146545640Y-75931000D01*
X146518062Y-75928284D01*
X146497443Y-75922029D01*
X146478447Y-75911876D01*
X146461792Y-75898208D01*
X146448124Y-75881553D01*
X146437971Y-75862557D01*
X146431716Y-75841938D01*
X146429000Y-75814360D01*
X146429000Y-75355640D01*
X146431716Y-75328062D01*
X146437971Y-75307443D01*
X146448124Y-75288447D01*
X146461792Y-75271792D01*
X146478447Y-75258124D01*
X146497443Y-75247971D01*
X146518062Y-75241716D01*
X146545640Y-75239000D01*
X147054360Y-75239000D01*
X147081938Y-75241716D01*
X147081938Y-75241716D01*
G37*
G36*
X144431938Y-74491716D02*
G01*
X144452557Y-74497971D01*
X144471553Y-74508124D01*
X144488208Y-74521792D01*
X144501876Y-74538447D01*
X144512029Y-74557443D01*
X144518284Y-74578062D01*
X144521000Y-74605640D01*
X144521000Y-75064360D01*
X144518284Y-75091938D01*
X144512029Y-75112557D01*
X144501876Y-75131553D01*
X144488208Y-75148208D01*
X144471553Y-75161876D01*
X144452557Y-75172029D01*
X144431938Y-75178284D01*
X144404360Y-75181000D01*
X143895640Y-75181000D01*
X143868062Y-75178284D01*
X143847443Y-75172029D01*
X143828447Y-75161876D01*
X143811792Y-75148208D01*
X143798124Y-75131553D01*
X143787971Y-75112557D01*
X143781716Y-75091938D01*
X143779000Y-75064360D01*
X143779000Y-74605640D01*
X143781716Y-74578062D01*
X143787971Y-74557443D01*
X143798124Y-74538447D01*
X143811792Y-74521792D01*
X143828447Y-74508124D01*
X143847443Y-74497971D01*
X143868062Y-74491716D01*
X143895640Y-74489000D01*
X144404360Y-74489000D01*
X144431938Y-74491716D01*
X144431938Y-74491716D01*
G37*
G36*
X147081938Y-74271716D02*
G01*
X147102557Y-74277971D01*
X147121553Y-74288124D01*
X147138208Y-74301792D01*
X147151876Y-74318447D01*
X147162029Y-74337443D01*
X147168284Y-74358062D01*
X147171000Y-74385640D01*
X147171000Y-74844360D01*
X147168284Y-74871938D01*
X147162029Y-74892557D01*
X147151876Y-74911553D01*
X147138208Y-74928208D01*
X147121553Y-74941876D01*
X147102557Y-74952029D01*
X147081938Y-74958284D01*
X147054360Y-74961000D01*
X146545640Y-74961000D01*
X146518062Y-74958284D01*
X146497443Y-74952029D01*
X146478447Y-74941876D01*
X146461792Y-74928208D01*
X146448124Y-74911553D01*
X146437971Y-74892557D01*
X146431716Y-74871938D01*
X146429000Y-74844360D01*
X146429000Y-74385640D01*
X146431716Y-74358062D01*
X146437971Y-74337443D01*
X146448124Y-74318447D01*
X146461792Y-74301792D01*
X146478447Y-74288124D01*
X146497443Y-74277971D01*
X146518062Y-74271716D01*
X146545640Y-74269000D01*
X147054360Y-74269000D01*
X147081938Y-74271716D01*
X147081938Y-74271716D01*
G37*
G36*
X136706938Y-73981716D02*
G01*
X136727557Y-73987971D01*
X136746553Y-73998124D01*
X136763208Y-74011792D01*
X136776876Y-74028447D01*
X136787029Y-74047443D01*
X136793284Y-74068062D01*
X136796000Y-74095640D01*
X136796000Y-74604360D01*
X136793284Y-74631938D01*
X136787029Y-74652557D01*
X136776876Y-74671553D01*
X136763208Y-74688208D01*
X136746553Y-74701876D01*
X136727557Y-74712029D01*
X136706938Y-74718284D01*
X136679360Y-74721000D01*
X136220640Y-74721000D01*
X136193062Y-74718284D01*
X136172443Y-74712029D01*
X136153447Y-74701876D01*
X136136792Y-74688208D01*
X136123124Y-74671553D01*
X136112971Y-74652557D01*
X136106716Y-74631938D01*
X136104000Y-74604360D01*
X136104000Y-74095640D01*
X136106716Y-74068062D01*
X136112971Y-74047443D01*
X136123124Y-74028447D01*
X136136792Y-74011792D01*
X136153447Y-73998124D01*
X136172443Y-73987971D01*
X136193062Y-73981716D01*
X136220640Y-73979000D01*
X136679360Y-73979000D01*
X136706938Y-73981716D01*
X136706938Y-73981716D01*
G37*
G36*
X137676938Y-73981716D02*
G01*
X137697557Y-73987971D01*
X137716553Y-73998124D01*
X137733208Y-74011792D01*
X137746876Y-74028447D01*
X137757029Y-74047443D01*
X137763284Y-74068062D01*
X137766000Y-74095640D01*
X137766000Y-74604360D01*
X137763284Y-74631938D01*
X137757029Y-74652557D01*
X137746876Y-74671553D01*
X137733208Y-74688208D01*
X137716553Y-74701876D01*
X137697557Y-74712029D01*
X137676938Y-74718284D01*
X137649360Y-74721000D01*
X137190640Y-74721000D01*
X137163062Y-74718284D01*
X137142443Y-74712029D01*
X137123447Y-74701876D01*
X137106792Y-74688208D01*
X137093124Y-74671553D01*
X137082971Y-74652557D01*
X137076716Y-74631938D01*
X137074000Y-74604360D01*
X137074000Y-74095640D01*
X137076716Y-74068062D01*
X137082971Y-74047443D01*
X137093124Y-74028447D01*
X137106792Y-74011792D01*
X137123447Y-73998124D01*
X137142443Y-73987971D01*
X137163062Y-73981716D01*
X137190640Y-73979000D01*
X137649360Y-73979000D01*
X137676938Y-73981716D01*
X137676938Y-73981716D01*
G37*
G36*
X135736938Y-73981716D02*
G01*
X135757557Y-73987971D01*
X135776553Y-73998124D01*
X135793208Y-74011792D01*
X135806876Y-74028447D01*
X135817029Y-74047443D01*
X135823284Y-74068062D01*
X135826000Y-74095640D01*
X135826000Y-74604360D01*
X135823284Y-74631938D01*
X135817029Y-74652557D01*
X135806876Y-74671553D01*
X135793208Y-74688208D01*
X135776553Y-74701876D01*
X135757557Y-74712029D01*
X135736938Y-74718284D01*
X135709360Y-74721000D01*
X135250640Y-74721000D01*
X135223062Y-74718284D01*
X135202443Y-74712029D01*
X135183447Y-74701876D01*
X135166792Y-74688208D01*
X135153124Y-74671553D01*
X135142971Y-74652557D01*
X135136716Y-74631938D01*
X135134000Y-74604360D01*
X135134000Y-74095640D01*
X135136716Y-74068062D01*
X135142971Y-74047443D01*
X135153124Y-74028447D01*
X135166792Y-74011792D01*
X135183447Y-73998124D01*
X135202443Y-73987971D01*
X135223062Y-73981716D01*
X135250640Y-73979000D01*
X135709360Y-73979000D01*
X135736938Y-73981716D01*
X135736938Y-73981716D01*
G37*
G36*
X106619672Y-73748449D02*
G01*
X106619674Y-73748450D01*
X106619675Y-73748450D01*
X106688103Y-73776793D01*
X106749686Y-73817942D01*
X106802058Y-73870314D01*
X106843207Y-73931897D01*
X106870638Y-73998124D01*
X106871551Y-74000328D01*
X106886000Y-74072966D01*
X106886000Y-74147034D01*
X106875061Y-74202029D01*
X106871550Y-74219675D01*
X106843207Y-74288103D01*
X106802058Y-74349686D01*
X106749686Y-74402058D01*
X106688103Y-74443207D01*
X106619675Y-74471550D01*
X106619674Y-74471550D01*
X106619672Y-74471551D01*
X106547034Y-74486000D01*
X106472966Y-74486000D01*
X106400328Y-74471551D01*
X106400326Y-74471550D01*
X106400325Y-74471550D01*
X106331897Y-74443207D01*
X106270314Y-74402058D01*
X106217942Y-74349686D01*
X106176793Y-74288103D01*
X106148450Y-74219675D01*
X106144940Y-74202029D01*
X106134000Y-74147034D01*
X106134000Y-74072966D01*
X106148449Y-74000328D01*
X106149362Y-73998124D01*
X106176793Y-73931897D01*
X106217942Y-73870314D01*
X106270314Y-73817942D01*
X106331897Y-73776793D01*
X106400325Y-73748450D01*
X106400326Y-73748450D01*
X106400328Y-73748449D01*
X106472966Y-73734000D01*
X106547034Y-73734000D01*
X106619672Y-73748449D01*
X106619672Y-73748449D01*
G37*
G36*
X144431938Y-73521716D02*
G01*
X144452557Y-73527971D01*
X144471553Y-73538124D01*
X144488208Y-73551792D01*
X144501876Y-73568447D01*
X144512029Y-73587443D01*
X144518284Y-73608062D01*
X144521000Y-73635640D01*
X144521000Y-74094360D01*
X144518284Y-74121938D01*
X144512029Y-74142557D01*
X144501876Y-74161553D01*
X144488208Y-74178208D01*
X144471553Y-74191876D01*
X144452557Y-74202029D01*
X144431938Y-74208284D01*
X144404360Y-74211000D01*
X143895640Y-74211000D01*
X143868062Y-74208284D01*
X143847443Y-74202029D01*
X143828447Y-74191876D01*
X143811792Y-74178208D01*
X143798124Y-74161553D01*
X143787971Y-74142557D01*
X143781716Y-74121938D01*
X143779000Y-74094360D01*
X143779000Y-73635640D01*
X143781716Y-73608062D01*
X143787971Y-73587443D01*
X143798124Y-73568447D01*
X143811792Y-73551792D01*
X143828447Y-73538124D01*
X143847443Y-73527971D01*
X143868062Y-73521716D01*
X143895640Y-73519000D01*
X144404360Y-73519000D01*
X144431938Y-73521716D01*
X144431938Y-73521716D01*
G37*
G36*
X145431938Y-73441716D02*
G01*
X145452557Y-73447971D01*
X145471553Y-73458124D01*
X145488208Y-73471792D01*
X145501876Y-73488447D01*
X145512029Y-73507443D01*
X145518284Y-73528062D01*
X145521000Y-73555640D01*
X145521000Y-74014360D01*
X145518284Y-74041938D01*
X145512029Y-74062557D01*
X145501876Y-74081553D01*
X145488208Y-74098208D01*
X145471553Y-74111876D01*
X145452557Y-74122029D01*
X145431938Y-74128284D01*
X145404360Y-74131000D01*
X144895640Y-74131000D01*
X144868062Y-74128284D01*
X144847443Y-74122029D01*
X144828447Y-74111876D01*
X144811792Y-74098208D01*
X144798124Y-74081553D01*
X144787971Y-74062557D01*
X144781716Y-74041938D01*
X144779000Y-74014360D01*
X144779000Y-73555640D01*
X144781716Y-73528062D01*
X144787971Y-73507443D01*
X144798124Y-73488447D01*
X144811792Y-73471792D01*
X144828447Y-73458124D01*
X144847443Y-73447971D01*
X144868062Y-73441716D01*
X144895640Y-73439000D01*
X145404360Y-73439000D01*
X145431938Y-73441716D01*
X145431938Y-73441716D01*
G37*
G36*
X174950443Y-72295519D02*
G01*
X175016627Y-72302037D01*
X175186466Y-72353557D01*
X175342991Y-72437222D01*
X175378729Y-72466552D01*
X175480186Y-72549814D01*
X175547582Y-72631938D01*
X175592778Y-72687009D01*
X175676443Y-72843534D01*
X175727963Y-73013373D01*
X175745359Y-73190000D01*
X175727963Y-73366627D01*
X175681741Y-73519000D01*
X175676442Y-73536468D01*
X175649195Y-73587443D01*
X175592778Y-73692991D01*
X175585486Y-73701876D01*
X175480186Y-73830186D01*
X175378729Y-73913448D01*
X175342991Y-73942778D01*
X175342989Y-73942779D01*
X175258442Y-73987971D01*
X175186466Y-74026443D01*
X175016627Y-74077963D01*
X174950442Y-74084482D01*
X174884260Y-74091000D01*
X174795740Y-74091000D01*
X174729558Y-74084482D01*
X174663373Y-74077963D01*
X174493534Y-74026443D01*
X174421559Y-73987971D01*
X174337011Y-73942779D01*
X174337009Y-73942778D01*
X174301271Y-73913448D01*
X174199814Y-73830186D01*
X174094514Y-73701876D01*
X174087222Y-73692991D01*
X174030805Y-73587443D01*
X174003558Y-73536468D01*
X173998259Y-73519000D01*
X173952037Y-73366627D01*
X173934641Y-73190000D01*
X173952037Y-73013373D01*
X174003557Y-72843534D01*
X174087222Y-72687009D01*
X174132418Y-72631938D01*
X174199814Y-72549814D01*
X174301271Y-72466552D01*
X174337009Y-72437222D01*
X174493534Y-72353557D01*
X174663373Y-72302037D01*
X174729557Y-72295519D01*
X174795740Y-72289000D01*
X174884260Y-72289000D01*
X174950443Y-72295519D01*
X174950443Y-72295519D01*
G37*
G36*
X172410443Y-72295519D02*
G01*
X172476627Y-72302037D01*
X172646466Y-72353557D01*
X172802991Y-72437222D01*
X172838729Y-72466552D01*
X172940186Y-72549814D01*
X173007582Y-72631938D01*
X173052778Y-72687009D01*
X173136443Y-72843534D01*
X173187963Y-73013373D01*
X173205359Y-73190000D01*
X173187963Y-73366627D01*
X173141741Y-73519000D01*
X173136442Y-73536468D01*
X173109195Y-73587443D01*
X173052778Y-73692991D01*
X173045486Y-73701876D01*
X172940186Y-73830186D01*
X172838729Y-73913448D01*
X172802991Y-73942778D01*
X172802989Y-73942779D01*
X172718442Y-73987971D01*
X172646466Y-74026443D01*
X172476627Y-74077963D01*
X172410442Y-74084482D01*
X172344260Y-74091000D01*
X172255740Y-74091000D01*
X172189558Y-74084482D01*
X172123373Y-74077963D01*
X171953534Y-74026443D01*
X171881559Y-73987971D01*
X171797011Y-73942779D01*
X171797009Y-73942778D01*
X171761271Y-73913448D01*
X171659814Y-73830186D01*
X171554514Y-73701876D01*
X171547222Y-73692991D01*
X171490805Y-73587443D01*
X171463558Y-73536468D01*
X171458259Y-73519000D01*
X171412037Y-73366627D01*
X171394641Y-73190000D01*
X171412037Y-73013373D01*
X171463557Y-72843534D01*
X171547222Y-72687009D01*
X171592418Y-72631938D01*
X171659814Y-72549814D01*
X171761271Y-72466552D01*
X171797009Y-72437222D01*
X171953534Y-72353557D01*
X172123373Y-72302037D01*
X172189557Y-72295519D01*
X172255740Y-72289000D01*
X172344260Y-72289000D01*
X172410443Y-72295519D01*
X172410443Y-72295519D01*
G37*
G36*
X146971938Y-72981716D02*
G01*
X146992557Y-72987971D01*
X147011553Y-72998124D01*
X147028208Y-73011792D01*
X147041876Y-73028447D01*
X147052029Y-73047443D01*
X147058284Y-73068062D01*
X147061000Y-73095640D01*
X147061000Y-73604360D01*
X147058284Y-73631938D01*
X147052029Y-73652557D01*
X147041876Y-73671553D01*
X147028208Y-73688208D01*
X147011553Y-73701876D01*
X146992557Y-73712029D01*
X146971938Y-73718284D01*
X146944360Y-73721000D01*
X146485640Y-73721000D01*
X146458062Y-73718284D01*
X146437443Y-73712029D01*
X146418447Y-73701876D01*
X146401792Y-73688208D01*
X146388124Y-73671553D01*
X146377971Y-73652557D01*
X146371716Y-73631938D01*
X146369000Y-73604360D01*
X146369000Y-73095640D01*
X146371716Y-73068062D01*
X146377971Y-73047443D01*
X146388124Y-73028447D01*
X146401792Y-73011792D01*
X146418447Y-72998124D01*
X146437443Y-72987971D01*
X146458062Y-72981716D01*
X146485640Y-72979000D01*
X146944360Y-72979000D01*
X146971938Y-72981716D01*
X146971938Y-72981716D01*
G37*
G36*
X147941938Y-72981716D02*
G01*
X147962557Y-72987971D01*
X147981553Y-72998124D01*
X147998208Y-73011792D01*
X148011876Y-73028447D01*
X148022029Y-73047443D01*
X148028284Y-73068062D01*
X148031000Y-73095640D01*
X148031000Y-73604360D01*
X148028284Y-73631938D01*
X148022029Y-73652557D01*
X148011876Y-73671553D01*
X147998208Y-73688208D01*
X147981553Y-73701876D01*
X147962557Y-73712029D01*
X147941938Y-73718284D01*
X147914360Y-73721000D01*
X147455640Y-73721000D01*
X147428062Y-73718284D01*
X147407443Y-73712029D01*
X147388447Y-73701876D01*
X147371792Y-73688208D01*
X147358124Y-73671553D01*
X147347971Y-73652557D01*
X147341716Y-73631938D01*
X147339000Y-73604360D01*
X147339000Y-73095640D01*
X147341716Y-73068062D01*
X147347971Y-73047443D01*
X147358124Y-73028447D01*
X147371792Y-73011792D01*
X147388447Y-72998124D01*
X147407443Y-72987971D01*
X147428062Y-72981716D01*
X147455640Y-72979000D01*
X147914360Y-72979000D01*
X147941938Y-72981716D01*
X147941938Y-72981716D01*
G37*
G36*
X136706938Y-72981716D02*
G01*
X136727557Y-72987971D01*
X136746553Y-72998124D01*
X136763208Y-73011792D01*
X136776876Y-73028447D01*
X136787029Y-73047443D01*
X136793284Y-73068062D01*
X136796000Y-73095640D01*
X136796000Y-73604360D01*
X136793284Y-73631938D01*
X136787029Y-73652557D01*
X136776876Y-73671553D01*
X136763208Y-73688208D01*
X136746553Y-73701876D01*
X136727557Y-73712029D01*
X136706938Y-73718284D01*
X136679360Y-73721000D01*
X136220640Y-73721000D01*
X136193062Y-73718284D01*
X136172443Y-73712029D01*
X136153447Y-73701876D01*
X136136792Y-73688208D01*
X136123124Y-73671553D01*
X136112971Y-73652557D01*
X136106716Y-73631938D01*
X136104000Y-73604360D01*
X136104000Y-73095640D01*
X136106716Y-73068062D01*
X136112971Y-73047443D01*
X136123124Y-73028447D01*
X136136792Y-73011792D01*
X136153447Y-72998124D01*
X136172443Y-72987971D01*
X136193062Y-72981716D01*
X136220640Y-72979000D01*
X136679360Y-72979000D01*
X136706938Y-72981716D01*
X136706938Y-72981716D01*
G37*
G36*
X135736938Y-72981716D02*
G01*
X135757557Y-72987971D01*
X135776553Y-72998124D01*
X135793208Y-73011792D01*
X135806876Y-73028447D01*
X135817029Y-73047443D01*
X135823284Y-73068062D01*
X135826000Y-73095640D01*
X135826000Y-73604360D01*
X135823284Y-73631938D01*
X135817029Y-73652557D01*
X135806876Y-73671553D01*
X135793208Y-73688208D01*
X135776553Y-73701876D01*
X135757557Y-73712029D01*
X135736938Y-73718284D01*
X135709360Y-73721000D01*
X135250640Y-73721000D01*
X135223062Y-73718284D01*
X135202443Y-73712029D01*
X135183447Y-73701876D01*
X135166792Y-73688208D01*
X135153124Y-73671553D01*
X135142971Y-73652557D01*
X135136716Y-73631938D01*
X135134000Y-73604360D01*
X135134000Y-73095640D01*
X135136716Y-73068062D01*
X135142971Y-73047443D01*
X135153124Y-73028447D01*
X135166792Y-73011792D01*
X135183447Y-72998124D01*
X135202443Y-72987971D01*
X135223062Y-72981716D01*
X135250640Y-72979000D01*
X135709360Y-72979000D01*
X135736938Y-72981716D01*
X135736938Y-72981716D01*
G37*
G36*
X137676938Y-72981716D02*
G01*
X137697557Y-72987971D01*
X137716553Y-72998124D01*
X137733208Y-73011792D01*
X137746876Y-73028447D01*
X137757029Y-73047443D01*
X137763284Y-73068062D01*
X137766000Y-73095640D01*
X137766000Y-73604360D01*
X137763284Y-73631938D01*
X137757029Y-73652557D01*
X137746876Y-73671553D01*
X137733208Y-73688208D01*
X137716553Y-73701876D01*
X137697557Y-73712029D01*
X137676938Y-73718284D01*
X137649360Y-73721000D01*
X137190640Y-73721000D01*
X137163062Y-73718284D01*
X137142443Y-73712029D01*
X137123447Y-73701876D01*
X137106792Y-73688208D01*
X137093124Y-73671553D01*
X137082971Y-73652557D01*
X137076716Y-73631938D01*
X137074000Y-73604360D01*
X137074000Y-73095640D01*
X137076716Y-73068062D01*
X137082971Y-73047443D01*
X137093124Y-73028447D01*
X137106792Y-73011792D01*
X137123447Y-72998124D01*
X137142443Y-72987971D01*
X137163062Y-72981716D01*
X137190640Y-72979000D01*
X137649360Y-72979000D01*
X137676938Y-72981716D01*
X137676938Y-72981716D01*
G37*
G36*
X103238015Y-72136973D02*
G01*
X103341879Y-72168479D01*
X103361562Y-72179000D01*
X103437600Y-72219643D01*
X103521501Y-72288499D01*
X103590357Y-72372400D01*
X103625004Y-72437221D01*
X103641521Y-72468121D01*
X103673027Y-72571985D01*
X103683666Y-72680000D01*
X103673027Y-72788015D01*
X103641521Y-72891879D01*
X103641519Y-72891882D01*
X103590357Y-72987600D01*
X103521501Y-73071501D01*
X103437600Y-73140357D01*
X103398979Y-73161000D01*
X103341879Y-73191521D01*
X103238015Y-73223027D01*
X103157067Y-73231000D01*
X102502933Y-73231000D01*
X102421985Y-73223027D01*
X102318121Y-73191521D01*
X102261021Y-73161000D01*
X102222400Y-73140357D01*
X102138499Y-73071501D01*
X102069643Y-72987600D01*
X102018481Y-72891882D01*
X102018479Y-72891879D01*
X101986973Y-72788015D01*
X101976334Y-72680000D01*
X101986973Y-72571985D01*
X102018479Y-72468121D01*
X102034996Y-72437221D01*
X102069643Y-72372400D01*
X102138499Y-72288499D01*
X102222400Y-72219643D01*
X102298438Y-72179000D01*
X102318121Y-72168479D01*
X102421985Y-72136973D01*
X102502933Y-72129000D01*
X103157067Y-72129000D01*
X103238015Y-72136973D01*
X103238015Y-72136973D01*
G37*
G36*
X107708213Y-72186249D02*
G01*
X107802652Y-72214897D01*
X107889687Y-72261418D01*
X107965975Y-72324025D01*
X108028582Y-72400313D01*
X108075103Y-72487348D01*
X108103751Y-72581787D01*
X108113424Y-72680000D01*
X108103751Y-72778213D01*
X108075103Y-72872652D01*
X108028582Y-72959687D01*
X107965975Y-73035975D01*
X107889687Y-73098582D01*
X107802652Y-73145103D01*
X107708213Y-73173751D01*
X107634612Y-73181000D01*
X106385388Y-73181000D01*
X106311787Y-73173751D01*
X106217348Y-73145103D01*
X106130313Y-73098582D01*
X106054025Y-73035975D01*
X105991418Y-72959687D01*
X105944897Y-72872652D01*
X105916249Y-72778213D01*
X105906576Y-72680000D01*
X105916249Y-72581787D01*
X105944897Y-72487348D01*
X105991418Y-72400313D01*
X106054025Y-72324025D01*
X106130313Y-72261418D01*
X106217348Y-72214897D01*
X106311787Y-72186249D01*
X106385388Y-72179000D01*
X107634612Y-72179000D01*
X107708213Y-72186249D01*
X107708213Y-72186249D01*
G37*
G36*
X145431938Y-72471716D02*
G01*
X145452557Y-72477971D01*
X145471553Y-72488124D01*
X145488208Y-72501792D01*
X145501876Y-72518447D01*
X145512029Y-72537443D01*
X145518284Y-72558062D01*
X145521000Y-72585640D01*
X145521000Y-73044360D01*
X145518284Y-73071938D01*
X145512029Y-73092557D01*
X145501876Y-73111553D01*
X145488208Y-73128208D01*
X145471553Y-73141876D01*
X145452557Y-73152029D01*
X145431938Y-73158284D01*
X145404360Y-73161000D01*
X144895640Y-73161000D01*
X144868062Y-73158284D01*
X144847443Y-73152029D01*
X144828447Y-73141876D01*
X144811792Y-73128208D01*
X144798124Y-73111553D01*
X144787971Y-73092557D01*
X144781716Y-73071938D01*
X144779000Y-73044360D01*
X144779000Y-72585640D01*
X144781716Y-72558062D01*
X144787971Y-72537443D01*
X144798124Y-72518447D01*
X144811792Y-72501792D01*
X144828447Y-72488124D01*
X144847443Y-72477971D01*
X144868062Y-72471716D01*
X144895640Y-72469000D01*
X145404360Y-72469000D01*
X145431938Y-72471716D01*
X145431938Y-72471716D01*
G37*
G36*
X137676938Y-71981716D02*
G01*
X137697557Y-71987971D01*
X137716553Y-71998124D01*
X137733208Y-72011792D01*
X137746876Y-72028447D01*
X137757029Y-72047443D01*
X137763284Y-72068062D01*
X137766000Y-72095640D01*
X137766000Y-72604360D01*
X137763284Y-72631938D01*
X137757029Y-72652557D01*
X137746876Y-72671553D01*
X137733208Y-72688208D01*
X137716553Y-72701876D01*
X137697557Y-72712029D01*
X137676938Y-72718284D01*
X137649360Y-72721000D01*
X137190640Y-72721000D01*
X137163062Y-72718284D01*
X137142443Y-72712029D01*
X137123447Y-72701876D01*
X137106792Y-72688208D01*
X137093124Y-72671553D01*
X137082971Y-72652557D01*
X137076716Y-72631938D01*
X137074000Y-72604360D01*
X137074000Y-72095640D01*
X137076716Y-72068062D01*
X137082971Y-72047443D01*
X137093124Y-72028447D01*
X137106792Y-72011792D01*
X137123447Y-71998124D01*
X137142443Y-71987971D01*
X137163062Y-71981716D01*
X137190640Y-71979000D01*
X137649360Y-71979000D01*
X137676938Y-71981716D01*
X137676938Y-71981716D01*
G37*
G36*
X135736938Y-71981716D02*
G01*
X135757557Y-71987971D01*
X135776553Y-71998124D01*
X135793208Y-72011792D01*
X135806876Y-72028447D01*
X135817029Y-72047443D01*
X135823284Y-72068062D01*
X135826000Y-72095640D01*
X135826000Y-72604360D01*
X135823284Y-72631938D01*
X135817029Y-72652557D01*
X135806876Y-72671553D01*
X135793208Y-72688208D01*
X135776553Y-72701876D01*
X135757557Y-72712029D01*
X135736938Y-72718284D01*
X135709360Y-72721000D01*
X135250640Y-72721000D01*
X135223062Y-72718284D01*
X135202443Y-72712029D01*
X135183447Y-72701876D01*
X135166792Y-72688208D01*
X135153124Y-72671553D01*
X135142971Y-72652557D01*
X135136716Y-72631938D01*
X135134000Y-72604360D01*
X135134000Y-72095640D01*
X135136716Y-72068062D01*
X135142971Y-72047443D01*
X135153124Y-72028447D01*
X135166792Y-72011792D01*
X135183447Y-71998124D01*
X135202443Y-71987971D01*
X135223062Y-71981716D01*
X135250640Y-71979000D01*
X135709360Y-71979000D01*
X135736938Y-71981716D01*
X135736938Y-71981716D01*
G37*
G36*
X136706938Y-71981716D02*
G01*
X136727557Y-71987971D01*
X136746553Y-71998124D01*
X136763208Y-72011792D01*
X136776876Y-72028447D01*
X136787029Y-72047443D01*
X136793284Y-72068062D01*
X136796000Y-72095640D01*
X136796000Y-72604360D01*
X136793284Y-72631938D01*
X136787029Y-72652557D01*
X136776876Y-72671553D01*
X136763208Y-72688208D01*
X136746553Y-72701876D01*
X136727557Y-72712029D01*
X136706938Y-72718284D01*
X136679360Y-72721000D01*
X136220640Y-72721000D01*
X136193062Y-72718284D01*
X136172443Y-72712029D01*
X136153447Y-72701876D01*
X136136792Y-72688208D01*
X136123124Y-72671553D01*
X136112971Y-72652557D01*
X136106716Y-72631938D01*
X136104000Y-72604360D01*
X136104000Y-72095640D01*
X136106716Y-72068062D01*
X136112971Y-72047443D01*
X136123124Y-72028447D01*
X136136792Y-72011792D01*
X136153447Y-71998124D01*
X136172443Y-71987971D01*
X136193062Y-71981716D01*
X136220640Y-71979000D01*
X136679360Y-71979000D01*
X136706938Y-71981716D01*
X136706938Y-71981716D01*
G37*
G36*
X137676938Y-70981716D02*
G01*
X137697557Y-70987971D01*
X137716553Y-70998124D01*
X137733208Y-71011792D01*
X137746876Y-71028447D01*
X137757029Y-71047443D01*
X137763284Y-71068062D01*
X137766000Y-71095640D01*
X137766000Y-71604360D01*
X137763284Y-71631938D01*
X137757029Y-71652557D01*
X137746876Y-71671553D01*
X137733208Y-71688208D01*
X137716553Y-71701876D01*
X137697557Y-71712029D01*
X137676938Y-71718284D01*
X137649360Y-71721000D01*
X137190640Y-71721000D01*
X137163062Y-71718284D01*
X137142443Y-71712029D01*
X137123447Y-71701876D01*
X137106792Y-71688208D01*
X137093124Y-71671553D01*
X137082971Y-71652557D01*
X137076716Y-71631938D01*
X137074000Y-71604360D01*
X137074000Y-71095640D01*
X137076716Y-71068062D01*
X137082971Y-71047443D01*
X137093124Y-71028447D01*
X137106792Y-71011792D01*
X137123447Y-70998124D01*
X137142443Y-70987971D01*
X137163062Y-70981716D01*
X137190640Y-70979000D01*
X137649360Y-70979000D01*
X137676938Y-70981716D01*
X137676938Y-70981716D01*
G37*
G36*
X136706938Y-70981716D02*
G01*
X136727557Y-70987971D01*
X136746553Y-70998124D01*
X136763208Y-71011792D01*
X136776876Y-71028447D01*
X136787029Y-71047443D01*
X136793284Y-71068062D01*
X136796000Y-71095640D01*
X136796000Y-71604360D01*
X136793284Y-71631938D01*
X136787029Y-71652557D01*
X136776876Y-71671553D01*
X136763208Y-71688208D01*
X136746553Y-71701876D01*
X136727557Y-71712029D01*
X136706938Y-71718284D01*
X136679360Y-71721000D01*
X136220640Y-71721000D01*
X136193062Y-71718284D01*
X136172443Y-71712029D01*
X136153447Y-71701876D01*
X136136792Y-71688208D01*
X136123124Y-71671553D01*
X136112971Y-71652557D01*
X136106716Y-71631938D01*
X136104000Y-71604360D01*
X136104000Y-71095640D01*
X136106716Y-71068062D01*
X136112971Y-71047443D01*
X136123124Y-71028447D01*
X136136792Y-71011792D01*
X136153447Y-70998124D01*
X136172443Y-70987971D01*
X136193062Y-70981716D01*
X136220640Y-70979000D01*
X136679360Y-70979000D01*
X136706938Y-70981716D01*
X136706938Y-70981716D01*
G37*
G36*
X135736938Y-70981716D02*
G01*
X135757557Y-70987971D01*
X135776553Y-70998124D01*
X135793208Y-71011792D01*
X135806876Y-71028447D01*
X135817029Y-71047443D01*
X135823284Y-71068062D01*
X135826000Y-71095640D01*
X135826000Y-71604360D01*
X135823284Y-71631938D01*
X135817029Y-71652557D01*
X135806876Y-71671553D01*
X135793208Y-71688208D01*
X135776553Y-71701876D01*
X135757557Y-71712029D01*
X135736938Y-71718284D01*
X135709360Y-71721000D01*
X135250640Y-71721000D01*
X135223062Y-71718284D01*
X135202443Y-71712029D01*
X135183447Y-71701876D01*
X135166792Y-71688208D01*
X135153124Y-71671553D01*
X135142971Y-71652557D01*
X135136716Y-71631938D01*
X135134000Y-71604360D01*
X135134000Y-71095640D01*
X135136716Y-71068062D01*
X135142971Y-71047443D01*
X135153124Y-71028447D01*
X135166792Y-71011792D01*
X135183447Y-70998124D01*
X135202443Y-70987971D01*
X135223062Y-70981716D01*
X135250640Y-70979000D01*
X135709360Y-70979000D01*
X135736938Y-70981716D01*
X135736938Y-70981716D01*
G37*
G36*
X174950442Y-69755518D02*
G01*
X175016627Y-69762037D01*
X175186466Y-69813557D01*
X175342991Y-69897222D01*
X175372909Y-69921775D01*
X175480186Y-70009814D01*
X175563448Y-70111271D01*
X175592778Y-70147009D01*
X175676443Y-70303534D01*
X175727963Y-70473373D01*
X175745359Y-70650000D01*
X175727963Y-70826627D01*
X175676443Y-70996466D01*
X175592778Y-71152991D01*
X175563728Y-71188388D01*
X175480186Y-71290186D01*
X175378729Y-71373448D01*
X175342991Y-71402778D01*
X175186466Y-71486443D01*
X175016627Y-71537963D01*
X174972145Y-71542344D01*
X174884260Y-71551000D01*
X174795740Y-71551000D01*
X174707855Y-71542344D01*
X174663373Y-71537963D01*
X174493534Y-71486443D01*
X174337009Y-71402778D01*
X174301271Y-71373448D01*
X174199814Y-71290186D01*
X174116272Y-71188388D01*
X174087222Y-71152991D01*
X174003557Y-70996466D01*
X173952037Y-70826627D01*
X173934641Y-70650000D01*
X173952037Y-70473373D01*
X174003557Y-70303534D01*
X174087222Y-70147009D01*
X174116552Y-70111271D01*
X174199814Y-70009814D01*
X174307091Y-69921775D01*
X174337009Y-69897222D01*
X174493534Y-69813557D01*
X174663373Y-69762037D01*
X174729558Y-69755518D01*
X174795740Y-69749000D01*
X174884260Y-69749000D01*
X174950442Y-69755518D01*
X174950442Y-69755518D01*
G37*
G36*
X172888578Y-69757048D02*
G01*
X172961249Y-69779093D01*
X173028225Y-69814892D01*
X173086930Y-69863070D01*
X173135108Y-69921775D01*
X173170907Y-69988751D01*
X173192952Y-70061422D01*
X173201000Y-70143140D01*
X173201000Y-71156860D01*
X173192952Y-71238578D01*
X173170907Y-71311249D01*
X173135108Y-71378225D01*
X173086930Y-71436930D01*
X173028225Y-71485108D01*
X172961249Y-71520907D01*
X172888578Y-71542952D01*
X172806860Y-71551000D01*
X171793140Y-71551000D01*
X171711422Y-71542952D01*
X171638751Y-71520907D01*
X171571775Y-71485108D01*
X171513070Y-71436930D01*
X171464892Y-71378225D01*
X171429093Y-71311249D01*
X171407048Y-71238578D01*
X171399000Y-71156860D01*
X171399000Y-70143140D01*
X171407048Y-70061422D01*
X171429093Y-69988751D01*
X171464892Y-69921775D01*
X171513070Y-69863070D01*
X171571775Y-69814892D01*
X171638751Y-69779093D01*
X171711422Y-69757048D01*
X171793140Y-69749000D01*
X172806860Y-69749000D01*
X172888578Y-69757048D01*
X172888578Y-69757048D01*
G37*
G36*
X135736938Y-69981716D02*
G01*
X135757557Y-69987971D01*
X135776553Y-69998124D01*
X135793208Y-70011792D01*
X135806876Y-70028447D01*
X135817029Y-70047443D01*
X135823284Y-70068062D01*
X135826000Y-70095640D01*
X135826000Y-70604360D01*
X135823284Y-70631938D01*
X135817029Y-70652557D01*
X135806876Y-70671553D01*
X135793208Y-70688208D01*
X135776553Y-70701876D01*
X135757557Y-70712029D01*
X135736938Y-70718284D01*
X135709360Y-70721000D01*
X135250640Y-70721000D01*
X135223062Y-70718284D01*
X135202443Y-70712029D01*
X135183447Y-70701876D01*
X135166792Y-70688208D01*
X135153124Y-70671553D01*
X135142971Y-70652557D01*
X135136716Y-70631938D01*
X135134000Y-70604360D01*
X135134000Y-70095640D01*
X135136716Y-70068062D01*
X135142971Y-70047443D01*
X135153124Y-70028447D01*
X135166792Y-70011792D01*
X135183447Y-69998124D01*
X135202443Y-69987971D01*
X135223062Y-69981716D01*
X135250640Y-69979000D01*
X135709360Y-69979000D01*
X135736938Y-69981716D01*
X135736938Y-69981716D01*
G37*
G36*
X137676938Y-69981716D02*
G01*
X137697557Y-69987971D01*
X137716553Y-69998124D01*
X137733208Y-70011792D01*
X137746876Y-70028447D01*
X137757029Y-70047443D01*
X137763284Y-70068062D01*
X137766000Y-70095640D01*
X137766000Y-70604360D01*
X137763284Y-70631938D01*
X137757029Y-70652557D01*
X137746876Y-70671553D01*
X137733208Y-70688208D01*
X137716553Y-70701876D01*
X137697557Y-70712029D01*
X137676938Y-70718284D01*
X137649360Y-70721000D01*
X137190640Y-70721000D01*
X137163062Y-70718284D01*
X137142443Y-70712029D01*
X137123447Y-70701876D01*
X137106792Y-70688208D01*
X137093124Y-70671553D01*
X137082971Y-70652557D01*
X137076716Y-70631938D01*
X137074000Y-70604360D01*
X137074000Y-70095640D01*
X137076716Y-70068062D01*
X137082971Y-70047443D01*
X137093124Y-70028447D01*
X137106792Y-70011792D01*
X137123447Y-69998124D01*
X137142443Y-69987971D01*
X137163062Y-69981716D01*
X137190640Y-69979000D01*
X137649360Y-69979000D01*
X137676938Y-69981716D01*
X137676938Y-69981716D01*
G37*
G36*
X136706938Y-69981716D02*
G01*
X136727557Y-69987971D01*
X136746553Y-69998124D01*
X136763208Y-70011792D01*
X136776876Y-70028447D01*
X136787029Y-70047443D01*
X136793284Y-70068062D01*
X136796000Y-70095640D01*
X136796000Y-70604360D01*
X136793284Y-70631938D01*
X136787029Y-70652557D01*
X136776876Y-70671553D01*
X136763208Y-70688208D01*
X136746553Y-70701876D01*
X136727557Y-70712029D01*
X136706938Y-70718284D01*
X136679360Y-70721000D01*
X136220640Y-70721000D01*
X136193062Y-70718284D01*
X136172443Y-70712029D01*
X136153447Y-70701876D01*
X136136792Y-70688208D01*
X136123124Y-70671553D01*
X136112971Y-70652557D01*
X136106716Y-70631938D01*
X136104000Y-70604360D01*
X136104000Y-70095640D01*
X136106716Y-70068062D01*
X136112971Y-70047443D01*
X136123124Y-70028447D01*
X136136792Y-70011792D01*
X136153447Y-69998124D01*
X136172443Y-69987971D01*
X136193062Y-69981716D01*
X136220640Y-69979000D01*
X136679360Y-69979000D01*
X136706938Y-69981716D01*
X136706938Y-69981716D01*
G37*
G36*
X137676938Y-68981716D02*
G01*
X137697557Y-68987971D01*
X137716553Y-68998124D01*
X137733208Y-69011792D01*
X137746876Y-69028447D01*
X137757029Y-69047443D01*
X137763284Y-69068062D01*
X137766000Y-69095640D01*
X137766000Y-69604360D01*
X137763284Y-69631938D01*
X137757029Y-69652557D01*
X137746876Y-69671553D01*
X137733208Y-69688208D01*
X137716553Y-69701876D01*
X137697557Y-69712029D01*
X137676938Y-69718284D01*
X137649360Y-69721000D01*
X137190640Y-69721000D01*
X137163062Y-69718284D01*
X137142443Y-69712029D01*
X137123447Y-69701876D01*
X137106792Y-69688208D01*
X137093124Y-69671553D01*
X137082971Y-69652557D01*
X137076716Y-69631938D01*
X137074000Y-69604360D01*
X137074000Y-69095640D01*
X137076716Y-69068062D01*
X137082971Y-69047443D01*
X137093124Y-69028447D01*
X137106792Y-69011792D01*
X137123447Y-68998124D01*
X137142443Y-68987971D01*
X137163062Y-68981716D01*
X137190640Y-68979000D01*
X137649360Y-68979000D01*
X137676938Y-68981716D01*
X137676938Y-68981716D01*
G37*
G36*
X135736938Y-68981716D02*
G01*
X135757557Y-68987971D01*
X135776553Y-68998124D01*
X135793208Y-69011792D01*
X135806876Y-69028447D01*
X135817029Y-69047443D01*
X135823284Y-69068062D01*
X135826000Y-69095640D01*
X135826000Y-69604360D01*
X135823284Y-69631938D01*
X135817029Y-69652557D01*
X135806876Y-69671553D01*
X135793208Y-69688208D01*
X135776553Y-69701876D01*
X135757557Y-69712029D01*
X135736938Y-69718284D01*
X135709360Y-69721000D01*
X135250640Y-69721000D01*
X135223062Y-69718284D01*
X135202443Y-69712029D01*
X135183447Y-69701876D01*
X135166792Y-69688208D01*
X135153124Y-69671553D01*
X135142971Y-69652557D01*
X135136716Y-69631938D01*
X135134000Y-69604360D01*
X135134000Y-69095640D01*
X135136716Y-69068062D01*
X135142971Y-69047443D01*
X135153124Y-69028447D01*
X135166792Y-69011792D01*
X135183447Y-68998124D01*
X135202443Y-68987971D01*
X135223062Y-68981716D01*
X135250640Y-68979000D01*
X135709360Y-68979000D01*
X135736938Y-68981716D01*
X135736938Y-68981716D01*
G37*
G36*
X136706938Y-68981716D02*
G01*
X136727557Y-68987971D01*
X136746553Y-68998124D01*
X136763208Y-69011792D01*
X136776876Y-69028447D01*
X136787029Y-69047443D01*
X136793284Y-69068062D01*
X136796000Y-69095640D01*
X136796000Y-69604360D01*
X136793284Y-69631938D01*
X136787029Y-69652557D01*
X136776876Y-69671553D01*
X136763208Y-69688208D01*
X136746553Y-69701876D01*
X136727557Y-69712029D01*
X136706938Y-69718284D01*
X136679360Y-69721000D01*
X136220640Y-69721000D01*
X136193062Y-69718284D01*
X136172443Y-69712029D01*
X136153447Y-69701876D01*
X136136792Y-69688208D01*
X136123124Y-69671553D01*
X136112971Y-69652557D01*
X136106716Y-69631938D01*
X136104000Y-69604360D01*
X136104000Y-69095640D01*
X136106716Y-69068062D01*
X136112971Y-69047443D01*
X136123124Y-69028447D01*
X136136792Y-69011792D01*
X136153447Y-68998124D01*
X136172443Y-68987971D01*
X136193062Y-68981716D01*
X136220640Y-68979000D01*
X136679360Y-68979000D01*
X136706938Y-68981716D01*
X136706938Y-68981716D01*
G37*
G36*
X167330442Y-61805518D02*
G01*
X167396627Y-61812037D01*
X167566466Y-61863557D01*
X167722991Y-61947222D01*
X167752909Y-61971775D01*
X167860186Y-62059814D01*
X167943448Y-62161271D01*
X167972778Y-62197009D01*
X168056443Y-62353534D01*
X168107963Y-62523373D01*
X168125359Y-62700000D01*
X168107963Y-62876627D01*
X168056443Y-63046466D01*
X167972778Y-63202991D01*
X167943728Y-63238388D01*
X167860186Y-63340186D01*
X167758729Y-63423448D01*
X167722991Y-63452778D01*
X167566466Y-63536443D01*
X167396627Y-63587963D01*
X167352145Y-63592344D01*
X167264260Y-63601000D01*
X167175740Y-63601000D01*
X167087855Y-63592344D01*
X167043373Y-63587963D01*
X166873534Y-63536443D01*
X166717009Y-63452778D01*
X166681271Y-63423448D01*
X166579814Y-63340186D01*
X166496272Y-63238388D01*
X166467222Y-63202991D01*
X166383557Y-63046466D01*
X166332037Y-62876627D01*
X166314641Y-62700000D01*
X166332037Y-62523373D01*
X166383557Y-62353534D01*
X166467222Y-62197009D01*
X166496552Y-62161271D01*
X166579814Y-62059814D01*
X166687091Y-61971775D01*
X166717009Y-61947222D01*
X166873534Y-61863557D01*
X167043373Y-61812037D01*
X167109558Y-61805518D01*
X167175740Y-61799000D01*
X167264260Y-61799000D01*
X167330442Y-61805518D01*
X167330442Y-61805518D01*
G37*
G36*
X169870442Y-61805518D02*
G01*
X169936627Y-61812037D01*
X170106466Y-61863557D01*
X170262991Y-61947222D01*
X170292909Y-61971775D01*
X170400186Y-62059814D01*
X170483448Y-62161271D01*
X170512778Y-62197009D01*
X170596443Y-62353534D01*
X170647963Y-62523373D01*
X170665359Y-62700000D01*
X170647963Y-62876627D01*
X170596443Y-63046466D01*
X170512778Y-63202991D01*
X170483728Y-63238388D01*
X170400186Y-63340186D01*
X170298729Y-63423448D01*
X170262991Y-63452778D01*
X170106466Y-63536443D01*
X169936627Y-63587963D01*
X169892145Y-63592344D01*
X169804260Y-63601000D01*
X169715740Y-63601000D01*
X169627855Y-63592344D01*
X169583373Y-63587963D01*
X169413534Y-63536443D01*
X169257009Y-63452778D01*
X169221271Y-63423448D01*
X169119814Y-63340186D01*
X169036272Y-63238388D01*
X169007222Y-63202991D01*
X168923557Y-63046466D01*
X168872037Y-62876627D01*
X168854641Y-62700000D01*
X168872037Y-62523373D01*
X168923557Y-62353534D01*
X169007222Y-62197009D01*
X169036552Y-62161271D01*
X169119814Y-62059814D01*
X169227091Y-61971775D01*
X169257009Y-61947222D01*
X169413534Y-61863557D01*
X169583373Y-61812037D01*
X169649558Y-61805518D01*
X169715740Y-61799000D01*
X169804260Y-61799000D01*
X169870442Y-61805518D01*
X169870442Y-61805518D01*
G37*
G36*
X134788578Y-61807048D02*
G01*
X134861249Y-61829093D01*
X134928225Y-61864892D01*
X134986930Y-61913070D01*
X135035108Y-61971775D01*
X135070907Y-62038751D01*
X135092952Y-62111422D01*
X135101000Y-62193140D01*
X135101000Y-63206860D01*
X135092952Y-63288578D01*
X135070907Y-63361249D01*
X135035108Y-63428225D01*
X134986930Y-63486930D01*
X134928225Y-63535108D01*
X134861249Y-63570907D01*
X134788578Y-63592952D01*
X134706860Y-63601000D01*
X133693140Y-63601000D01*
X133611422Y-63592952D01*
X133538751Y-63570907D01*
X133471775Y-63535108D01*
X133413070Y-63486930D01*
X133364892Y-63428225D01*
X133329093Y-63361249D01*
X133307048Y-63288578D01*
X133299000Y-63206860D01*
X133299000Y-62193140D01*
X133307048Y-62111422D01*
X133329093Y-62038751D01*
X133364892Y-61971775D01*
X133413070Y-61913070D01*
X133471775Y-61864892D01*
X133538751Y-61829093D01*
X133611422Y-61807048D01*
X133693140Y-61799000D01*
X134706860Y-61799000D01*
X134788578Y-61807048D01*
X134788578Y-61807048D01*
G37*
G36*
X136850442Y-61805518D02*
G01*
X136916627Y-61812037D01*
X137086466Y-61863557D01*
X137242991Y-61947222D01*
X137272909Y-61971775D01*
X137380186Y-62059814D01*
X137463448Y-62161271D01*
X137492778Y-62197009D01*
X137576443Y-62353534D01*
X137627963Y-62523373D01*
X137645359Y-62700000D01*
X137627963Y-62876627D01*
X137576443Y-63046466D01*
X137492778Y-63202991D01*
X137463728Y-63238388D01*
X137380186Y-63340186D01*
X137278729Y-63423448D01*
X137242991Y-63452778D01*
X137086466Y-63536443D01*
X136916627Y-63587963D01*
X136872145Y-63592344D01*
X136784260Y-63601000D01*
X136695740Y-63601000D01*
X136607855Y-63592344D01*
X136563373Y-63587963D01*
X136393534Y-63536443D01*
X136237009Y-63452778D01*
X136201271Y-63423448D01*
X136099814Y-63340186D01*
X136016272Y-63238388D01*
X135987222Y-63202991D01*
X135903557Y-63046466D01*
X135852037Y-62876627D01*
X135834641Y-62700000D01*
X135852037Y-62523373D01*
X135903557Y-62353534D01*
X135987222Y-62197009D01*
X136016552Y-62161271D01*
X136099814Y-62059814D01*
X136207091Y-61971775D01*
X136237009Y-61947222D01*
X136393534Y-61863557D01*
X136563373Y-61812037D01*
X136629558Y-61805518D01*
X136695740Y-61799000D01*
X136784260Y-61799000D01*
X136850442Y-61805518D01*
X136850442Y-61805518D01*
G37*
G36*
X139390442Y-61805518D02*
G01*
X139456627Y-61812037D01*
X139626466Y-61863557D01*
X139782991Y-61947222D01*
X139812909Y-61971775D01*
X139920186Y-62059814D01*
X140003448Y-62161271D01*
X140032778Y-62197009D01*
X140116443Y-62353534D01*
X140167963Y-62523373D01*
X140185359Y-62700000D01*
X140167963Y-62876627D01*
X140116443Y-63046466D01*
X140032778Y-63202991D01*
X140003728Y-63238388D01*
X139920186Y-63340186D01*
X139818729Y-63423448D01*
X139782991Y-63452778D01*
X139626466Y-63536443D01*
X139456627Y-63587963D01*
X139412145Y-63592344D01*
X139324260Y-63601000D01*
X139235740Y-63601000D01*
X139147855Y-63592344D01*
X139103373Y-63587963D01*
X138933534Y-63536443D01*
X138777009Y-63452778D01*
X138741271Y-63423448D01*
X138639814Y-63340186D01*
X138556272Y-63238388D01*
X138527222Y-63202991D01*
X138443557Y-63046466D01*
X138392037Y-62876627D01*
X138374641Y-62700000D01*
X138392037Y-62523373D01*
X138443557Y-62353534D01*
X138527222Y-62197009D01*
X138556552Y-62161271D01*
X138639814Y-62059814D01*
X138747091Y-61971775D01*
X138777009Y-61947222D01*
X138933534Y-61863557D01*
X139103373Y-61812037D01*
X139169558Y-61805518D01*
X139235740Y-61799000D01*
X139324260Y-61799000D01*
X139390442Y-61805518D01*
X139390442Y-61805518D01*
G37*
G36*
X141930442Y-61805518D02*
G01*
X141996627Y-61812037D01*
X142166466Y-61863557D01*
X142322991Y-61947222D01*
X142352909Y-61971775D01*
X142460186Y-62059814D01*
X142543448Y-62161271D01*
X142572778Y-62197009D01*
X142656443Y-62353534D01*
X142707963Y-62523373D01*
X142725359Y-62700000D01*
X142707963Y-62876627D01*
X142656443Y-63046466D01*
X142572778Y-63202991D01*
X142543728Y-63238388D01*
X142460186Y-63340186D01*
X142358729Y-63423448D01*
X142322991Y-63452778D01*
X142166466Y-63536443D01*
X141996627Y-63587963D01*
X141952145Y-63592344D01*
X141864260Y-63601000D01*
X141775740Y-63601000D01*
X141687855Y-63592344D01*
X141643373Y-63587963D01*
X141473534Y-63536443D01*
X141317009Y-63452778D01*
X141281271Y-63423448D01*
X141179814Y-63340186D01*
X141096272Y-63238388D01*
X141067222Y-63202991D01*
X140983557Y-63046466D01*
X140932037Y-62876627D01*
X140914641Y-62700000D01*
X140932037Y-62523373D01*
X140983557Y-62353534D01*
X141067222Y-62197009D01*
X141096552Y-62161271D01*
X141179814Y-62059814D01*
X141287091Y-61971775D01*
X141317009Y-61947222D01*
X141473534Y-61863557D01*
X141643373Y-61812037D01*
X141709558Y-61805518D01*
X141775740Y-61799000D01*
X141864260Y-61799000D01*
X141930442Y-61805518D01*
X141930442Y-61805518D01*
G37*
G36*
X147010442Y-61805518D02*
G01*
X147076627Y-61812037D01*
X147246466Y-61863557D01*
X147402991Y-61947222D01*
X147432909Y-61971775D01*
X147540186Y-62059814D01*
X147623448Y-62161271D01*
X147652778Y-62197009D01*
X147736443Y-62353534D01*
X147787963Y-62523373D01*
X147805359Y-62700000D01*
X147787963Y-62876627D01*
X147736443Y-63046466D01*
X147652778Y-63202991D01*
X147623728Y-63238388D01*
X147540186Y-63340186D01*
X147438729Y-63423448D01*
X147402991Y-63452778D01*
X147246466Y-63536443D01*
X147076627Y-63587963D01*
X147032145Y-63592344D01*
X146944260Y-63601000D01*
X146855740Y-63601000D01*
X146767855Y-63592344D01*
X146723373Y-63587963D01*
X146553534Y-63536443D01*
X146397009Y-63452778D01*
X146361271Y-63423448D01*
X146259814Y-63340186D01*
X146176272Y-63238388D01*
X146147222Y-63202991D01*
X146063557Y-63046466D01*
X146012037Y-62876627D01*
X145994641Y-62700000D01*
X146012037Y-62523373D01*
X146063557Y-62353534D01*
X146147222Y-62197009D01*
X146176552Y-62161271D01*
X146259814Y-62059814D01*
X146367091Y-61971775D01*
X146397009Y-61947222D01*
X146553534Y-61863557D01*
X146723373Y-61812037D01*
X146789558Y-61805518D01*
X146855740Y-61799000D01*
X146944260Y-61799000D01*
X147010442Y-61805518D01*
X147010442Y-61805518D01*
G37*
G36*
X159710442Y-61805518D02*
G01*
X159776627Y-61812037D01*
X159946466Y-61863557D01*
X160102991Y-61947222D01*
X160132909Y-61971775D01*
X160240186Y-62059814D01*
X160323448Y-62161271D01*
X160352778Y-62197009D01*
X160436443Y-62353534D01*
X160487963Y-62523373D01*
X160505359Y-62700000D01*
X160487963Y-62876627D01*
X160436443Y-63046466D01*
X160352778Y-63202991D01*
X160323728Y-63238388D01*
X160240186Y-63340186D01*
X160138729Y-63423448D01*
X160102991Y-63452778D01*
X159946466Y-63536443D01*
X159776627Y-63587963D01*
X159732145Y-63592344D01*
X159644260Y-63601000D01*
X159555740Y-63601000D01*
X159467855Y-63592344D01*
X159423373Y-63587963D01*
X159253534Y-63536443D01*
X159097009Y-63452778D01*
X159061271Y-63423448D01*
X158959814Y-63340186D01*
X158876272Y-63238388D01*
X158847222Y-63202991D01*
X158763557Y-63046466D01*
X158712037Y-62876627D01*
X158694641Y-62700000D01*
X158712037Y-62523373D01*
X158763557Y-62353534D01*
X158847222Y-62197009D01*
X158876552Y-62161271D01*
X158959814Y-62059814D01*
X159067091Y-61971775D01*
X159097009Y-61947222D01*
X159253534Y-61863557D01*
X159423373Y-61812037D01*
X159489558Y-61805518D01*
X159555740Y-61799000D01*
X159644260Y-61799000D01*
X159710442Y-61805518D01*
X159710442Y-61805518D01*
G37*
G36*
X164790442Y-61805518D02*
G01*
X164856627Y-61812037D01*
X165026466Y-61863557D01*
X165182991Y-61947222D01*
X165212909Y-61971775D01*
X165320186Y-62059814D01*
X165403448Y-62161271D01*
X165432778Y-62197009D01*
X165516443Y-62353534D01*
X165567963Y-62523373D01*
X165585359Y-62700000D01*
X165567963Y-62876627D01*
X165516443Y-63046466D01*
X165432778Y-63202991D01*
X165403728Y-63238388D01*
X165320186Y-63340186D01*
X165218729Y-63423448D01*
X165182991Y-63452778D01*
X165026466Y-63536443D01*
X164856627Y-63587963D01*
X164812145Y-63592344D01*
X164724260Y-63601000D01*
X164635740Y-63601000D01*
X164547855Y-63592344D01*
X164503373Y-63587963D01*
X164333534Y-63536443D01*
X164177009Y-63452778D01*
X164141271Y-63423448D01*
X164039814Y-63340186D01*
X163956272Y-63238388D01*
X163927222Y-63202991D01*
X163843557Y-63046466D01*
X163792037Y-62876627D01*
X163774641Y-62700000D01*
X163792037Y-62523373D01*
X163843557Y-62353534D01*
X163927222Y-62197009D01*
X163956552Y-62161271D01*
X164039814Y-62059814D01*
X164147091Y-61971775D01*
X164177009Y-61947222D01*
X164333534Y-61863557D01*
X164503373Y-61812037D01*
X164569558Y-61805518D01*
X164635740Y-61799000D01*
X164724260Y-61799000D01*
X164790442Y-61805518D01*
X164790442Y-61805518D01*
G37*
G36*
X157648578Y-61807048D02*
G01*
X157721249Y-61829093D01*
X157788225Y-61864892D01*
X157846930Y-61913070D01*
X157895108Y-61971775D01*
X157930907Y-62038751D01*
X157952952Y-62111422D01*
X157961000Y-62193140D01*
X157961000Y-63206860D01*
X157952952Y-63288578D01*
X157930907Y-63361249D01*
X157895108Y-63428225D01*
X157846930Y-63486930D01*
X157788225Y-63535108D01*
X157721249Y-63570907D01*
X157648578Y-63592952D01*
X157566860Y-63601000D01*
X156553140Y-63601000D01*
X156471422Y-63592952D01*
X156398751Y-63570907D01*
X156331775Y-63535108D01*
X156273070Y-63486930D01*
X156224892Y-63428225D01*
X156189093Y-63361249D01*
X156167048Y-63288578D01*
X156159000Y-63206860D01*
X156159000Y-62193140D01*
X156167048Y-62111422D01*
X156189093Y-62038751D01*
X156224892Y-61971775D01*
X156273070Y-61913070D01*
X156331775Y-61864892D01*
X156398751Y-61829093D01*
X156471422Y-61807048D01*
X156553140Y-61799000D01*
X157566860Y-61799000D01*
X157648578Y-61807048D01*
X157648578Y-61807048D01*
G37*
G36*
X162250442Y-61805518D02*
G01*
X162316627Y-61812037D01*
X162486466Y-61863557D01*
X162642991Y-61947222D01*
X162672909Y-61971775D01*
X162780186Y-62059814D01*
X162863448Y-62161271D01*
X162892778Y-62197009D01*
X162976443Y-62353534D01*
X163027963Y-62523373D01*
X163045359Y-62700000D01*
X163027963Y-62876627D01*
X162976443Y-63046466D01*
X162892778Y-63202991D01*
X162863728Y-63238388D01*
X162780186Y-63340186D01*
X162678729Y-63423448D01*
X162642991Y-63452778D01*
X162486466Y-63536443D01*
X162316627Y-63587963D01*
X162272145Y-63592344D01*
X162184260Y-63601000D01*
X162095740Y-63601000D01*
X162007855Y-63592344D01*
X161963373Y-63587963D01*
X161793534Y-63536443D01*
X161637009Y-63452778D01*
X161601271Y-63423448D01*
X161499814Y-63340186D01*
X161416272Y-63238388D01*
X161387222Y-63202991D01*
X161303557Y-63046466D01*
X161252037Y-62876627D01*
X161234641Y-62700000D01*
X161252037Y-62523373D01*
X161303557Y-62353534D01*
X161387222Y-62197009D01*
X161416552Y-62161271D01*
X161499814Y-62059814D01*
X161607091Y-61971775D01*
X161637009Y-61947222D01*
X161793534Y-61863557D01*
X161963373Y-61812037D01*
X162029558Y-61805518D01*
X162095740Y-61799000D01*
X162184260Y-61799000D01*
X162250442Y-61805518D01*
X162250442Y-61805518D01*
G37*
G36*
X152901000Y-63601000D02*
G01*
X151099000Y-63601000D01*
X151099000Y-61799000D01*
X152901000Y-61799000D01*
X152901000Y-63601000D01*
X152901000Y-63601000D01*
G37*
G36*
X144470442Y-61805518D02*
G01*
X144536627Y-61812037D01*
X144706466Y-61863557D01*
X144862991Y-61947222D01*
X144892909Y-61971775D01*
X145000186Y-62059814D01*
X145083448Y-62161271D01*
X145112778Y-62197009D01*
X145196443Y-62353534D01*
X145247963Y-62523373D01*
X145265359Y-62700000D01*
X145247963Y-62876627D01*
X145196443Y-63046466D01*
X145112778Y-63202991D01*
X145083728Y-63238388D01*
X145000186Y-63340186D01*
X144898729Y-63423448D01*
X144862991Y-63452778D01*
X144706466Y-63536443D01*
X144536627Y-63587963D01*
X144492145Y-63592344D01*
X144404260Y-63601000D01*
X144315740Y-63601000D01*
X144227855Y-63592344D01*
X144183373Y-63587963D01*
X144013534Y-63536443D01*
X143857009Y-63452778D01*
X143821271Y-63423448D01*
X143719814Y-63340186D01*
X143636272Y-63238388D01*
X143607222Y-63202991D01*
X143523557Y-63046466D01*
X143472037Y-62876627D01*
X143454641Y-62700000D01*
X143472037Y-62523373D01*
X143523557Y-62353534D01*
X143607222Y-62197009D01*
X143636552Y-62161271D01*
X143719814Y-62059814D01*
X143827091Y-61971775D01*
X143857009Y-61947222D01*
X144013534Y-61863557D01*
X144183373Y-61812037D01*
X144249558Y-61805518D01*
X144315740Y-61799000D01*
X144404260Y-61799000D01*
X144470442Y-61805518D01*
X144470442Y-61805518D01*
G37*
G36*
X136850442Y-59265518D02*
G01*
X136916627Y-59272037D01*
X137086466Y-59323557D01*
X137242991Y-59407222D01*
X137278729Y-59436552D01*
X137380186Y-59519814D01*
X137463448Y-59621271D01*
X137492778Y-59657009D01*
X137576443Y-59813534D01*
X137627963Y-59983373D01*
X137645359Y-60160000D01*
X137627963Y-60336627D01*
X137576443Y-60506466D01*
X137492778Y-60662991D01*
X137463448Y-60698729D01*
X137380186Y-60800186D01*
X137278729Y-60883448D01*
X137242991Y-60912778D01*
X137086466Y-60996443D01*
X136916627Y-61047963D01*
X136850443Y-61054481D01*
X136784260Y-61061000D01*
X136695740Y-61061000D01*
X136629557Y-61054481D01*
X136563373Y-61047963D01*
X136393534Y-60996443D01*
X136237009Y-60912778D01*
X136201271Y-60883448D01*
X136099814Y-60800186D01*
X136016552Y-60698729D01*
X135987222Y-60662991D01*
X135903557Y-60506466D01*
X135852037Y-60336627D01*
X135834641Y-60160000D01*
X135852037Y-59983373D01*
X135903557Y-59813534D01*
X135987222Y-59657009D01*
X136016552Y-59621271D01*
X136099814Y-59519814D01*
X136201271Y-59436552D01*
X136237009Y-59407222D01*
X136393534Y-59323557D01*
X136563373Y-59272037D01*
X136629558Y-59265518D01*
X136695740Y-59259000D01*
X136784260Y-59259000D01*
X136850442Y-59265518D01*
X136850442Y-59265518D01*
G37*
G36*
X147010442Y-59265518D02*
G01*
X147076627Y-59272037D01*
X147246466Y-59323557D01*
X147402991Y-59407222D01*
X147438729Y-59436552D01*
X147540186Y-59519814D01*
X147623448Y-59621271D01*
X147652778Y-59657009D01*
X147736443Y-59813534D01*
X147787963Y-59983373D01*
X147805359Y-60160000D01*
X147787963Y-60336627D01*
X147736443Y-60506466D01*
X147652778Y-60662991D01*
X147623448Y-60698729D01*
X147540186Y-60800186D01*
X147438729Y-60883448D01*
X147402991Y-60912778D01*
X147246466Y-60996443D01*
X147076627Y-61047963D01*
X147010443Y-61054481D01*
X146944260Y-61061000D01*
X146855740Y-61061000D01*
X146789557Y-61054481D01*
X146723373Y-61047963D01*
X146553534Y-60996443D01*
X146397009Y-60912778D01*
X146361271Y-60883448D01*
X146259814Y-60800186D01*
X146176552Y-60698729D01*
X146147222Y-60662991D01*
X146063557Y-60506466D01*
X146012037Y-60336627D01*
X145994641Y-60160000D01*
X146012037Y-59983373D01*
X146063557Y-59813534D01*
X146147222Y-59657009D01*
X146176552Y-59621271D01*
X146259814Y-59519814D01*
X146361271Y-59436552D01*
X146397009Y-59407222D01*
X146553534Y-59323557D01*
X146723373Y-59272037D01*
X146789558Y-59265518D01*
X146855740Y-59259000D01*
X146944260Y-59259000D01*
X147010442Y-59265518D01*
X147010442Y-59265518D01*
G37*
G36*
X144470442Y-59265518D02*
G01*
X144536627Y-59272037D01*
X144706466Y-59323557D01*
X144862991Y-59407222D01*
X144898729Y-59436552D01*
X145000186Y-59519814D01*
X145083448Y-59621271D01*
X145112778Y-59657009D01*
X145196443Y-59813534D01*
X145247963Y-59983373D01*
X145265359Y-60160000D01*
X145247963Y-60336627D01*
X145196443Y-60506466D01*
X145112778Y-60662991D01*
X145083448Y-60698729D01*
X145000186Y-60800186D01*
X144898729Y-60883448D01*
X144862991Y-60912778D01*
X144706466Y-60996443D01*
X144536627Y-61047963D01*
X144470443Y-61054481D01*
X144404260Y-61061000D01*
X144315740Y-61061000D01*
X144249557Y-61054481D01*
X144183373Y-61047963D01*
X144013534Y-60996443D01*
X143857009Y-60912778D01*
X143821271Y-60883448D01*
X143719814Y-60800186D01*
X143636552Y-60698729D01*
X143607222Y-60662991D01*
X143523557Y-60506466D01*
X143472037Y-60336627D01*
X143454641Y-60160000D01*
X143472037Y-59983373D01*
X143523557Y-59813534D01*
X143607222Y-59657009D01*
X143636552Y-59621271D01*
X143719814Y-59519814D01*
X143821271Y-59436552D01*
X143857009Y-59407222D01*
X144013534Y-59323557D01*
X144183373Y-59272037D01*
X144249558Y-59265518D01*
X144315740Y-59259000D01*
X144404260Y-59259000D01*
X144470442Y-59265518D01*
X144470442Y-59265518D01*
G37*
G36*
X141930442Y-59265518D02*
G01*
X141996627Y-59272037D01*
X142166466Y-59323557D01*
X142322991Y-59407222D01*
X142358729Y-59436552D01*
X142460186Y-59519814D01*
X142543448Y-59621271D01*
X142572778Y-59657009D01*
X142656443Y-59813534D01*
X142707963Y-59983373D01*
X142725359Y-60160000D01*
X142707963Y-60336627D01*
X142656443Y-60506466D01*
X142572778Y-60662991D01*
X142543448Y-60698729D01*
X142460186Y-60800186D01*
X142358729Y-60883448D01*
X142322991Y-60912778D01*
X142166466Y-60996443D01*
X141996627Y-61047963D01*
X141930443Y-61054481D01*
X141864260Y-61061000D01*
X141775740Y-61061000D01*
X141709557Y-61054481D01*
X141643373Y-61047963D01*
X141473534Y-60996443D01*
X141317009Y-60912778D01*
X141281271Y-60883448D01*
X141179814Y-60800186D01*
X141096552Y-60698729D01*
X141067222Y-60662991D01*
X140983557Y-60506466D01*
X140932037Y-60336627D01*
X140914641Y-60160000D01*
X140932037Y-59983373D01*
X140983557Y-59813534D01*
X141067222Y-59657009D01*
X141096552Y-59621271D01*
X141179814Y-59519814D01*
X141281271Y-59436552D01*
X141317009Y-59407222D01*
X141473534Y-59323557D01*
X141643373Y-59272037D01*
X141709558Y-59265518D01*
X141775740Y-59259000D01*
X141864260Y-59259000D01*
X141930442Y-59265518D01*
X141930442Y-59265518D01*
G37*
G36*
X134310442Y-59265518D02*
G01*
X134376627Y-59272037D01*
X134546466Y-59323557D01*
X134702991Y-59407222D01*
X134738729Y-59436552D01*
X134840186Y-59519814D01*
X134923448Y-59621271D01*
X134952778Y-59657009D01*
X135036443Y-59813534D01*
X135087963Y-59983373D01*
X135105359Y-60160000D01*
X135087963Y-60336627D01*
X135036443Y-60506466D01*
X134952778Y-60662991D01*
X134923448Y-60698729D01*
X134840186Y-60800186D01*
X134738729Y-60883448D01*
X134702991Y-60912778D01*
X134546466Y-60996443D01*
X134376627Y-61047963D01*
X134310443Y-61054481D01*
X134244260Y-61061000D01*
X134155740Y-61061000D01*
X134089557Y-61054481D01*
X134023373Y-61047963D01*
X133853534Y-60996443D01*
X133697009Y-60912778D01*
X133661271Y-60883448D01*
X133559814Y-60800186D01*
X133476552Y-60698729D01*
X133447222Y-60662991D01*
X133363557Y-60506466D01*
X133312037Y-60336627D01*
X133294641Y-60160000D01*
X133312037Y-59983373D01*
X133363557Y-59813534D01*
X133447222Y-59657009D01*
X133476552Y-59621271D01*
X133559814Y-59519814D01*
X133661271Y-59436552D01*
X133697009Y-59407222D01*
X133853534Y-59323557D01*
X134023373Y-59272037D01*
X134089558Y-59265518D01*
X134155740Y-59259000D01*
X134244260Y-59259000D01*
X134310442Y-59265518D01*
X134310442Y-59265518D01*
G37*
G36*
X139390442Y-59265518D02*
G01*
X139456627Y-59272037D01*
X139626466Y-59323557D01*
X139782991Y-59407222D01*
X139818729Y-59436552D01*
X139920186Y-59519814D01*
X140003448Y-59621271D01*
X140032778Y-59657009D01*
X140116443Y-59813534D01*
X140167963Y-59983373D01*
X140185359Y-60160000D01*
X140167963Y-60336627D01*
X140116443Y-60506466D01*
X140032778Y-60662991D01*
X140003448Y-60698729D01*
X139920186Y-60800186D01*
X139818729Y-60883448D01*
X139782991Y-60912778D01*
X139626466Y-60996443D01*
X139456627Y-61047963D01*
X139390443Y-61054481D01*
X139324260Y-61061000D01*
X139235740Y-61061000D01*
X139169557Y-61054481D01*
X139103373Y-61047963D01*
X138933534Y-60996443D01*
X138777009Y-60912778D01*
X138741271Y-60883448D01*
X138639814Y-60800186D01*
X138556552Y-60698729D01*
X138527222Y-60662991D01*
X138443557Y-60506466D01*
X138392037Y-60336627D01*
X138374641Y-60160000D01*
X138392037Y-59983373D01*
X138443557Y-59813534D01*
X138527222Y-59657009D01*
X138556552Y-59621271D01*
X138639814Y-59519814D01*
X138741271Y-59436552D01*
X138777009Y-59407222D01*
X138933534Y-59323557D01*
X139103373Y-59272037D01*
X139169558Y-59265518D01*
X139235740Y-59259000D01*
X139324260Y-59259000D01*
X139390442Y-59265518D01*
X139390442Y-59265518D01*
G37*
G36*
X169870442Y-59265518D02*
G01*
X169936627Y-59272037D01*
X170106466Y-59323557D01*
X170262991Y-59407222D01*
X170298729Y-59436552D01*
X170400186Y-59519814D01*
X170483448Y-59621271D01*
X170512778Y-59657009D01*
X170596443Y-59813534D01*
X170647963Y-59983373D01*
X170665359Y-60160000D01*
X170647963Y-60336627D01*
X170596443Y-60506466D01*
X170512778Y-60662991D01*
X170483448Y-60698729D01*
X170400186Y-60800186D01*
X170298729Y-60883448D01*
X170262991Y-60912778D01*
X170106466Y-60996443D01*
X169936627Y-61047963D01*
X169870443Y-61054481D01*
X169804260Y-61061000D01*
X169715740Y-61061000D01*
X169649557Y-61054481D01*
X169583373Y-61047963D01*
X169413534Y-60996443D01*
X169257009Y-60912778D01*
X169221271Y-60883448D01*
X169119814Y-60800186D01*
X169036552Y-60698729D01*
X169007222Y-60662991D01*
X168923557Y-60506466D01*
X168872037Y-60336627D01*
X168854641Y-60160000D01*
X168872037Y-59983373D01*
X168923557Y-59813534D01*
X169007222Y-59657009D01*
X169036552Y-59621271D01*
X169119814Y-59519814D01*
X169221271Y-59436552D01*
X169257009Y-59407222D01*
X169413534Y-59323557D01*
X169583373Y-59272037D01*
X169649558Y-59265518D01*
X169715740Y-59259000D01*
X169804260Y-59259000D01*
X169870442Y-59265518D01*
X169870442Y-59265518D01*
G37*
G36*
X157170442Y-59265518D02*
G01*
X157236627Y-59272037D01*
X157406466Y-59323557D01*
X157562991Y-59407222D01*
X157598729Y-59436552D01*
X157700186Y-59519814D01*
X157783448Y-59621271D01*
X157812778Y-59657009D01*
X157896443Y-59813534D01*
X157947963Y-59983373D01*
X157965359Y-60160000D01*
X157947963Y-60336627D01*
X157896443Y-60506466D01*
X157812778Y-60662991D01*
X157783448Y-60698729D01*
X157700186Y-60800186D01*
X157598729Y-60883448D01*
X157562991Y-60912778D01*
X157406466Y-60996443D01*
X157236627Y-61047963D01*
X157170443Y-61054481D01*
X157104260Y-61061000D01*
X157015740Y-61061000D01*
X156949557Y-61054481D01*
X156883373Y-61047963D01*
X156713534Y-60996443D01*
X156557009Y-60912778D01*
X156521271Y-60883448D01*
X156419814Y-60800186D01*
X156336552Y-60698729D01*
X156307222Y-60662991D01*
X156223557Y-60506466D01*
X156172037Y-60336627D01*
X156154641Y-60160000D01*
X156172037Y-59983373D01*
X156223557Y-59813534D01*
X156307222Y-59657009D01*
X156336552Y-59621271D01*
X156419814Y-59519814D01*
X156521271Y-59436552D01*
X156557009Y-59407222D01*
X156713534Y-59323557D01*
X156883373Y-59272037D01*
X156949558Y-59265518D01*
X157015740Y-59259000D01*
X157104260Y-59259000D01*
X157170442Y-59265518D01*
X157170442Y-59265518D01*
G37*
G36*
X167330442Y-59265518D02*
G01*
X167396627Y-59272037D01*
X167566466Y-59323557D01*
X167722991Y-59407222D01*
X167758729Y-59436552D01*
X167860186Y-59519814D01*
X167943448Y-59621271D01*
X167972778Y-59657009D01*
X168056443Y-59813534D01*
X168107963Y-59983373D01*
X168125359Y-60160000D01*
X168107963Y-60336627D01*
X168056443Y-60506466D01*
X167972778Y-60662991D01*
X167943448Y-60698729D01*
X167860186Y-60800186D01*
X167758729Y-60883448D01*
X167722991Y-60912778D01*
X167566466Y-60996443D01*
X167396627Y-61047963D01*
X167330443Y-61054481D01*
X167264260Y-61061000D01*
X167175740Y-61061000D01*
X167109557Y-61054481D01*
X167043373Y-61047963D01*
X166873534Y-60996443D01*
X166717009Y-60912778D01*
X166681271Y-60883448D01*
X166579814Y-60800186D01*
X166496552Y-60698729D01*
X166467222Y-60662991D01*
X166383557Y-60506466D01*
X166332037Y-60336627D01*
X166314641Y-60160000D01*
X166332037Y-59983373D01*
X166383557Y-59813534D01*
X166467222Y-59657009D01*
X166496552Y-59621271D01*
X166579814Y-59519814D01*
X166681271Y-59436552D01*
X166717009Y-59407222D01*
X166873534Y-59323557D01*
X167043373Y-59272037D01*
X167109558Y-59265518D01*
X167175740Y-59259000D01*
X167264260Y-59259000D01*
X167330442Y-59265518D01*
X167330442Y-59265518D01*
G37*
G36*
X164790442Y-59265518D02*
G01*
X164856627Y-59272037D01*
X165026466Y-59323557D01*
X165182991Y-59407222D01*
X165218729Y-59436552D01*
X165320186Y-59519814D01*
X165403448Y-59621271D01*
X165432778Y-59657009D01*
X165516443Y-59813534D01*
X165567963Y-59983373D01*
X165585359Y-60160000D01*
X165567963Y-60336627D01*
X165516443Y-60506466D01*
X165432778Y-60662991D01*
X165403448Y-60698729D01*
X165320186Y-60800186D01*
X165218729Y-60883448D01*
X165182991Y-60912778D01*
X165026466Y-60996443D01*
X164856627Y-61047963D01*
X164790443Y-61054481D01*
X164724260Y-61061000D01*
X164635740Y-61061000D01*
X164569557Y-61054481D01*
X164503373Y-61047963D01*
X164333534Y-60996443D01*
X164177009Y-60912778D01*
X164141271Y-60883448D01*
X164039814Y-60800186D01*
X163956552Y-60698729D01*
X163927222Y-60662991D01*
X163843557Y-60506466D01*
X163792037Y-60336627D01*
X163774641Y-60160000D01*
X163792037Y-59983373D01*
X163843557Y-59813534D01*
X163927222Y-59657009D01*
X163956552Y-59621271D01*
X164039814Y-59519814D01*
X164141271Y-59436552D01*
X164177009Y-59407222D01*
X164333534Y-59323557D01*
X164503373Y-59272037D01*
X164569558Y-59265518D01*
X164635740Y-59259000D01*
X164724260Y-59259000D01*
X164790442Y-59265518D01*
X164790442Y-59265518D01*
G37*
G36*
X159710442Y-59265518D02*
G01*
X159776627Y-59272037D01*
X159946466Y-59323557D01*
X160102991Y-59407222D01*
X160138729Y-59436552D01*
X160240186Y-59519814D01*
X160323448Y-59621271D01*
X160352778Y-59657009D01*
X160436443Y-59813534D01*
X160487963Y-59983373D01*
X160505359Y-60160000D01*
X160487963Y-60336627D01*
X160436443Y-60506466D01*
X160352778Y-60662991D01*
X160323448Y-60698729D01*
X160240186Y-60800186D01*
X160138729Y-60883448D01*
X160102991Y-60912778D01*
X159946466Y-60996443D01*
X159776627Y-61047963D01*
X159710443Y-61054481D01*
X159644260Y-61061000D01*
X159555740Y-61061000D01*
X159489557Y-61054481D01*
X159423373Y-61047963D01*
X159253534Y-60996443D01*
X159097009Y-60912778D01*
X159061271Y-60883448D01*
X158959814Y-60800186D01*
X158876552Y-60698729D01*
X158847222Y-60662991D01*
X158763557Y-60506466D01*
X158712037Y-60336627D01*
X158694641Y-60160000D01*
X158712037Y-59983373D01*
X158763557Y-59813534D01*
X158847222Y-59657009D01*
X158876552Y-59621271D01*
X158959814Y-59519814D01*
X159061271Y-59436552D01*
X159097009Y-59407222D01*
X159253534Y-59323557D01*
X159423373Y-59272037D01*
X159489558Y-59265518D01*
X159555740Y-59259000D01*
X159644260Y-59259000D01*
X159710442Y-59265518D01*
X159710442Y-59265518D01*
G37*
G36*
X162250442Y-59265518D02*
G01*
X162316627Y-59272037D01*
X162486466Y-59323557D01*
X162642991Y-59407222D01*
X162678729Y-59436552D01*
X162780186Y-59519814D01*
X162863448Y-59621271D01*
X162892778Y-59657009D01*
X162976443Y-59813534D01*
X163027963Y-59983373D01*
X163045359Y-60160000D01*
X163027963Y-60336627D01*
X162976443Y-60506466D01*
X162892778Y-60662991D01*
X162863448Y-60698729D01*
X162780186Y-60800186D01*
X162678729Y-60883448D01*
X162642991Y-60912778D01*
X162486466Y-60996443D01*
X162316627Y-61047963D01*
X162250443Y-61054481D01*
X162184260Y-61061000D01*
X162095740Y-61061000D01*
X162029557Y-61054481D01*
X161963373Y-61047963D01*
X161793534Y-60996443D01*
X161637009Y-60912778D01*
X161601271Y-60883448D01*
X161499814Y-60800186D01*
X161416552Y-60698729D01*
X161387222Y-60662991D01*
X161303557Y-60506466D01*
X161252037Y-60336627D01*
X161234641Y-60160000D01*
X161252037Y-59983373D01*
X161303557Y-59813534D01*
X161387222Y-59657009D01*
X161416552Y-59621271D01*
X161499814Y-59519814D01*
X161601271Y-59436552D01*
X161637009Y-59407222D01*
X161793534Y-59323557D01*
X161963373Y-59272037D01*
X162029558Y-59265518D01*
X162095740Y-59259000D01*
X162184260Y-59259000D01*
X162250442Y-59265518D01*
X162250442Y-59265518D01*
G37*
G36*
X152110442Y-59265518D02*
G01*
X152176627Y-59272037D01*
X152346466Y-59323557D01*
X152502991Y-59407222D01*
X152538729Y-59436552D01*
X152640186Y-59519814D01*
X152723448Y-59621271D01*
X152752778Y-59657009D01*
X152836443Y-59813534D01*
X152887963Y-59983373D01*
X152905359Y-60160000D01*
X152887963Y-60336627D01*
X152836443Y-60506466D01*
X152752778Y-60662991D01*
X152723448Y-60698729D01*
X152640186Y-60800186D01*
X152538729Y-60883448D01*
X152502991Y-60912778D01*
X152346466Y-60996443D01*
X152176627Y-61047963D01*
X152110443Y-61054481D01*
X152044260Y-61061000D01*
X151955740Y-61061000D01*
X151889557Y-61054481D01*
X151823373Y-61047963D01*
X151653534Y-60996443D01*
X151497009Y-60912778D01*
X151461271Y-60883448D01*
X151359814Y-60800186D01*
X151276552Y-60698729D01*
X151247222Y-60662991D01*
X151163557Y-60506466D01*
X151112037Y-60336627D01*
X151094641Y-60160000D01*
X151112037Y-59983373D01*
X151163557Y-59813534D01*
X151247222Y-59657009D01*
X151276552Y-59621271D01*
X151359814Y-59519814D01*
X151461271Y-59436552D01*
X151497009Y-59407222D01*
X151653534Y-59323557D01*
X151823373Y-59272037D01*
X151889558Y-59265518D01*
X151955740Y-59259000D01*
X152044260Y-59259000D01*
X152110442Y-59265518D01*
X152110442Y-59265518D01*
G37*
G36*
X181525331Y-52268211D02*
G01*
X181853092Y-52403974D01*
X182148070Y-52601072D01*
X182398928Y-52851930D01*
X182596026Y-53146908D01*
X182731789Y-53474669D01*
X182801000Y-53822616D01*
X182801000Y-54177384D01*
X182731789Y-54525331D01*
X182596026Y-54853092D01*
X182398928Y-55148070D01*
X182148070Y-55398928D01*
X181853092Y-55596026D01*
X181525331Y-55731789D01*
X181177384Y-55801000D01*
X180822616Y-55801000D01*
X180474669Y-55731789D01*
X180146908Y-55596026D01*
X179851930Y-55398928D01*
X179601072Y-55148070D01*
X179403974Y-54853092D01*
X179268211Y-54525331D01*
X179199000Y-54177384D01*
X179199000Y-53822616D01*
X179268211Y-53474669D01*
X179403974Y-53146908D01*
X179601072Y-52851930D01*
X179851930Y-52601072D01*
X180146908Y-52403974D01*
X180474669Y-52268211D01*
X180822616Y-52199000D01*
X181177384Y-52199000D01*
X181525331Y-52268211D01*
X181525331Y-52268211D01*
G37*
G36*
X104525331Y-52268211D02*
G01*
X104853092Y-52403974D01*
X105148070Y-52601072D01*
X105398928Y-52851930D01*
X105596026Y-53146908D01*
X105731789Y-53474669D01*
X105801000Y-53822616D01*
X105801000Y-54177384D01*
X105731789Y-54525331D01*
X105596026Y-54853092D01*
X105398928Y-55148070D01*
X105148070Y-55398928D01*
X104853092Y-55596026D01*
X104525331Y-55731789D01*
X104177384Y-55801000D01*
X103822616Y-55801000D01*
X103474669Y-55731789D01*
X103146908Y-55596026D01*
X102851930Y-55398928D01*
X102601072Y-55148070D01*
X102403974Y-54853092D01*
X102268211Y-54525331D01*
X102199000Y-54177384D01*
X102199000Y-53822616D01*
X102268211Y-53474669D01*
X102403974Y-53146908D01*
X102601072Y-52851930D01*
X102851930Y-52601072D01*
X103146908Y-52403974D01*
X103474669Y-52268211D01*
X103822616Y-52199000D01*
X104177384Y-52199000D01*
X104525331Y-52268211D01*
X104525331Y-52268211D01*
G37*
M02*
