M48
; DRILL file {KiCad 5.1.4} date Sun 17 Nov 2019 01:51:33 AM CET
; FORMAT={-:-/ absolute / inch / decimal}
; #@! TF.CreationDate,2019-11-17T01:51:33+01:00
; #@! TF.GenerationSoftware,Kicad,Pcbnew,5.1.4
FMAT,2
INCH
T1C0.0079
T2C0.0157
T3C0.0197
T4C0.0236
T5C0.0394
T6C0.0256
T7C0.1378
%
G90
G05
T1
X4.2953Y-3.8228
X4.2992Y-3.6496
X4.3228Y-3.6654
X4.3504Y-3.6772
X4.374Y-3.8228
X4.3937Y-3.3386
X4.4528Y-3.8228
X4.5315Y-3.8228
X4.5492Y-2.8051
X4.6102Y-3.8228
X4.689Y-3.8228
X4.7231Y-3.372
X4.7559Y-3.3622
X4.7677Y-3.8228
X4.8307Y-2.7598
X4.8445Y-3.4114
X4.8465Y-3.8228
X4.8504Y-2.7756
X4.8524Y-3.6102
X4.8524Y-3.6575
X4.8543Y-3.5591
X4.874Y-2.7795
X4.8839Y-2.9547
X4.8937Y-3.8189
X4.9977Y-3.0373
X5.0Y-3.6594
X5.0Y-3.7087
X5.001Y-3.0728
X5.002Y-3.6083
X5.0109Y-3.1087
X5.0118Y-3.011
X5.0195Y-3.0437
X5.021Y-3.0836
X5.0344Y-3.4006
X5.0437Y-3.3553
X5.054Y-3.3755
X5.0571Y-3.1211
X5.0998Y-3.2627
X5.124Y-3.311
X5.1398Y-2.748
X5.1417Y-3.3583
X5.1909Y-3.1043
X5.1929Y-3.8346
X5.1957Y-3.024
X5.2087Y-3.5945
X5.2185Y-3.3169
X5.22Y-3.8585
X5.225Y-3.5709
X5.2362Y-3.024
X5.2369Y-2.9846
X5.2427Y-3.8585
X5.2608Y-3.185
X5.2677Y-3.8585
X5.2854Y-3.1614
X5.3228Y-3.0039
X5.3238Y-3.2205
X5.3248Y-3.1968
X5.3438Y-3.1745
X5.3524Y-2.9962
X5.3543Y-3.0866
X5.372Y-2.7303
X5.372Y-2.7697
X5.372Y-2.8091
X5.372Y-2.8484
X5.372Y-2.8878
X5.4016Y-3.1417
X5.4045Y-3.1033
X5.4058Y-2.973
X5.4083Y-3.0164
X5.4291Y-3.1427
X5.435Y-2.9272
X5.437Y-3.0669
X5.4414Y-2.9994
X5.4921Y-3.252
X5.5199Y-2.7756
X5.5236Y-2.937
X5.5413Y-3.2894
X5.5571Y-3.1575
X5.5571Y-3.0945
X5.5886Y-2.9685
X5.5886Y-3.0
X5.5886Y-3.0945
X5.6193Y-3.126
X5.6201Y-3.0638
X5.6201Y-3.0323
X5.6201Y-3.252
X5.6457Y-3.2913
X5.6516Y-3.063
X5.6516Y-2.8425
X5.6838Y-3.2205
X5.7146Y-2.9362
X5.7146Y-2.9685
X5.7146Y-3.0
X5.7146Y-3.0315
X5.7146Y-3.063
X5.7146Y-3.0945
X5.7461Y-2.9362
X5.7461Y-2.9685
X5.7461Y-3.0
X5.7461Y-3.063
X5.7461Y-3.0945
X5.7776Y-2.8417
X5.7776Y-3.0
X5.7776Y-3.063
X5.7776Y-3.0945
X5.8091Y-2.937
X5.8091Y-2.9685
X5.8091Y-3.0
X5.8091Y-3.063
X5.8091Y-3.0945
X5.8091Y-3.252
X5.8406Y-2.937
X5.8406Y-2.9685
X5.8406Y-3.0315
X5.8406Y-3.063
X5.8406Y-3.0945
X5.8494Y-3.6467
X5.8681Y-3.627
X5.872Y-2.937
X5.872Y-2.9685
X5.872Y-3.0
X5.872Y-3.0315
X5.872Y-3.0945
X5.872Y-3.2212
X5.8858Y-3.6073
X5.9035Y-3.5827
X5.9039Y-2.8421
X5.9213Y-3.5591
X5.935Y-2.874
X5.935Y-3.2205
X5.9665Y-2.874
X5.9673Y-2.937
X5.998Y-2.937
X6.0204Y-3.2827
X6.0214Y-3.5146
X6.0266Y-3.4925
X6.0336Y-3.4709
X6.037Y-2.7848
X6.0472Y-3.4528
X6.5709Y-2.8012
X6.5728Y-2.8642
X6.5728Y-2.8327
X6.5728Y-2.8957
T2
X3.9823Y-2.4272
X3.9823Y-2.4606
X4.0039Y-3.9921
X4.0118Y-3.7756
X4.0177Y-2.4272
X4.0177Y-2.4606
X4.0354Y-2.7165
X4.0748Y-2.7165
X4.0965Y-3.3858
X4.0984Y-2.6496
X4.0984Y-3.5433
X4.1142Y-2.7165
X4.1732Y-2.6693
X4.1732Y-2.7008
X4.1732Y-2.7323
X4.2047Y-2.6693
X4.2047Y-2.7323
X4.2087Y-2.4449
X4.2087Y-2.4803
X4.2441Y-2.4449
X4.2441Y-2.4803
X4.2756Y-3.2874
X4.2795Y-2.4449
X4.2795Y-2.4803
X4.2835Y-2.0197
X4.2835Y-2.0551
X4.2835Y-2.0906
X4.311Y-2.7677
X4.311Y-2.7992
X4.311Y-2.8583
X4.311Y-2.8898
X4.311Y-2.9409
X4.311Y-2.9724
X4.311Y-3.0866
X4.311Y-3.1181
X4.311Y-3.1732
X4.311Y-3.2047
X4.313Y-2.2441
X4.313Y-2.2795
X4.3189Y-2.0197
X4.3189Y-2.0551
X4.3189Y-2.0906
X4.3228Y-2.4449
X4.3228Y-2.4803
X4.3386Y-2.6102
X4.3425Y-2.7677
X4.3425Y-2.7992
X4.3425Y-2.8583
X4.3425Y-2.8898
X4.3425Y-2.9409
X4.3425Y-2.9724
X4.3425Y-3.0866
X4.3425Y-3.1181
X4.3425Y-3.1732
X4.3425Y-3.2047
X4.3484Y-2.2441
X4.3484Y-2.2795
X4.3583Y-2.4449
X4.3583Y-2.4803
X4.378Y-2.6102
X4.3937Y-2.4449
X4.4173Y-2.6102
X4.4291Y-2.4449
X4.4547Y-2.7815
X4.4646Y-2.4449
X4.5Y-2.1575
X4.5157Y-3.7283
X4.5354Y-2.1575
X4.5709Y-2.1575
X4.5728Y-2.3091
X4.5728Y-2.3425
X4.6063Y-2.1575
X4.6083Y-2.3091
X4.6083Y-2.3425
X4.6378Y-2.685
X4.6378Y-2.7205
X4.6378Y-3.2756
X4.6535Y-3.1732
X4.6535Y-3.7362
X4.6614Y-2.0236
X4.6614Y-2.0591
X4.6752Y-2.9163
X4.6752Y-2.9498
X4.6752Y-3.1201
X4.6811Y-3.3858
X4.6969Y-2.0236
X4.6969Y-2.0591
X4.7106Y-2.9163
X4.7106Y-2.9498
X4.7244Y-2.7598
X4.7244Y-2.7953
X4.7323Y-2.0236
X4.7323Y-2.0591
X4.7402Y-2.5394
X4.7421Y-2.4606
X4.7736Y-2.7677
X4.7776Y-2.4606
X4.7953Y-3.2943
X4.7992Y-2.5197
X4.811Y-2.4606
X4.8268Y-2.3465
X4.8524Y-2.4764
X4.8524Y-2.5118
X4.8524Y-2.5453
X4.8583Y-3.7087
X4.9075Y-2.6122
X4.9103Y-3.3823
X4.9252Y-2.3346
X4.9311Y-2.7717
X4.937Y-2.1457
X4.937Y-2.1811
X4.9606Y-2.3346
X4.9724Y-2.1457
X4.9724Y-2.1811
X4.9862Y-2.874
X4.9961Y-2.3346
X4.998Y-2.8406
X5.0079Y-2.1457
X5.0079Y-2.1811
X5.0079Y-3.7874
X5.0177Y-2.874
X5.0295Y-2.8406
X5.0315Y-2.3346
X5.0394Y-2.9685
X5.0531Y-2.1457
X5.0531Y-2.1772
X5.0669Y-2.3346
X5.0738Y-3.1703
X5.0846Y-2.1457
X5.0846Y-2.1772
X5.1024Y-2.3346
X5.1024Y-2.6811
X5.1161Y-2.1457
X5.1181Y-3.7992
X5.1516Y-2.1457
X5.1614Y-3.5591
X5.189Y-2.0276
X5.189Y-2.1024
X5.189Y-2.1457
X5.189Y-2.189
X5.2028Y-2.7776
X5.2028Y-2.811
X5.2077Y-3.2362
X5.2205Y-3.1929
X5.2244Y-2.0276
X5.2262Y-3.7953
X5.2264Y-3.1142
X5.2382Y-2.7776
X5.2572Y-3.8309
X5.2598Y-2.0276
X5.2953Y-2.0276
X5.4144Y-3.2982
X5.7362Y-3.7717
X5.7835Y-3.7717
X5.8425Y-2.5866
X5.8425Y-2.6181
X5.8425Y-2.6496
X5.878Y-2.5866
X5.878Y-2.6181
X5.878Y-2.6496
X5.9134Y-2.5866
X5.9134Y-2.6181
X5.9134Y-2.6496
X6.0256Y-2.6142
X6.0256Y-2.6535
X6.2008Y-2.9626
X6.2028Y-3.2244
X6.4583Y-2.7583
X6.5226Y-3.1004
X6.5311Y-2.7217
X6.5719Y-3.1791
T5
X6.1835Y-2.3685
X6.1835Y-2.4685
X6.2835Y-2.3685
X6.2835Y-2.4685
X6.3835Y-2.3685
X6.3835Y-2.4685
X6.4835Y-2.3685
X6.4835Y-2.4685
X6.5835Y-2.3685
X6.5835Y-2.4685
X6.6835Y-2.3685
X6.6835Y-2.4685
X5.9843Y-2.3685
X5.9843Y-2.4685
X6.1835Y-3.5945
X6.1835Y-3.6945
X6.2835Y-3.5945
X6.2835Y-3.6945
X6.3835Y-3.5945
X6.3835Y-3.6945
X6.4835Y-3.5945
X6.4835Y-3.6945
X6.5835Y-3.5945
X6.5835Y-3.6945
X6.6835Y-3.5945
X6.6835Y-3.6945
X5.2835Y-2.3685
X5.2835Y-2.4685
X5.3835Y-2.3685
X5.3835Y-2.4685
X5.4835Y-2.3685
X5.4835Y-2.4685
X5.5835Y-2.3685
X5.5835Y-2.4685
X5.6835Y-2.3685
X5.6835Y-2.4685
X5.7835Y-2.3685
X5.7835Y-2.4685
X5.2835Y-3.5945
X5.2835Y-3.6945
X5.3835Y-3.5945
X5.3835Y-3.6945
X5.4835Y-3.5945
X5.4835Y-3.6945
X5.5835Y-3.5945
X5.5835Y-3.6945
X5.6835Y-3.5945
X5.6835Y-3.6945
X5.7835Y-3.5945
X5.7835Y-3.6945
X6.7835Y-2.7815
X6.7835Y-2.8815
X6.7835Y-2.9815
X6.7835Y-3.0815
X6.7835Y-3.1815
X6.7835Y-3.2815
X6.8835Y-2.7815
X6.8835Y-2.8815
X6.8835Y-2.9815
X6.8835Y-3.0815
X6.8835Y-3.1815
X6.8835Y-3.2815
X5.9831Y-3.5941
X5.9831Y-3.6941
T6
X4.1933Y-2.9177
X4.1933Y-3.1453
T7
X7.126Y-2.126
X4.0945Y-3.937
X7.126Y-3.937
X4.0945Y-2.126
T3
X4.2366Y-2.8614G85X4.1894Y-2.8614
G05
X4.2366Y-3.2016G85X4.1894Y-3.2016
G05
T4
X4.0602Y-2.8614G85X4.0366Y-2.8614
G05
X4.0602Y-3.2016G85X4.0366Y-3.2016
G05
T0
M30
